<?xml version="1.0" encoding="utf-8"?>
<!-- Generator: Adobe Illustrator 22.0.1, SVG Export Plug-In . SVG Version: 6.00 Build 0)  -->
<svg version="1.1" id="Слой_1" xmlns="http://www.w3.org/2000/svg" xmlns:xlink="http://www.w3.org/1999/xlink" x="0px" y="0px"
	 viewBox="0 0 633 601" style="enable-background:new 0 0 633 601;" xml:space="preserve">
<style type="text/css">
	.st0{fill:#71A8FF;}
	.st1{fill:#CCEDF6;}
	.st2{fill:none;}
</style>
<path class="st0" d="M118,269.3c-8.1,9.4-18.8,17.1-29.6,23.2c-19.5,11-41,18.7-58.7,32.3C11.9,338.5-2,360.4,2.4,382.2
	c4.4,21.9,25.2,36.2,45.3,45.9c15.8,7.5,32.8,14.1,46.1,24.9L118,269.3z"/>
<path class="st0" d="M448.1,329.7l60.2-177.2l1.3,1.9c-8.6-19.1-17.6-37.9-30.7-54.2c-18.2-22.7-46.4-40-75.5-36.4
	c-32.4,4-56.5,31.7-87,43.3c-26.1,9.9-54.9,7.4-82.6,10.4c-27.7,2.9-58,14.2-69.1,39.6c-10.2,23.6-0.7,51.7-6.9,76.2L448.1,329.7z"
	/>
<path class="st1" d="M609.3,173c-4,6.8-8.8,13.4-14.2,19.7c-10.8,12.8-15.4,26.5-15.4,43.7c0,38.4,51.3,68.5,26.3,139.4
	c-7.9,22.3-25.2,34.3-35.2,55.7c-12.1,25.9-9.4,59.1-28.3,80.4c-20,22.5-63,8.3-91.2,17.1c-38.2,11.9-71.5,50.9-111,49.8
	c-29.8-0.8-70.4-47.3-99.6-40.4c-22,5.2-38.4,29.7-60.8,29.1c-21.2-0.5-34.3-22.8-52.5-33.6c-17.7-10.6-39.7-9.8-60.3-11.2
	c-20.7-1.4-43.4-6.8-54.3-24.6c-10.9-17.7-6.1-42,4.9-60.3c11-18.3,27.1-32.7,40.4-49.2c13.3-16.6,24.3-37.3,21.6-58.2
	c-3.7-28.8-31.8-48.8-36-77.6c-4-27.8,15.6-54,37.4-71.8c21.8-17.8,47.3-31.5,64.1-54.3c19.6-26.7,25.4-63.6,50.6-84.8
	c22.6-19.1,55.4-19.8,82.5-10.5c27.2,9.3,50.5,27.1,74.6,42.9c24.1,15.8,50.5,30,79.4,30.8c31,0.8,60.5-13.9,90.5-22.9
	c20.3-6.1,43.2-8.6,63.7-3.4c10.7,2.7,21.4,8.1,28.2,17.1c6.2,8.3,8.7,19.1,8.6,29.5C622.8,143.2,617.7,158.7,609.3,173"/>
<rect x="1.6" y="-9.7" class="st2" width="643.4" height="610.7"/>
</svg>
