<?xml version="1.0" encoding="utf-8"?>
<!-- Generator: Adobe Illustrator 22.0.1, SVG Export Plug-In . SVG Version: 6.00 Build 0)  -->
<svg version="1.1" id="Слой_1" xmlns="http://www.w3.org/2000/svg" xmlns:xlink="http://www.w3.org/1999/xlink" x="0px" y="0px"
	 viewBox="0 0 50 50" style="enable-background:new 0 0 50 50;" xml:space="preserve">
<style type="text/css">
	.st0{fill:none;}
	.st1{fill:#9A71E7;}
	.st2{fill:#FFFFFF;}
	.st3{fill:#E3E3E3;}
	.st4{fill:#78CCE7;}
	.st5{fill:#7853C6;}
	.st6{fill:#D5617C;}
	.st7{fill:#BF4569;}
	.st8{fill:#4C70B7;}
</style>
<line class="st0" x1="-155" y1="-25" x2="204.8" y2="-25"/>
<line class="st0" x1="204.8" y1="-25" x2="-155" y2="-25"/>
<path class="st0" d="M52.8,153.9"/>
<path class="st0" d="M52.8-187.6"/>
<path class="st0" d="M52.8-187.6"/>
<path class="st0" d="M52.8,153.9"/>
<path class="st1" d="M44.1,44H32.9c-2.6,0-4.6-2.1-4.6-4.6V17.9c0-2.6,2.1-4.6,4.6-4.6h11.2c2.6,0,4.6,2.1,4.6,4.6v21.5
	C48.8,41.9,46.7,44,44.1,44"/>
<path class="st2" d="M32.1,35H45c0.4,0,0.7-0.3,0.7-0.7v-12c0-0.4-0.3-0.7-0.7-0.7H32.1c-0.4,0-0.7,0.3-0.7,0.7v12
	C31.4,34.7,31.7,35,32.1,35"/>
<path class="st2" d="M44.8,10.9H32.3c-0.3,0-0.6-0.3-0.6-0.6V5c0-0.3,0.3-0.6,0.6-0.6h12.5c0.3,0,0.6,0.3,0.6,0.6v5.3
	C45.4,10.6,45.1,10.9,44.8,10.9"/>
<rect x="31.7" y="7.6" class="st3" width="13.7" height="1.4"/>
<path class="st4" d="M42.2,27.2h-2.6v-2.6c0-0.1-0.1-0.2-0.2-0.2h-1.7c-0.1,0-0.2,0.1-0.2,0.2v2.6h-2.6c-0.1,0-0.2,0.1-0.2,0.2v1.7
	c0,0.1,0.1,0.2,0.2,0.2h2.6V32c0,0.1,0.1,0.2,0.2,0.2h1.7c0.1,0,0.2-0.1,0.2-0.2v-2.6h2.6c0.1,0,0.2-0.1,0.2-0.2v-1.7
	C42.5,27.3,42.4,27.2,42.2,27.2"/>
<rect x="34.6" y="10.9" class="st5" width="7.8" height="2.3"/>
<path class="st5" d="M44.4,13.3h-1.9v-1.9C42.5,12.4,43.3,13.3,44.4,13.3"/>
<path class="st5" d="M32.7,13.3h1.9v-1.9C34.6,12.4,33.8,13.3,32.7,13.3"/>
<path class="st2" d="M8.5,29.4l10-15.9c0.3-0.5,1-0.7,1.5-0.3l7.8,4.9c0.5,0.3,0.7,1,0.3,1.5l-10,15.9c-0.3,0.5-1,0.7-1.5,0.3
	l-7.8-4.9C8.3,30.6,8.1,29.9,8.5,29.4"/>
<path class="st4" d="M20.7,16.1c0.6,0.4,0.8,1.2,0.4,1.8c-0.4,0.6-1.2,0.8-1.8,0.4c-0.6-0.4-0.8-1.2-0.4-1.8
	C19.2,15.9,20,15.7,20.7,16.1"/>
<path class="st4" d="M24.9,18.8c0.6,0.4,0.8,1.2,0.4,1.8c-0.4,0.6-1.2,0.8-1.8,0.4c-0.6-0.4-0.8-1.2-0.4-1.8
	C23.5,18.6,24.3,18.4,24.9,18.8"/>
<path class="st4" d="M18.6,19.3c0.6,0.4,0.8,1.2,0.4,1.8c-0.4,0.6-1.2,0.8-1.8,0.4c-0.6-0.4-0.8-1.2-0.4-1.8
	C17.2,19.1,18,18.9,18.6,19.3"/>
<path class="st4" d="M22.9,22c0.6,0.4,0.8,1.2,0.4,1.8c-0.4,0.6-1.2,0.8-1.8,0.4c-0.6-0.4-0.8-1.2-0.4-1.8
	C21.5,21.8,22.3,21.6,22.9,22"/>
<path class="st6" d="M3.5,35.5l9.2-14.6c0.1-0.1,0.2-0.1,0.3-0.1l10.8,6.8c0.1,0.1,0.1,0.2,0.1,0.3l-9.2,14.6
	c-0.1,0.1-0.2,0.1-0.3,0.1L3.6,35.9C3.5,35.8,3.5,35.6,3.5,35.5"/>
<path class="st7" d="M13.9,25.8l-5.5,8.6c-0.2,0.3-0.6,0.4-0.9,0.2c-0.3-0.2-0.4-0.6-0.2-0.9l5.5-8.6c0.2-0.3,0.6-0.4,0.9-0.2
	C14,25.1,14.1,25.5,13.9,25.8"/>
<path class="st7" d="M20.1,29.8l-5.5,8.6c-0.2,0.3-0.6,0.4-0.9,0.2s-0.4-0.6-0.2-0.9l5.5-8.6c0.2-0.3,0.6-0.4,0.9-0.2
	C20.2,29.1,20.3,29.5,20.1,29.8"/>
<path class="st4" d="M4.2,40.5H1.6c-0.4,0-0.6,0.3-0.6,0.6c0,0.4,0.3,0.6,0.6,0.6h2.7C9.3,41.9,18.7,44,18.7,44h21
	c1.6,0,2.9-1.3,2.9-2.9c0-1.6-1.3-2.9-2.9-2.9h-21C18.7,38.2,9.3,40.3,4.2,40.5"/>
<path class="st2" d="M38,44h1.7c1.6,0,2.9-1.3,2.9-2.9c0-1.6-1.3-2.9-2.9-2.9H38V44z"/>
<path class="st2" d="M2.7,40.5v1.3h1.6C9.3,41.9,18.7,44,18.7,44v-5.8c0,0-9.4,2.1-14.5,2.2H2.7z"/>
<path class="st8" d="M4.7,40.4c-0.2,0-0.3,0-0.5,0H1.6c-0.4,0-0.6,0.3-0.6,0.6c0,0.4,0.3,0.6,0.6,0.6h2.7c0.2,0,0.3,0,0.5,0V40.4z"
	/>
<path class="st8" d="M22.8,39.7v2.8c0,0.1,0.1,0.2,0.2,0.2h10.8c0.1,0,0.2-0.1,0.2-0.2v-2.8c0-0.1-0.1-0.2-0.2-0.2H23
	C22.9,39.5,22.8,39.6,22.8,39.7"/>
<path class="st2" d="M31.6,41.1L31.6,41.1c0,0.2-0.2,0.4-0.4,0.4h-5.7c-0.2,0-0.4-0.2-0.4-0.4c0-0.2,0.2-0.4,0.4-0.4h5.7
	C31.4,40.7,31.6,40.9,31.6,41.1"/>
</svg>
