<?xml version="1.0" encoding="utf-8"?>
<!-- Generator: Adobe Illustrator 22.0.1, SVG Export Plug-In . SVG Version: 6.00 Build 0)  -->
<svg version="1.1" id="Слой_1" xmlns="http://www.w3.org/2000/svg" xmlns:xlink="http://www.w3.org/1999/xlink" x="0px" y="0px"
	 viewBox="0 0 50 50" style="enable-background:new 0 0 50 50;" xml:space="preserve">
<style type="text/css">
	.st0{fill:#FFFFFF;}
	.st1{fill:#F0CACA;}
	.st2{fill:#E4AFAF;}
	.st3{fill:#C34A6B;}
	.st4{fill:#C4C4C4;}
	.st5{fill:#D5617C;}
	.st6{opacity:8.999630e-02;}
	.st7{clip-path:url(#SVGID_2_);}
	.st8{clip-path:url(#SVGID_4_);}
	.st9{fill:#3D3D3D;}
</style>
<path class="st0" d="M50,25.1C50,38.9,38.9,50,25.2,50C11.4,50,0.3,38.9,0.3,25.1S11.4,0.3,25.2,0.3C38.9,0.3,50,11.4,50,25.1"/>
<path class="st1" d="M27.4,30.4H25v0h-2.4c0,4.3-5.4,7-5.4,7L17.2,40l7.8,3.9V44l7.8-3.9l-0.1-2.6C32.7,37.4,27.4,34.7,27.4,30.4"/>
<path class="st2" d="M23,31.7l2.7-0.3l0,0l1.7-0.2c0-0.2-0.1-0.5-0.1-0.8H25v0h-2.4c0,4.3-5.4,7-5.4,7L17.2,40l0.5,0.3
	C18.9,39.4,23.4,35.9,23,31.7"/>
<path class="st3" d="M34.7,38.2c-0.8-0.4-1.5-0.6-2-0.8c-1.7,3-4.6,5-7.7,5c-3.2,0-6-2-7.7-5c-0.5,0.2-1.2,0.4-2,0.8
	C17.4,42.3,21,45,25,45C29.1,45,32.7,42.3,34.7,38.2"/>
<path class="st4" d="M33.6,37.7c0.2,0.1,0.3,0.1,0.5,0.2C33.9,37.9,33.8,37.8,33.6,37.7"/>
<path class="st4" d="M33.1,37.6c0.1,0,0.3,0.1,0.4,0.2C33.4,37.7,33.3,37.6,33.1,37.6"/>
<path class="st4" d="M34.1,38c0.2,0.1,0.4,0.2,0.6,0.2C34.5,38.1,34.3,38,34.1,38"/>
<path class="st4" d="M16,38c0.2-0.1,0.3-0.1,0.5-0.2C16.3,37.8,16.1,37.9,16,38"/>
<path class="st4" d="M15.4,38.2c0.2-0.1,0.4-0.2,0.5-0.2C15.7,38,15.6,38.1,15.4,38.2"/>
<path class="st5" d="M25,45c-4.1,0-7.6-2.7-9.7-6.8c-1.6,0.7-7.1,1.9-8.8,3.3c4.6,5.2,11.2,8.4,18.6,8.4c7.4,0,14-3.2,18.5-8.3
	c-1.5-1.5-7.3-2.7-9-3.5C32.7,42.3,29.1,45,25,45"/>
<path class="st4" d="M17,37.5c0.1,0,0.2-0.1,0.3-0.1C17.2,37.5,17.1,37.5,17,37.5"/>
<path class="st4" d="M16.5,37.7c0.1-0.1,0.3-0.1,0.4-0.1C16.8,37.6,16.7,37.7,16.5,37.7"/>
<path class="st3" d="M15.3,38.2c-1.6,0.7-7.1,1.9-8.8,3.3c2.5,2.8,5.7,5.1,9.2,6.6c1.2-4.1,2.5-5.8,2.5-5.8l0-0.1
	C17.1,41.1,16.1,39.8,15.3,38.2"/>
<g class="st6">
	<g>
		<defs>
			<rect id="SVGID_1_" x="21.2" y="30.4" width="7.7" height="5.9"/>
		</defs>
		<clipPath id="SVGID_2_">
			<use xlink:href="#SVGID_1_"  style="overflow:visible;"/>
		</clipPath>
		<path class="st7" d="M22.7,30.4c0,1.5-0.6,2.8-1.5,3.8c2.1,1.8,3.9,2.1,3.9,2.1s1.8-0.3,3.8-2c-0.9-1.1-1.6-2.4-1.6-4H25v0H22.7z"
			/>
	</g>
</g>
<path class="st1" d="M17.8,23c0.3,1.5,0.1,2.8-0.6,2.9c-0.6,0.1-1.4-1-1.7-2.4c-0.3-1.5-0.1-2.8,0.6-2.9
	C16.7,20.4,17.5,21.5,17.8,23"/>
<path class="st1" d="M32.6,23c-0.3,1.5,0,2.8,0.6,2.9c0.6,0.1,1.4-1,1.7-2.4c0.3-1.5,0.1-2.8-0.6-2.9C33.6,20.4,32.9,21.5,32.6,23"
	/>
<path class="st1" d="M25.2,9.2c-10.5,0-9,10.2-9,10.2c0.6,13.8,9,15.1,9,15.1s8.3-1.3,9-15.1C34.1,19.4,35.7,9.2,25.2,9.2"/>
<g class="st6">
	<g>
		<defs>
			<rect id="SVGID_3_" x="15.3" y="9.5" width="7.4" height="24"/>
		</defs>
		<clipPath id="SVGID_4_">
			<use xlink:href="#SVGID_3_"  style="overflow:visible;"/>
		</clipPath>
		<path class="st8" d="M22.3,9.5c-6,1.4-6.3,7-6.2,9.1v0c0,0.2,0,0.3,0,0.4c0,0,0,0,0,0c0,0.1,0,0.2,0,0.2c0,0.1,0,0.1,0,0.1
			c0,0.4,0.1,0.8,0.1,1.2c-0.1,0-0.2,0-0.2,0c-0.6,0.1-0.9,1.5-0.6,2.9c0.3,1.5,1.1,2.6,1.7,2.4c0,0,0,0,0.1,0v0
			c0.2,0.5,0.3,1,0.5,1.4c0,0,0,0.1,0,0.1c0.2,0.4,0.4,0.8,0.6,1.2c0,0.1,0.1,0.1,0.1,0.2c0.2,0.4,0.4,0.7,0.6,1
			c0,0,0.1,0.1,0.1,0.1c0.2,0.3,0.4,0.6,0.6,0.9c0,0,0,0.1,0.1,0.1c0.7,0.9,1.4,1.6,2.1,2.1c0,0,0,0,0,0c0.2,0.2,0.4,0.3,0.7,0.4
			c0,0,0,0,0,0C19.4,22.7,20.4,14.8,22.3,9.5"/>
	</g>
</g>
<path class="st9" d="M18.9,11.7c0,0,4.8,2.4,8.2,1.6c0,0,1.9,2.3,5,2.4c0,0,1.4,1.5,0.4,3.7l1.9,1.2c0,0,2.5-2.8,0.9-6.8
	c0,0,1.2-4.3-1.9-5.7c0,0-6-4.8-10-1.6c0,0-3.6-1.3-4.8,0.6c0,0-5.8,3.4-3.7,9c0,0,0.4,3.1,1.3,4.3C16.1,20.3,19.1,16.8,18.9,11.7"
	/>
</svg>
