<?xml version="1.0" encoding="utf-8"?>
<!-- Generator: Adobe Illustrator 22.0.1, SVG Export Plug-In . SVG Version: 6.00 Build 0)  -->
<svg version="1.1" id="Слой_1" xmlns="http://www.w3.org/2000/svg" xmlns:xlink="http://www.w3.org/1999/xlink" x="0px" y="0px"
	 viewBox="0 0 50 50" style="enable-background:new 0 0 50 50;" xml:space="preserve">
<style type="text/css">
	.st0{fill:#78CCE7;}
	.st1{fill:#9A71E7;}
	.st2{fill:none;}
</style>
<rect x="23.9" y="37.3" class="st0" width="1.7" height="11.5"/>
<path class="st0" d="M32.7,6c0-0.5,0.4-0.8,0.8-0.8c0.5,0,0.8,0.4,0.8,0.8v14.3c-0.2-0.3-0.5-0.6-0.8-0.6c-0.3,0-0.6,0.3-0.8,0.6V6z
	"/>
<path class="st0" d="M33.5,7.5c-0.5,0-0.8-0.4-0.8-0.8v-2c0-0.9-0.7-1.6-1.6-1.6c-0.5,0-0.8-0.4-0.8-0.8s0.4-0.8,0.8-0.8
	c1.8,0,3.3,1.5,3.3,3.3v2C34.4,7.2,34,7.5,33.5,7.5"/>
<path class="st0" d="M15.1,6c0-0.5,0.4-0.8,0.8-0.8c0.5,0,0.8,0.4,0.8,0.8v14.3c-0.2-0.3-0.5-0.6-0.8-0.6c-0.3,0-0.6,0.3-0.8,0.6V6z
	"/>
<path class="st0" d="M16,7.5c-0.5,0-0.8-0.4-0.8-0.8v-2c0-1.8,1.5-3.3,3.3-3.3c0.5,0,0.8,0.4,0.8,0.8s-0.4,0.8-0.8,0.8
	c-0.9,0-1.6,0.7-1.6,1.6v2C16.8,7.2,16.5,7.5,16,7.5"/>
<path class="st1" d="M21,3.3h-1.7c-0.7,0-1.2-0.5-1.2-1.2c0-0.7,0.5-1.2,1.2-1.2H21c0.7,0,1.2,0.5,1.2,1.2C22.3,2.8,21.7,3.3,21,3.3
	"/>
<path class="st1" d="M30,3.3h-1.7c-0.7,0-1.2-0.5-1.2-1.2c0-0.7,0.5-1.2,1.2-1.2H30c0.7,0,1.2,0.5,1.2,1.2C31.3,2.8,30.7,3.3,30,3.3
	"/>
<path class="st1" d="M33.5,18.9c-0.8,0-1.5-0.1-1.5,0.8v2.8c0,4-3.3,7.3-7.3,7.3c-4,0-7.3-3.3-7.3-7.3v-2.8c0-0.8-0.7-0.8-1.5-0.8
	c-0.8,0-1.5-0.1-1.5,0.8v2.8c0,4.3,2.6,7.9,6.3,9.5c0.9,1,2.1,2.7,2.1,5v1c0,0.3,0.2,0.5,0.5,0.5h2.7c0.3,0,0.5-0.2,0.5-0.5V37h0
	c0-2.3,1.2-4.1,2.1-5.1c3.7-1.5,6.3-5.2,6.3-9.5v-2.8C35,18.8,34.3,18.9,33.5,18.9"/>
<line class="st2" x1="-155" y1="-25" x2="204.8" y2="-25"/>
<line class="st2" x1="204.8" y1="-25" x2="-155" y2="-25"/>
</svg>
