<?xml version="1.0" encoding="utf-8"?>
<!-- Generator: Adobe Illustrator 22.0.1, SVG Export Plug-In . SVG Version: 6.00 Build 0)  -->
<svg version="1.1" id="Слой_1" xmlns="http://www.w3.org/2000/svg" xmlns:xlink="http://www.w3.org/1999/xlink" x="0px" y="0px"
	 viewBox="0 0 50 50" style="enable-background:new 0 0 50 50;" xml:space="preserve">
<style type="text/css">
	.st0{fill:none;}
	.st1{fill:#78CCE7;}
	.st2{fill:#FFFFFF;}
</style>
<line class="st0" x1="-155" y1="-25" x2="204.8" y2="-25"/>
<line class="st0" x1="204.8" y1="-25" x2="-155" y2="-25"/>
<path class="st0" d="M52.8,153.9"/>
<path class="st0" d="M52.8-187.6"/>
<path class="st0" d="M52.8-187.6"/>
<path class="st0" d="M52.8,153.9"/>
<path class="st1" d="M49,25.3c0,13.5-11,24.5-24.5,24.5C10.9,49.8,0,38.9,0,25.3s11-24.5,24.5-24.5C38,0.8,49,11.8,49,25.3"/>
<path class="st2" d="M21.7,35.4l-8.9-8.6c-0.3-0.3-0.3-0.8,0-1.1l2.4-2.5c0.3-0.3,0.8-0.3,1.1,0l5.3,5.1c0.3,0.3,0.8,0.3,1.1,0
	l9.9-10.2c0.3-0.3,0.8-0.3,1.1,0l2.5,2.4c0.3,0.3,0.3,0.8,0,1.1L22.8,35.4C22.5,35.7,22,35.7,21.7,35.4"/>
</svg>
