<?xml version="1.0" encoding="utf-8"?>
<!-- Generator: Adobe Illustrator 22.0.1, SVG Export Plug-In . SVG Version: 6.00 Build 0)  -->
<svg version="1.1" id="Слой_1" xmlns="http://www.w3.org/2000/svg" xmlns:xlink="http://www.w3.org/1999/xlink" x="0px" y="0px"
	 viewBox="0 0 50 50" style="enable-background:new 0 0 50 50;" xml:space="preserve">
<style type="text/css">
	.st0{fill:none;}
	.st1{fill:#D5617C;}
	.st2{fill:#FFFFFF;}
</style>
<line class="st0" x1="-155" y1="-25" x2="204.8" y2="-25"/>
<line class="st0" x1="204.8" y1="-25" x2="-155" y2="-25"/>
<path class="st1" d="M50,25.2C50,38.9,38.9,50,25.3,50C11.6,50,0.6,38.9,0.6,25.2c0-13.7,11.1-24.7,24.7-24.7
	C38.9,0.5,50,11.6,50,25.2"/>
<path class="st2" d="M30.7,14.1c-2.2,0-3.9,1.5-5.1,2.6l0,0c-0.1,0.1-0.2,0.1-0.3,0.1c-0.1,0-0.2,0-0.3-0.1l0,0
	c-1.3-1.1-3-2.6-5.1-2.6c-4.6,0-7,4.3-7,8.5c0,8.9,11.5,15.9,12,16.2h0c0.1,0.1,0.2,0.1,0.4,0.1c0.1,0,0.3-0.1,0.4-0.1h0
	c0.5-0.3,12-7.3,12-16.2C37.7,18.4,35.3,14.1,30.7,14.1"/>
<line class="st0" x1="52.8" y1="-187.6" x2="52.8" y2="153.9"/>
<line class="st0" x1="52.8" y1="153.9" x2="52.8" y2="-187.6"/>
</svg>
