<?xml version="1.0" encoding="utf-8"?>
<!-- Generator: Adobe Illustrator 22.0.1, SVG Export Plug-In . SVG Version: 6.00 Build 0)  -->
<svg version="1.1" id="Слой_1" xmlns="http://www.w3.org/2000/svg" xmlns:xlink="http://www.w3.org/1999/xlink" x="0px" y="0px"
	 viewBox="0 0 50 50" style="enable-background:new 0 0 50 50;" xml:space="preserve">
<style type="text/css">
	.st0{fill:#7BA1FB;}
	.st1{fill:#FFFFFF;}
	.st2{fill:#D5617C;}
	.st3{fill:#BA466C;}
	.st4{fill:#D4EBF4;}
	.st5{fill:#78CCE7;}
	.st6{fill:#E3E3E3;}
	.st7{fill:#39568F;}
	.st8{fill:#4268A8;}
	.st9{fill:#5685C7;}
	.st10{display:none;opacity:0.6;}
	.st11{display:inline;}
	.st12{clip-path:url(#SVGID_2_);fill:#FFFFFF;}
</style>
<rect x="1.1" y="13.3" transform="matrix(0.7071 -0.7071 0.7071 0.7071 -9.8525 6.6386)" class="st0" width="3.9" height="3.9"/>
<path class="st0" d="M34.4,44.7c0,0.4-0.4,0.8-0.8,0.8H3.9c-0.4,0-0.8-0.4-0.8-0.8V5.5c0-0.4,0.4-0.8,0.8-0.8h29.7
	c0.4,0,0.8,0.4,0.8,0.8V44.7z"/>
<rect x="4.8" y="6.5" class="st1" width="27.8" height="37.2"/>
<path class="st2" d="M18.7,0c-1.1,0-1.9,0.7-2.2,1.7C16.4,2,16,2.3,15.6,2.3l-4.5,0c-0.5,0-0.9,0.4-0.9,0.9l0,4.1
	c0,0.5,0.4,0.6,0.9,0.6l15.2,0c0.5,0,0.9-0.1,0.9-0.6l0-4.1c0-0.5-0.4-0.9-0.9-0.9l-4.5,0c-0.4,0-0.8-0.3-0.9-0.7
	C20.7,0.7,19.8,0,18.7,0"/>
<path class="st3" d="M10.2,7.3c0,0.5,0.4,0.6,0.9,0.6l15.2,0c0.5,0,0.9-0.1,0.9-0.6V6.5H10.2V7.3z"/>
<path class="st4" d="M19.7,2.4c0,0.6-0.5,1-1,1c-0.6,0-1-0.5-1-1c0-0.6,0.5-1,1-1C19.3,1.4,19.7,1.8,19.7,2.4"/>
<path class="st2" d="M16.5,15.2c0,2.3-1.9,4.2-4.2,4.2c-2.3,0-4.2-1.9-4.2-4.2c0-2.3,1.9-4.2,4.2-4.2C14.6,11,16.5,12.9,16.5,15.2"
	/>
<path class="st1" d="M14.4,14.7h-1.6v-1.6c0-0.1-0.1-0.1-0.1-0.1h-0.9c-0.1,0-0.1,0.1-0.1,0.1v1.6h-1.6c-0.1,0-0.1,0.1-0.1,0.1v0.9
	c0,0.1,0.1,0.1,0.1,0.1h1.6v1.6c0,0.1,0.1,0.1,0.1,0.1h0.9c0.1,0,0.1-0.1,0.1-0.1v-1.6h1.6c0.1,0,0.1-0.1,0.1-0.1v-0.9
	C14.5,14.7,14.5,14.7,14.4,14.7"/>
<path class="st5" d="M27,12.2h-7.4c-0.3,0-0.5-0.2-0.5-0.5v0c0-0.3,0.2-0.5,0.5-0.5H27c0.3,0,0.5,0.2,0.5,0.5v0
	C27.4,12,27.2,12.2,27,12.2"/>
<path class="st6" d="M28.8,14.6h-9.2c-0.3,0-0.5-0.2-0.5-0.5s0.2-0.5,0.5-0.5h9.2c0.3,0,0.5,0.2,0.5,0.5S29,14.6,28.8,14.6"/>
<path class="st6" d="M27,16.9h-7.4c-0.3,0-0.5-0.2-0.5-0.5c0-0.3,0.2-0.5,0.5-0.5H27c0.3,0,0.5,0.2,0.5,0.5
	C27.4,16.7,27.2,16.9,27,16.9"/>
<path class="st6" d="M28.8,19.2h-9.2c-0.3,0-0.5-0.2-0.5-0.5v0c0-0.3,0.2-0.5,0.5-0.5h9.2c0.3,0,0.5,0.2,0.5,0.5v0
	C29.2,19,29,19.2,28.8,19.2"/>
<path class="st6" d="M28.8,22.2H8.5c-0.3,0-0.5-0.2-0.5-0.5c0-0.3,0.2-0.5,0.5-0.5h20.2c0.3,0,0.5,0.2,0.5,0.5
	C29.2,22,29,22.2,28.8,22.2"/>
<path class="st6" d="M28.8,24.5H8.5c-0.3,0-0.5-0.2-0.5-0.5c0-0.3,0.2-0.5,0.5-0.5h20.2c0.3,0,0.5,0.2,0.5,0.5
	C29.2,24.3,29,24.5,28.8,24.5"/>
<path class="st6" d="M27.3,38.1H8.5c-0.3,0-0.5-0.2-0.5-0.5c0-0.3,0.2-0.5,0.5-0.5h18.7c0.3,0,0.5,0.2,0.5,0.5
	C27.7,37.9,27.5,38.1,27.3,38.1"/>
<path class="st6" d="M28.9,40.5H8.5c-0.3,0-0.5-0.2-0.5-0.5c0-0.3,0.2-0.5,0.5-0.5h20.4c0.3,0,0.5,0.2,0.5,0.5
	C29.4,40.2,29.2,40.5,28.9,40.5"/>
<path class="st6" d="M29,25.9h-0.7v0h-9v0h-1v0H9.7l0,0H8.3c-0.2,0-0.3,0.1-0.3,0.3v1.1v1.6v1v2v1v2v0.7c0,0.2,0.1,0.3,0.3,0.3H9
	h9.2h1h0h9.3h0.2H29c0.2,0,0.3-0.1,0.3-0.3v-0.3v-0.2v-3.2v-2v-1v-2.7C29.2,26,29.1,25.9,29,25.9 M18.2,34.6c0,0.2-0.1,0.3-0.3,0.3
	H9.3c-0.2,0-0.3-0.1-0.3-0.3v-1.5c0-0.2,0.1-0.3,0.3-0.3H18c0.2,0,0.3,0.1,0.3,0.3V34.6z M18.2,31.6c0,0.2-0.1,0.3-0.3,0.3H9.3
	c-0.2,0-0.3-0.1-0.3-0.3v-1.5c0-0.2,0.1-0.3,0.3-0.3H18c0.2,0,0.3,0.1,0.3,0.3V31.6z M18.2,28.6c0,0.2-0.1,0.3-0.3,0.3H9.3
	c-0.2,0-0.3-0.1-0.3-0.3v-1.5c0-0.2,0.1-0.3,0.3-0.3H18c0.2,0,0.3,0.1,0.3,0.3V28.6z M28.3,34.6c0,0.2-0.1,0.3-0.3,0.3h-8.5
	c-0.2,0-0.3-0.1-0.3-0.3v-1.5c0-0.2,0.1-0.3,0.3-0.3H28c0.2,0,0.3,0.1,0.3,0.3V34.6z M28.3,31.6c0,0.2-0.1,0.3-0.3,0.3h-8.5
	c-0.2,0-0.3-0.1-0.3-0.3v-1.5c0-0.2,0.1-0.3,0.3-0.3H28c0.2,0,0.3,0.1,0.3,0.3V31.6z M28.3,28.6c0,0.2-0.1,0.3-0.3,0.3h-8.5
	c-0.2,0-0.3-0.1-0.3-0.3v-1.5c0-0.2,0.1-0.3,0.3-0.3H28c0.2,0,0.3,0.1,0.3,0.3V28.6z"/>
<path class="st7" d="M21,41.1c-0.2,0.1-0.3,0-0.5,0.1l1.2,1.6l1.1-0.8l-1.1-1.5C21.5,40.7,21.2,40.9,21,41.1"/>
<path class="st8" d="M27.8,48.9l-1.3,0.9C26.3,50,26,50,25.9,49.8l-4.8-6.6c-0.2-0.2-0.1-0.5,0.1-0.7l1.3-0.9
	c0.2-0.2,0.4-0.3,0.5-0.1l4.9,6.9C28.1,48.5,28.1,48.8,27.8,48.9"/>
<path class="st9" d="M27.9,48.2L23,41.4c-0.2-0.2-0.3-0.1-0.5,0.1l-0.6,0.4l5.3,7.5l0.7-0.5c0.1,0,0.1-0.1,0.1-0.1
	c0-0.1,0.1-0.1,0.1-0.2c0,0,0-0.1,0-0.1C28,48.4,28,48.3,27.9,48.2"/>
<path class="st2" d="M13.2,30.3c3-2.2,7.2-1.5,9.3,1.5c2.2,3,1.5,7.2-1.5,9.3c-3,2.2-7.2,1.5-9.3-1.5C9.5,36.6,10.2,32.5,13.2,30.3"
	/>
<path class="st2" d="M13.2,30.3c3-2.2,7.2-1.5,9.3,1.5c2.2,3,1.5,7.2-1.5,9.3c-3,2.2-7.2,1.5-9.3-1.5C9.5,36.6,10.2,32.5,13.2,30.3"
	/>
<path class="st1" d="M22.2,35.1c0.4,2.8-1.6,5.4-4.5,5.8c-2.8,0.4-5.4-1.6-5.8-4.5c-0.4-2.8,1.6-5.4,4.5-5.8
	C19.2,30.2,21.8,32.2,22.2,35.1"/>
<path class="st5" d="M17.1,38.7c-0.1,0-0.3-0.1-0.3-0.2L15.8,36c0-0.1-0.1-0.1-0.2-0.1c0,0,0,0,0,0c-0.1,0-0.1,0.1-0.2,0.1l-0.2,0.8
	c0,0.2-0.2,0.3-0.3,0.3h-1.6c-0.2,0-0.4-0.2-0.4-0.4s0.2-0.4,0.4-0.4h1.1c0.1,0,0.2-0.1,0.2-0.1l0.4-2.2c0-0.2,0.2-0.3,0.3-0.3
	c0,0,0,0,0,0c0.2,0,0.3,0.1,0.3,0.2l0.9,2.5c0,0.1,0.1,0.1,0.2,0.1c0,0,0,0,0,0c0.1,0,0.1-0.1,0.2-0.1l0.7-3.4
	c0-0.2,0.2-0.3,0.3-0.3c0,0,0,0,0,0c0.2,0,0.3,0.1,0.3,0.3l0.9,3.3c0,0.1,0.1,0.1,0.2,0.1h1.2c0.2,0,0.4,0.2,0.4,0.4
	s-0.2,0.4-0.4,0.4h-1.6c-0.2,0-0.3-0.1-0.3-0.3l-0.5-1.6c0-0.1-0.1-0.1-0.2-0.1c0,0,0,0,0,0c-0.1,0-0.1,0.1-0.2,0.1l-0.6,3.1
	C17.4,38.6,17.2,38.7,17.1,38.7C17.1,38.7,17.1,38.7,17.1,38.7"/>
<path class="st1" d="M31.3,45.5h5.2c0.9,0,1.6-0.7,1.6-1.6v-0.4c0-0.9-0.7-1.6-1.6-1.6h-5.2c-0.9,0-1.6,0.7-1.6,1.6v0.4
	C29.7,44.8,30.4,45.5,31.3,45.5"/>
<path class="st2" d="M31.3,42h2.6v3.5h-2.6c-0.9,0-1.6-0.7-1.6-1.6v-0.4C29.7,42.7,30.4,42,31.3,42"/>
<g class="st10">
	<g class="st11">
		<defs>
			<rect id="SVGID_1_" x="31.4" y="42.5" width="1.5" height="0.5"/>
		</defs>
		<clipPath id="SVGID_2_">
			<use xlink:href="#SVGID_1_"  style="overflow:visible;"/>
		</clipPath>
		<path class="st12" d="M32.7,43h-1c-0.1,0-0.3-0.1-0.3-0.3c0-0.1,0.1-0.3,0.3-0.3h1c0.1,0,0.3,0.1,0.3,0.3C33,42.9,32.9,43,32.7,43
			"/>
	</g>
</g>
</svg>
