<?xml version="1.0" encoding="utf-8"?>
<!-- Generator: Adobe Illustrator 22.0.1, SVG Export Plug-In . SVG Version: 6.00 Build 0)  -->
<svg version="1.1" id="Слой_1" xmlns="http://www.w3.org/2000/svg" xmlns:xlink="http://www.w3.org/1999/xlink" x="0px" y="0px"
	 viewBox="0 0 50 50" style="enable-background:new 0 0 50 50;" xml:space="preserve">
<style type="text/css">
	.st0{fill:none;}
	.st1{fill:#78CCE7;}
	.st2{fill:#9A71E7;}
	.st3{fill:#4C70B7;}
	.st4{fill:#FFFFFF;}
</style>
<line class="st0" x1="-155" y1="-25" x2="204.8" y2="-25"/>
<line class="st0" x1="204.8" y1="-25" x2="-155" y2="-25"/>
<path class="st1" d="M24.3,44.8c-0.7,0.1-1.4,0.1-2.2,0.1C15.6,45,8.5,44.5,0.4,43.3l0.3-1.9c7.9,1.2,14.9,1.7,21.4,1.6
	c1.4,0,2.8-0.1,3.9-0.7c0.9-0.5,1.8-1.5,1.6-2.5c-0.2-1-1.4-1.7-2.5-2c-0.7-0.1-1.4-0.2-2.2-0.2c-0.7,0-1.5-0.1-2.2-0.2
	c-2.1-0.4-3.7-1.6-4.2-3.2c-0.6-2,0.7-4.1,2.2-5.1c1.5-1,3.3-1.3,5-1.6c1.3-0.3,2.5-0.5,3.5-1c2.6-1.2,5.4-3,7-6l1.7,0.9
	C34.1,24.8,31,27,28,28.3c-1.3,0.6-2.6,0.8-4,1.1c-1.6,0.3-3.1,0.6-4.3,1.4c-0.9,0.6-1.7,1.8-1.4,2.9c0.3,1.1,1.6,1.6,2.7,1.8
	c0.6,0.1,1.3,0.1,2,0.2c0.8,0,1.7,0.1,2.5,0.3c1.6,0.3,3.6,1.5,4,3.5c0.4,2-1,3.8-2.6,4.6C26.1,44.5,25.2,44.7,24.3,44.8"/>
<path class="st2" d="M38,18.1l-1.7-0.8c-0.1-0.1-0.3-0.1-0.4,0c0,0-0.1,0-0.1,0c-0.2,0.1-0.3,0.2-0.4,0.3c-0.8,1.7-1.7,3.1-2.8,4.2
	c-0.5,0.5-0.5,1.2,0,1.7l0.7,0.6c0.5,0.4,1.1,0.4,1.6-0.1c1.4-1.4,2.5-3.1,3.4-5.1c0.1-0.2,0.1-0.3,0-0.5
	C38.3,18.3,38.2,18.2,38,18.1"/>
<path class="st3" d="M48.8,12.3c0.9,4.6-2.1,9.1-6.7,10c-4.6,0.9-9.1-2.1-10-6.7c-0.9-4.6,2.1-9.1,6.7-10
	C43.5,4.7,47.9,7.7,48.8,12.3"/>
<path class="st1" d="M45.7,13c0.6,2.9-1.3,5.6-4.1,6.2c-2.9,0.6-5.6-1.3-6.2-4.1c-0.6-2.9,1.3-5.6,4.1-6.2
	C42.3,8.3,45.1,10.1,45.7,13"/>
<path class="st4" d="M42.2,13.6c0.2,0.9-0.4,1.9-1.4,2c-0.9,0.2-1.9-0.4-2-1.4c-0.2-0.9,0.4-1.9,1.4-2C41.1,12.1,42,12.7,42.2,13.6"
	/>
</svg>
