<?xml version="1.0" standalone="no"?>
<!DOCTYPE svg PUBLIC "-//W3C//DTD SVG 20010904//EN"
 "http://www.w3.org/TR/2001/REC-SVG-20010904/DTD/svg10.dtd">
<svg version="1.0" xmlns="http://www.w3.org/2000/svg"
 width="117.000000pt" height="117.000000pt" viewBox="0 0 117.000000 117.000000"
 preserveAspectRatio="xMidYMid meet">
<metadata>
Created by potrace 1.11, written by Peter Selinger 2001-2013
</metadata>
<g transform="translate(0.000000,117.000000) scale(0.100000,-0.100000)"
fill="#000000" stroke="none">
<path d="M62 1038 c-8 -8 -12 -63 -12 -180 0 -159 1 -168 21 -178 38 -21 49 2
49 106 0 52 3 94 8 94 4 0 24 -27 44 -60 48 -78 64 -78 117 3 l41 62 0 -92 c0
-70 4 -95 16 -107 8 -9 19 -16 24 -16 5 0 16 7 24 16 13 13 16 43 16 170 0
161 -7 194 -40 194 -18 0 -29 -14 -115 -151 l-26 -41 -56 89 c-67 106 -83 119
-111 91z"/>
<path d="M502 1028 c-17 -17 -17 -319 0 -336 16 -16 220 -16 236 0 16 16 15
23 -4 42 -11 12 -36 16 -95 16 l-80 0 3 43 3 42 60 5 c56 5 60 7 60 30 0 23
-4 25 -60 30 l-60 5 0 35 0 35 85 5 c83 5 85 6 85 30 0 25 0 25 -110 28 -77 2
-114 -1 -123 -10z"/>
<path d="M822 1028 c-17 -17 -17 -319 0 -336 16 -16 129 -16 181 0 82 25 136
113 122 199 -17 97 -92 149 -215 149 -46 0 -81 -5 -88 -12z m150 -58 c48 -14
78 -52 78 -101 0 -78 -43 -119 -124 -119 l-46 0 0 108 c0 60 3 112 7 115 9 10
42 8 85 -3z"/>
<path d="M52 528 c-7 -7 -12 -17 -12 -22 0 -24 104 -292 118 -303 27 -22 45 2
83 109 42 116 33 118 84 -24 50 -140 66 -132 141 69 55 148 57 156 40 169 -31
22 -47 2 -87 -107 -33 -93 -38 -101 -46 -79 -5 14 -22 60 -37 102 -46 129 -70
128 -116 -5 -18 -51 -35 -98 -39 -104 -4 -8 -23 32 -45 91 -31 86 -49 116 -70
116 -1 0 -7 -5 -14 -12z"/>
<path d="M585 517 c-3 -7 -4 -80 -3 -162 l3 -150 110 0 110 0 0 25 c0 24 -2
25 -77 28 l-78 3 0 39 0 40 43 0 c51 0 70 11 65 36 -2 15 -14 20 -56 22 -52 3
-52 3 -52 37 l0 34 73 3 c69 3 72 4 72 28 0 25 -1 25 -103 28 -78 2 -104 0
-107 -11z"/>
<path d="M875 518 c-3 -8 -4 -81 -3 -163 l3 -150 98 0 c96 0 100 1 123 28 34
40 33 98 -2 126 -21 16 -23 23 -15 40 18 32 13 68 -13 98 -22 25 -31 28 -105
31 -63 3 -82 1 -86 -10z m140 -83 c0 -28 -3 -30 -42 -33 l-43 -3 0 36 0 36 43
-3 c39 -3 42 -5 42 -33z m35 -115 c8 -14 8 -26 0 -40 -9 -16 -21 -20 -65 -20
l-55 0 0 40 0 40 55 0 c44 0 56 -4 65 -20z"/>
</g>
</svg>
