<?xml version="1.0" standalone="no"?>
<!DOCTYPE svg PUBLIC "-//W3C//DTD SVG 1.1//EN" "http://www.w3.org/Graphics/SVG/1.1/DTD/svg11.dtd" >
<svg>
<metadata>
Created by FontForge 20090914 at Mon Jul 15 07:24:58 2019
 By www-data
Copyright (c) 2016 by Jakob Runge and Lisa Fischbach, under exclusive license to TypeMates. All rights reserved.
</metadata>
<defs>
<font id="CeraRoundPro-Bold" horiz-adv-x="560" >
  <font-face 
    font-family="Cera Round Pro"
    font-weight="700"
    font-stretch="normal"
    units-per-em="1000"
    panose-1="0 0 8 0 0 0 0 0 0 0"
    ascent="808"
    descent="-192"
    x-height="495"
    cap-height="659.999"
    bbox="-174 -254.005 1371 1032"
    underline-thickness="87"
    underline-position="-14"
    unicode-range="U+0020-U+FB02"
  />
<missing-glyph horiz-adv-x="713" 
d="M618.5 641c12.333 -12.667 18.5 -28.334 18.5 -47.001v-528c0 -18.667 -6.16699 -34.334 -18.5 -47.001s-27.833 -19 -46.5 -19h-431c-18.667 0 -34.167 6.33301 -46.5 19s-18.5 28.334 -18.5 47.001v528c0 18.667 6.16699 34.334 18.5 47.001s27.833 19 46.5 19h431
c18.667 0 34.167 -6.33301 46.5 -19zM545 576h-379l379 -499v499z" />
    <glyph glyph-name="fi" unicode="fi" horiz-adv-x="626" 
d="M244 621c-12.667 -13.333 -18.998 -32.333 -18.998 -57v-69h62c16.667 0 30.334 -5.33301 41.001 -16s16 -24.334 16 -41.001s-5.33301 -30.334 -16 -41.001s-24.334 -16 -41.001 -16h-62v-324c0 -20 -6.33301 -36.5 -19 -49.5s-28.667 -19.5 -48 -19.5
s-35.5 6.66699 -48.5 20s-19.5 29.666 -19.5 48.999v324h-22c-16.667 0 -30.5 5.33301 -41.5 16s-16.5 24.334 -16.5 41.001s5.5 30.334 16.5 41.001s24.833 16 41.5 16h22v81c0 58.667 16.333 104.334 49 137.001s77.667 49 135 49c25.333 0 46.666 -4.33301 63.999 -13
c10.667 -4.66699 19 -11.667 25 -21s9 -20.333 9 -33c0 -16.667 -5.33301 -30 -16 -40s-25 -15 -43 -15l-16 1c-22.667 0 -40.334 -6.66699 -53.001 -20zM443.502 8c-13 13.333 -19.5 29.666 -19.5 48.999v381c0 19.333 6.5 35.5 19.5 48.5s29.167 19.5 48.5 19.5
s35.333 -6.5 48 -19.5s19 -29.167 19 -48.5v-381c0 -19.333 -6.5 -35.666 -19.5 -48.999s-29.167 -20 -48.5 -20c-18.667 0 -34.5 6.66699 -47.5 20zM551.002 733c16.667 -16 25 -35.334 25 -58.001c0 -22 -8.33301 -41 -25 -57s-36.334 -24 -59.001 -24
c-23.333 0 -43.333 7.83301 -60 23.5s-25 34.834 -25 57.501s8.33301 42 25 58s36.667 24 60 24c22.667 0 42.334 -8 59.001 -24z" />
    <glyph glyph-name="fl" unicode="fl" horiz-adv-x="626" 
d="M244 621c-12.667 -13.333 -18.998 -32.333 -18.998 -57v-69h62c16.667 0 30.334 -5.33301 41.001 -16s16 -24.334 16 -41.001s-5.33301 -30.334 -16 -41.001s-24.334 -16 -41.001 -16h-62v-324c0 -20 -6.33301 -36.5 -19 -49.5s-28.667 -19.5 -48 -19.5
s-35.5 6.66699 -48.5 20s-19.5 29.666 -19.5 48.999v324h-22c-16.667 0 -30.5 5.33301 -41.5 16s-16.5 24.334 -16.5 41.001s5.5 30.334 16.5 41.001s24.833 16 41.5 16h22v81c0 58.667 16.333 104.334 49 137.001s77.667 49 135 49c25.333 0 46.666 -4.33301 63.999 -13
c10.667 -4.66699 19 -11.667 25 -21s9 -20.333 9 -33c0 -16.667 -5.33301 -30 -16 -40s-25 -15 -43 -15l-16 1c-22.667 0 -40.334 -6.66699 -53.001 -20zM443.502 8c-13 13.333 -19.5 29.666 -19.5 48.999v636c0 19.333 6.5 35.666 19.5 48.999s29.167 20 48.5 20
c18.667 0 34.5 -6.66699 47.5 -20s19.5 -29.666 19.5 -48.999v-636c0 -19.333 -6.5 -35.666 -19.5 -48.999s-28.833 -20 -47.5 -20c-19.333 0 -35.5 6.66699 -48.5 20z" />
    <glyph glyph-name=".notdef" horiz-adv-x="713" 
d="M618.5 641c12.333 -12.667 18.5 -28.334 18.5 -47.001v-528c0 -18.667 -6.16699 -34.334 -18.5 -47.001s-27.833 -19 -46.5 -19h-431c-18.667 0 -34.167 6.33301 -46.5 19s-18.5 28.334 -18.5 47.001v528c0 18.667 6.16699 34.334 18.5 47.001s27.833 19 46.5 19h431
c18.667 0 34.167 -6.33301 46.5 -19zM545 576h-379l379 -499v499z" />
    <glyph glyph-name="space" unicode=" " horiz-adv-x="280" 
 />
    <glyph glyph-name="exclam" unicode="!" horiz-adv-x="345" 
d="M125.5 229c-12.333 13.333 -18.834 29.666 -19.501 48.999l-11 311c-1.33301 24.667 5.16699 44.667 19.5 60s33.833 23 58.5 23c24 0 43.167 -7.83301 57.5 -23.5s20.833 -35.5 19.5 -59.5l-11 -311c-1.33301 -19.333 -8 -35.666 -20 -48.999s-27.333 -20 -46 -20
c-19.333 0 -35.166 6.66699 -47.499 20zM110.499 13c-17 16.667 -25.5 37.334 -25.5 62.001c0 24 8.5 44.667 25.5 62s38.167 26 63.5 26c24.667 0 45.167 -8.5 61.5 -25.5s24.5 -37.833 24.5 -62.5s-8.16699 -45.334 -24.5 -62.001s-36.833 -25 -61.5 -25
c-25.333 0 -46.5 8.33301 -63.5 25z" />
    <glyph glyph-name="quotedbl" unicode="&#x22;" horiz-adv-x="538" 
d="M81.5 359.5c-11.667 11.667 -17.499 25.834 -17.499 42.501c0 4 2 18 6 42c9.33301 48 14 90.333 14 127c0 25.333 6.66699 45.5 20 60.5s31.333 22.5 54 22.5c23.333 0 41.666 -7.33301 54.999 -22s20 -34.334 20 -59.001c0 -20 -4 -48.333 -12 -85
s-16.667 -66.334 -26 -89.001c-9.33301 -21.333 -19 -36.166 -29 -44.499s-23.667 -12.5 -41 -12.5s-31.833 5.83301 -43.5 17.5zM318.501 359.5c-11.667 11.667 -17.499 25.834 -17.499 42.501c0 4 2 18 6 42c9.33301 48 14 90.333 14 127c0 25.333 6.66699 45.5 20 60.5
s31.333 22.5 54 22.5c23.333 0 41.666 -7.33301 54.999 -22s20 -34.334 20 -59.001c0 -20 -4 -48.333 -12 -85s-16.667 -66.334 -26 -89.001c-9.33301 -21.333 -19 -36.166 -29 -44.499s-23.667 -12.5 -41 -12.5s-31.833 5.83301 -43.5 17.5z" />
    <glyph glyph-name="numbersign" unicode="#" horiz-adv-x="631" 
d="M509 399l-17.999 -137.998h47c14 0 25.833 -5.33301 35.5 -16s14.5 -24.334 14.5 -41.001c0 -16 -5.33301 -29.333 -16 -40s-24.334 -16 -41.001 -16h-56l-15 -115c-2 -12.667 -8.33301 -23.334 -19 -32.001s-22.667 -13 -36 -13c-15.333 0 -28.333 5.33301 -39 16
s-16 23.667 -16 39l1 18l12 87h-144l-16 -115c-1.33301 -12.667 -7.33301 -23.334 -18 -32.001s-22.667 -13 -36 -13c-15.333 0 -28.5 5.33301 -39.5 16s-16.5 23.667 -16.5 39c0 4.66699 1 12 3 22l11 83h-30c-16.667 0 -30.5 5.33301 -41.5 16s-16.5 24 -16.5 40
c0 16.667 5.5 30.334 16.5 41.001s24.833 16 41.5 16h46l18 138h-40c-16.667 0 -30.334 5.33301 -41.001 16s-16 24.334 -16 41.001c0 16 5.33301 29.333 16 40s24.334 16 41.001 16h55l16 115c1.33301 12.667 7.33301 23.167 18 31.5s22.667 12.5 36 12.5
c15.333 0 28.333 -5.33301 39 -16s16 -23.667 16 -39l-1 -16l-12 -88h144l16 115c1.33301 12.667 7.33301 23.167 18 31.5s23 12.5 37 12.5c15.333 0 28.333 -5.33301 39 -16s16 -23.667 16 -39c0 -4 -0.666992 -9.33301 -2 -16l-12 -88h31
c16.667 0 30.334 -5.33301 41.001 -16s16 -24 16 -40c0 -16.667 -5.33301 -30.334 -16 -41.001s-24.334 -16 -41.001 -16h-46zM377.001 255.002l21 150h-144l-21 -150h144z" />
    <glyph glyph-name="dollar" unicode="$" horiz-adv-x="538" 
d="M447.5 83.5c-30.333 -31 -70.5 -50.5029 -120.5 -58.5029v-71c0 -18 -5.66699 -33 -17 -45s-25.333 -18 -42 -18s-30.667 6 -42 18s-17 26.667 -17 44v74c-31.333 6.66699 -59.5 17.834 -84.5 33.501s-45.833 35.167 -62.5 58.5c-8.66699 12.667 -13 25 -13 37
c0 18 5.83301 32.333 17.5 43s25.5 16 41.5 16s30 -6 42 -18c17.333 -20 36.166 -34.667 56.499 -44s42.833 -14 67.5 -14c26 0 47 5 63 15s24 24.667 24 44c0 16 -6.16699 28.833 -18.5 38.5s-31.833 19.834 -58.5 30.501l-68 25c-46.667 17.333 -83.167 40.5 -109.5 69.5
s-39.5 63.833 -39.5 104.5s13 75.5 39 104.5s60.333 48.5 103 58.5v69c0 18 5.5 32.833 16.5 44.5s25.167 17.5 42.5 17.5s31.5 -5.83301 42.5 -17.5s16.5 -26.5 16.5 -44.5v-67c54.667 -12 97.667 -40 129 -84c8.66699 -12.667 13 -24.667 13 -36
c0 -18 -5.66699 -32.5 -17 -43.5s-25 -16.5 -41 -16.5s-30 6 -42 18c-15.333 16 -30.666 27.833 -45.999 35.5s-32.666 11.5 -51.999 11.5c-20.667 0 -37.834 -4.16699 -51.501 -12.5s-20.5 -21.166 -20.5 -38.499c0 -14.667 5.5 -26.5 16.5 -35.5
s27.833 -18.167 50.5 -27.5l75 -26c50.667 -18.667 88.667 -42.5 114 -71.5s38 -63.833 38 -104.5c0 -46.667 -15.167 -85.5 -45.5 -116.5z" />
    <glyph glyph-name="percent" unicode="%" horiz-adv-x="831" 
d="M126 365c-26 14.667 -46.5 34.5 -61.5 59.5s-22.5 52.833 -22.5 83.5c0 30 7.5 57.5 22.5 82.5s35.5 44.833 61.5 59.5s54.667 22 86 22s60 -7.33301 86 -22s46.5 -34.5 61.5 -59.5s22.5 -52.5 22.5 -82.5c0 -30.667 -7.5 -58.5 -22.5 -83.5s-35.5 -44.833 -61.5 -59.5
s-54.667 -22 -86 -22s-60 7.33301 -86 22zM212 2c-9.33301 9.33301 -13.999 20.666 -13.999 33.999c0 10.667 2.33301 19.667 7 27l338 584c4.66699 7.33301 10.667 13.333 18 18s15.333 7 24 7c13.333 0 24.666 -4.66699 33.999 -14s14 -20.666 14 -33.999
c0 -10.667 -2.33301 -19.667 -7 -27l-338 -584c-4 -7.33301 -9.83301 -13.333 -17.5 -18s-15.834 -7 -24.501 -7c-13.333 0 -24.666 4.66699 -33.999 14zM260.501 456.5c12.333 13.667 18.502 30.832 18.502 51.499c0 20 -6.33301 36.833 -19 50.5
s-28.334 20.5 -47.001 20.5c-19.333 0 -35.333 -6.66699 -48 -20s-19 -30.333 -19 -51c0 -21.333 6.16699 -38.666 18.5 -51.999s28.5 -20 48.5 -20c19.333 0 35.166 6.83301 47.499 20.5zM533.003 10.998c-26 14.667 -46.5 34.667 -61.5 60s-22.5 53 -22.5 83
s7.5 57.5 22.5 82.5s35.5 44.833 61.5 59.5s54.667 22 86 22s60 -7.33301 86 -22s46.667 -34.5 62 -59.5s23 -52.5 23 -82.5s-7.66699 -57.667 -23 -83s-36 -45.333 -62 -60s-54.667 -22 -86 -22s-60 7.33301 -86 22zM666.503 102.998c12.333 13.333 18.5 30.333 18.5 51
s-6.16699 37.667 -18.5 51s-27.833 20 -46.5 20c-20 0 -36.167 -6.5 -48.5 -19.5s-18.5 -30.167 -18.5 -51.5s6.16699 -38.5 18.5 -51.5s28.5 -19.5 48.5 -19.5c18.667 0 34.167 6.66699 46.5 20z" />
    <glyph glyph-name="ampersand" unicode="&#x26;" horiz-adv-x="674" 
d="M628 52c0 -17.333 -6.33008 -32.332 -18.9971 -44.999s-27.667 -19 -45 -19s-32.333 6.33301 -45 19l-57 60c-31.333 -27.333 -63.166 -47.333 -95.499 -60s-66.833 -19 -103.5 -19c-42.667 0 -80.334 7.66699 -113.001 23s-58.167 37 -76.5 65s-27.5 60 -27.5 96
c0 35.333 9.66699 67.5 29 96.5s53.666 62.833 102.999 101.5c-20 25.333 -34.5 49.166 -43.5 71.499s-13.5 46.5 -13.5 72.5c0 47.333 15.333 85.5 46 114.5s71 43.5 121 43.5c48 0 87.167 -13.5 117.5 -40.5s45.5 -61.833 45.5 -104.5
c0 -28.667 -7.83301 -56.167 -23.5 -82.5s-40.5 -53.833 -74.5 -82.5l106 -110l49 71c7.33301 10.667 16.166 19 26.499 25s20.833 9 31.5 9c16.667 0 31 -6.16699 43 -18.5s18 -26.833 18 -43.5c0 -8 -1.83301 -16.167 -5.5 -24.5s-9.83398 -18.833 -18.501 -31.5
c-20.667 -31.333 -39 -57.333 -55 -78l61 -64c12.667 -11.333 19 -26.333 19 -45zM254.003 545.501c-8 -7.66699 -11.999 -18.5 -11.999 -32.5c0 -24 12.333 -48.667 37 -74c19.333 15.333 32.666 28.5 39.999 39.5s11 22.833 11 35.5c0 13.333 -3.83301 23.833 -11.5 31.5
s-18.167 11.5 -31.5 11.5c-14 0 -25 -3.83301 -33 -11.5zM378.004 157.001l-122 128.999c-30.667 -24.667 -50.834 -43.5 -60.501 -56.5s-14.5 -27.833 -14.5 -44.5c0 -23.333 8.33301 -42.166 25 -56.499s38.334 -21.5 65.001 -21.5c35.333 0 71 16.667 107 50z" />
    <glyph glyph-name="quotesingle" unicode="'" horiz-adv-x="301" 
d="M81.5 359.5c-11.667 11.667 -17.499 25.834 -17.499 42.501c0 4 2 18 6 42c9.33301 48 14 90.333 14 127c0 25.333 6.66699 45.5 20 60.5s31.333 22.5 54 22.5c23.333 0 41.666 -7.33301 54.999 -22s20 -34.334 20 -59.001c0 -20 -4 -48.333 -12 -85
s-16.667 -66.334 -26 -89.001c-9.33301 -21.333 -19 -36.166 -29 -44.499s-23.667 -12.5 -41 -12.5s-31.833 5.83301 -43.5 17.5z" />
    <glyph glyph-name="parenleft" unicode="(" horiz-adv-x="365" 
d="M247 -112c-55.333 36.667 -98.833 89.999 -130.5 159.999s-47.5 155 -47.5 255c0 100.667 15.833 186 47.5 256s75.167 123.333 130.5 160c13.333 8 25 12 35 12c14 0 26 -5.16699 36 -15.5s15 -22.166 15 -35.499c0 -16 -7.66699 -30.667 -23 -44
c-40 -34.667 -70.5 -79 -91.5 -133s-31.5 -120.667 -31.5 -200c0 -78.667 10.5 -145.167 31.5 -199.5s51.5 -98.5 91.5 -132.5c15.333 -13.333 23 -28 23 -44c0 -14 -5 -26 -15 -36s-22 -15 -36 -15c-12 0 -23.667 4 -35 12z" />
    <glyph glyph-name="parenright" unicode=")" horiz-adv-x="365" 
d="M47 -112c-10 10 -15.001 22.001 -15.001 36.001c0 16 7.66699 30.667 23 44c40 34 70.5 78.167 91.5 132.5s31.5 120.833 31.5 199.5c0 79.333 -10.5 146 -31.5 200s-51.5 98.333 -91.5 133c-15.333 13.333 -23 28 -23 44c0 13.333 5 25.166 15 35.499s22 15.5 36 15.5
c10.667 0 22.334 -4 35.001 -12c55.333 -36.667 98.833 -90 130.5 -160s47.5 -155.333 47.5 -256c0 -100 -15.833 -185 -47.5 -255s-75.167 -123.333 -130.5 -160c-11.333 -8 -23 -12 -35 -12c-14 0 -26 5 -36 15z" />
    <glyph glyph-name="asterisk" unicode="*" horiz-adv-x="467" 
d="M414.5 491c4.33301 -7.33301 6.5 -15 6.5 -23c0 -14.667 -4.66699 -26.5 -14 -35.5s-20 -13.5 -32 -13.5c-9.33301 0 -18.666 2.66699 -27.999 8l-66 38v-76c0 -16 -4.66699 -28.5 -14 -37.5s-20.333 -13.5 -33 -13.5c-13.333 0 -24.666 4.5 -33.999 13.5
s-14 21.5 -14 37.5v76l-66 -38c-9.33301 -5.33301 -18.666 -8 -27.999 -8c-16.667 0 -30 8 -40 24c-4 8 -6 16.333 -6 25c0 8 2.16699 15.667 6.5 23s10.833 13.333 19.5 18l67 39l-67 38c-8.66699 4.66699 -15.167 10.667 -19.5 18s-6.5 15 -6.5 23
c0 13.333 4.66699 24.833 14 34.5s20 14.5 32 14.5c9.33301 0 18.666 -2.66699 27.999 -8l66 -38v76c0 16 4.66699 28.5 14 37.5s20.666 13.5 33.999 13.5c12.667 0 23.667 -4.5 33 -13.5s14 -21.5 14 -37.5v-76l66 38c9.33301 5.33301 18.666 8 27.999 8
c16.667 0 30 -8 40 -24c4 -8 6 -16.333 6 -25c0 -8 -2.16699 -15.667 -6.5 -23s-10.833 -13.333 -19.5 -18l-67 -38l67 -39c8.66699 -4.66699 15.167 -10.667 19.5 -18z" />
    <glyph glyph-name="plus" unicode="+" 
d="M235 95.5c-12 12.333 -18 28.168 -18 47.501v115h-122c-19.333 0 -34.5 6 -45.5 18s-16.5 26.333 -16.5 43c0 17.333 5.5 31.833 16.5 43.5s26.167 17.5 45.5 17.5h122v116c0 18.667 6 34.167 18 46.5s27.333 18.5 46 18.5s34.167 -6.16699 46.5 -18.5
s18.5 -27.833 18.5 -46.5v-116h120c18.667 0 33.5 -5.83301 44.5 -17.5s16.5 -26.167 16.5 -43.5c0 -16.667 -5.5 -31 -16.5 -43s-25.833 -18 -44.5 -18h-120v-115c0 -18.667 -6.16699 -34.334 -18.5 -47.001s-27.833 -19 -46.5 -19s-34 6.16699 -46 18.5z" />
    <glyph glyph-name="comma" unicode="," horiz-adv-x="270" 
d="M61 -174.5c-12 11.667 -18.002 26.167 -18.002 43.5c0 4.66699 2 20.334 6 47.001c9.33301 51.333 14 96 14 134c0 25.333 6.83301 45.5 20.5 60.5s31.834 22.5 54.501 22.5c23.333 0 41.666 -7.33301 54.999 -22s20 -34.334 20 -59.001
c0 -20.667 -4.16699 -50.667 -12.5 -90s-17.166 -71.333 -26.499 -96c-8.66699 -20.667 -18.167 -35.5 -28.5 -44.5s-23.166 -13.5 -38.499 -13.5c-18.667 0 -34 5.83301 -46 17.5z" />
    <glyph glyph-name="hyphen" unicode="-" horiz-adv-x="342" 
d="M289 361c10.667 -10.667 16 -24 16 -40s-5.33301 -29.5 -16 -40.5s-24.334 -16.5 -41.001 -16.5h-153c-16.667 0 -30.334 5.5 -41.001 16.5s-16 24.5 -16 40.5s5.33301 29.333 16 40s24.334 16 41.001 16h153c16.667 0 30.334 -5.33301 41.001 -16z" />
    <glyph glyph-name="period" unicode="." horiz-adv-x="270" 
d="M69 15c-18 18 -27 40 -27 66s9 48 27 66s40.333 27 67 27c26 0 47.833 -9 65.5 -27s26.5 -40 26.5 -66s-8.83301 -48 -26.5 -66s-39.5 -27 -65.5 -27c-26.667 0 -49 9 -67 27z" />
    <glyph glyph-name="slash" unicode="/" horiz-adv-x="675" 
d="M54 -114.5c-12.667 12.333 -18.999 26.833 -18.999 43.5c0 13.333 4.33301 26.666 13 39.999l464 781c5.33301 9.33301 12.833 16.666 22.5 21.999s19.834 8 30.501 8c16.667 0 31.167 -6.16699 43.5 -18.5s18.5 -27.166 18.5 -44.499c0 -14 -4 -27 -12 -39l-464 -781
c-5.33301 -9.33301 -12.833 -16.666 -22.5 -21.999s-19.834 -8 -30.501 -8c-16.667 0 -31.334 6.16699 -44.001 18.5z" />
    <glyph glyph-name="zero" unicode="0" horiz-adv-x="635" 
d="M458 632c39.333 -26.667 69.332 -65.334 89.999 -116.001s31 -111 31 -181c0 -70.667 -10.5 -132.167 -31.5 -184.5s-51.167 -92.5 -90.5 -120.5s-85.666 -42 -138.999 -42s-99.833 14 -139.5 42s-70 68.167 -91 120.5s-31.5 113.833 -31.5 184.5
c0 70 10.5 130.333 31.5 181s51.167 89.334 90.5 116.001s86 40 140 40s100.667 -13.333 140 -40zM225.499 494.5c-20.333 -35 -30.502 -88.5 -30.502 -160.5c0 -72.667 10.333 -127.667 31 -165s51.334 -56 92.001 -56c81.333 0 122 73.667 122 221
c0 72 -10 125.5 -30 160.5s-50.667 52.5 -92 52.5s-72.166 -17.5 -92.499 -52.5z" />
    <glyph glyph-name="one" unicode="1" horiz-adv-x="401" 
d="M291 652c12.667 -13.333 19 -29.333 19 -48v-547c0 -21.333 -6 -38.166 -18 -50.499s-28.667 -18.5 -50 -18.5s-37.833 6.16699 -49.5 18.5s-17.5 29.166 -17.5 50.499v451l-64 -28c-10.667 -4.66699 -21 -7 -31 -7c-17.333 0 -32 6.16699 -44 18.5s-18 27.5 -18 45.5
c0 12.667 3.5 24.167 10.5 34.5s17.5 18.5 31.5 24.5l150 68c16 5.33301 27.667 8 35 8c18 0 33.333 -6.66699 46 -20z" />
    <glyph glyph-name="two" unicode="2" horiz-adv-x="584" 
d="M518 109c12.667 -12 18.9971 -26.9971 18.9971 -44.9971c0 -18.667 -6.16699 -34 -18.5 -46s-28.166 -18 -47.499 -18l-359 -1c-18.667 0 -34.5 6.5 -47.5 19.5s-19.5 28.833 -19.5 47.5c0 21.333 9.33301 40 28 56l202 171c36.667 31.333 62.334 58.5 77.001 81.5
s22 48.167 22 75.5c0 29.333 -8.33301 52.833 -25 70.5s-38.667 26.5 -66 26.5c-24.667 0 -45.167 -7.5 -61.5 -22.5s-26.166 -35.167 -29.499 -60.5l-4 -29c-2.66699 -18 -10.167 -32.333 -22.5 -43s-27.166 -16 -44.499 -16c-18 0 -33.333 6.16699 -46 18.5
s-19.667 28.166 -21 47.499c-0.666992 3.33301 -1 8.66602 -1 15.999c0 10.667 1 22 3 34c6 34.667 19.667 65.667 41 93s48.5 48.666 81.5 63.999s69.167 23 108.5 23c43.333 0 82.166 -9.33301 116.499 -28s61.166 -44.334 80.499 -77.001s29 -69.334 29 -110.001
c0 -43.333 -12 -84.166 -36 -122.499s-64.333 -81.166 -121 -128.499l-94 -79h209c18.667 0 34.334 -6 47.001 -18z" />
    <glyph glyph-name="three" unicode="3" horiz-adv-x="549" 
d="M456 348.5c32 -37 47.998 -81.166 47.998 -132.499c0 -42.667 -10.833 -81.334 -32.5 -116.001s-51.5 -62 -89.5 -82s-80.333 -30 -127 -30c-44 0 -84.667 9.33301 -122 28s-68.666 45.334 -93.999 80.001c-7.33301 11.333 -11 23.333 -11 36c0 16.667 6 31 18 43
s26.667 18 44 18c18 0 32.667 -6.66699 44 -20c18 -20.667 36.333 -35.834 55 -45.501s39.334 -14.5 62.001 -14.5c34 0 61.667 9.33301 83 28s32 43.334 32 74.001s-11.5 54.167 -34.5 70.5s-56.5 24.5 -100.5 24.5h-20c-18 0 -33 5.83301 -45 17.5s-18 26.5 -18 44.5
c0 10 2.33301 19.167 7 27.5s13 17.5 25 27.5l123 111h-191c-17.333 0 -32 5.83301 -44 17.5s-18 26.167 -18 43.5s6 31.833 18 43.5s26.667 17.5 44 17.5h312c18.667 0 34.5 -6.66699 47.5 -20s19.5 -29 19.5 -47c0 -20.667 -9.66699 -39.334 -29 -56.001l-130 -120
c50.667 -8.66699 92 -31.5 124 -68.5z" />
    <glyph glyph-name="four" unicode="4" horiz-adv-x="577" 
d="M552.5 214c11.667 -12.667 17.501 -27.333 17.501 -44s-5.83301 -31.167 -17.5 -43.5s-27.167 -18.5 -46.5 -18.5h-27v-51c0 -19.333 -6.5 -35.666 -19.5 -48.999s-29.167 -20 -48.5 -20c-18.667 0 -34.5 6.66699 -47.5 20s-19.5 29.666 -19.5 48.999v51h-261
c-18.667 0 -34.5 6.5 -47.5 19.5s-19.5 28.833 -19.5 47.5c0 9.33301 2 19 6 29l185 424c6 12.667 14.667 23.167 26 31.5s23.666 12.5 36.999 12.5c18.667 0 34.667 -6.66699 48 -20s20 -29.333 20 -48c0 -7.33301 -1.66699 -15.333 -5 -24l-150 -347h161v110
c0 19.333 6.33301 35.5 19 48.5s28.667 19.5 48 19.5s35.5 -6.5 48.5 -19.5s19.5 -29.167 19.5 -48.5v-110h27c19.333 0 34.833 -6.33301 46.5 -19z" />
    <glyph glyph-name="five" unicode="5" horiz-adv-x="564" 
d="M405.5 400.5c35 -17 62.668 -41.333 83.001 -73s30.5 -68.5 30.5 -110.5c0 -44 -11.167 -83.5 -33.5 -118.5s-52.833 -62.167 -91.5 -81.5s-81.334 -29 -128.001 -29s-89 9.5 -127 28.5s-69.333 45.167 -94 78.5c-8 11.333 -12 23.666 -12 36.999
c0 17.333 6.16699 32 18.5 44s27.166 18 44.499 18c8.66699 0 17 -1.83301 25 -5.5s14.667 -8.5 20 -14.5c16.667 -20 34.834 -35.167 54.501 -45.5s41.834 -15.5 66.501 -15.5c34.667 0 63 9.33301 85 28s33 43.334 33 74.001c0 31.333 -11.333 55 -34 71
s-56.334 24 -101.001 24h-86c-19.333 0 -35.5 6.5 -48.5 19.5s-19.5 29.167 -19.5 48.5v214c0 19.333 6.5 35.5 19.5 48.5s29.167 19.5 48.5 19.5h264c18 0 32.833 -5.83301 44.5 -17.5s17.5 -26.167 17.5 -43.5s-5.83301 -31.833 -17.5 -43.5s-26.5 -17.5 -44.5 -17.5h-202
v-112h69c42 0 80.5 -8.5 115.5 -25.5z" />
    <glyph glyph-name="six" unicode="6" horiz-adv-x="562" 
d="M419.5 414c31.667 -20.667 56.833 -47.8311 75.5 -81.498s28 -69.834 28 -108.501c0 -43.333 -10.833 -83 -32.5 -119s-51 -64.5 -88 -85.5s-77.5 -31.5 -121.5 -31.5c-44.667 0 -85.5 10.5 -122.5 31.5s-66.333 49.667 -88 86s-32.5 76.166 -32.5 119.499
c0 36.667 8.83301 72.667 26.5 108s47.167 76.666 88.5 123.999l153 181c20.667 22.667 41 34 61 34c18.667 0 34.5 -6.16699 47.5 -18.5s19.5 -27.166 19.5 -44.499c0 -16 -6.66699 -31.333 -20 -46l-98 -115c37.333 -2 71.833 -13.333 103.5 -34zM358.499 144.503
c21 21.667 31.5 48.167 31.5 79.5s-10.5 57.666 -31.5 78.999s-46.833 32 -77.5 32s-56.5 -10.667 -77.5 -32s-31.5 -47.666 -31.5 -78.999s10.5 -57.833 31.5 -79.5s46.833 -32.5 77.5 -32.5s56.5 10.833 77.5 32.5z" />
    <glyph glyph-name="seven" unicode="7" horiz-adv-x="525" 
d="M482 640c13.333 -13.333 20 -28.999 20 -46.999c0 -12.667 -2.66699 -23.334 -8 -32.001l-300 -539c-6 -10 -14.167 -18.167 -24.5 -24.5s-21.5 -9.5 -33.5 -9.5c-18.667 0 -34.667 6.66699 -48 20s-20 29.333 -20 48c0 10 3 21 9 33l251 449h-227
c-18 0 -33 5.83301 -45 17.5s-18 26.167 -18 43.5s6 31.833 18 43.5s27 17.5 45 17.5h333c18.667 0 34.667 -6.66699 48 -20z" />
    <glyph glyph-name="eight" unicode="8" horiz-adv-x="588" 
d="M541 176c0 -38 -10.5 -71.1689 -31.5 -99.502s-50.167 -50.166 -87.5 -65.499s-80 -23 -128 -23s-90.833 7.66699 -128.5 23s-67 37.166 -88 65.499s-31.5 61.5 -31.5 99.5c0 76 43.333 131.333 130 166c-66.667 38.667 -100 90.334 -100 155.001
c0 54.667 20.5 97.5 61.5 128.5s93.167 46.5 156.5 46.5s115.5 -15.5 156.5 -46.5s61.5 -73.833 61.5 -128.5c0 -65.333 -33 -117 -99 -155c85.333 -35.333 128 -90.666 128 -165.999zM228 543.998c-17.333 -12.667 -26 -30.333 -26 -53c0 -20 7.5 -36.667 22.5 -50
s38.167 -27.333 69.5 -42c31.333 14.667 54.5 28.667 69.5 42s22.5 30.333 22.5 51c0 22 -8.66699 39.333 -26 52s-39.333 19 -66 19s-48.667 -6.33301 -66 -19zM378 120.999c19.333 15.333 29 35.335 29 60.002c0 25.333 -9.33301 45.666 -28 60.999s-47 29.666 -85 42.999
c-38 -14 -66.333 -28.667 -85 -44s-28 -35.333 -28 -60s9.66699 -44.667 29 -60s47.333 -23 84 -23s64.667 7.66699 84 23z" />
    <glyph glyph-name="nine" unicode="9" horiz-adv-x="562" 
d="M403.5 640.5c37 -21 66.334 -49.6699 88.001 -86.0029s32.5 -76.166 32.5 -119.499c0 -36.667 -8.83301 -72.667 -26.5 -108s-47.167 -76.666 -88.5 -123.999l-153 -181c-20.667 -22.667 -41 -34 -61 -34c-18.667 0 -34.5 6.16699 -47.5 18.5s-19.5 27.166 -19.5 44.499
c0 16 6.66699 31.333 20 46l98 115c-37.333 2 -71.833 13.333 -103.5 34s-56.834 47.834 -75.501 81.501s-28 69.834 -28 108.501c0 43.333 10.833 83 32.5 119s51 64.5 88 85.5s77.5 31.5 121.5 31.5c44.667 0 85.5 -10.5 122.5 -31.5zM358.501 356.997
c21 21.333 31.5 47.666 31.5 78.999s-10.5 57.833 -31.5 79.5s-46.833 32.5 -77.5 32.5s-56.5 -10.833 -77.5 -32.5s-31.5 -48.167 -31.5 -79.5s10.5 -57.666 31.5 -78.999s46.833 -32 77.5 -32s56.5 10.667 77.5 32z" />
    <glyph glyph-name="colon" unicode=":" horiz-adv-x="270" 
d="M69 345c-18 18 -27 40 -27 66s9 48 27 66s40.333 27 67 27c26 0 47.833 -9 65.5 -27s26.5 -40 26.5 -66s-8.83301 -48 -26.5 -66s-39.5 -27 -65.5 -27c-26.667 0 -49 9 -67 27zM69 15c-18 18 -27 40 -27 66s9 48 27 66s40.333 27 67 27c26 0 47.833 -9 65.5 -27
s26.5 -40 26.5 -66s-8.83301 -48 -26.5 -66s-39.5 -27 -65.5 -27c-26.667 0 -49 9 -67 27z" />
    <glyph glyph-name="semicolon" unicode=";" horiz-adv-x="270" 
d="M69 345c-18 18 -27 40 -27 66s9 48 27 66s40.333 27 67 27c26 0 47.833 -9 65.5 -27s26.5 -40 26.5 -66s-8.83301 -48 -26.5 -66s-39.5 -27 -65.5 -27c-26.667 0 -49 9 -67 27zM61 -174.5c-12 11.667 -18.002 26.167 -18.002 43.5c0 4.66699 2 20.334 6 47.001
c9.33301 51.333 14 96 14 134c0 25.333 6.83301 45.5 20.5 60.5s31.834 22.5 54.501 22.5c23.333 0 41.666 -7.33301 54.999 -22s20 -34.334 20 -59.001c0 -20.667 -4.16699 -50.667 -12.5 -90s-17.166 -71.333 -26.499 -96c-8.66699 -20.667 -18.167 -35.5 -28.5 -44.5
s-23.166 -13.5 -38.499 -13.5c-18.667 0 -34 5.83301 -46 17.5z" />
    <glyph glyph-name="less" unicode="&#x3c;" 
d="M500.5 196.5c6.33301 -8.33301 9.50195 -18.5 9.50195 -30.5c0 -15.333 -5.5 -28.5 -16.5 -39.5s-24.5 -16.5 -40.5 -16.5c-8 0 -18 2.33301 -30 7l-341 148c-16 6.66699 -27.5 14.667 -34.5 24s-10.5 20.333 -10.5 33c0 24 15 42.667 45 56l336 146
c7.33301 3.33301 13.666 5.83301 18.999 7.5s10.666 2.5 15.999 2.5c16 0 29.5 -5.5 40.5 -16.5s16.5 -24.167 16.5 -39.5c0 -12.667 -3.16699 -23.167 -9.5 -31.5s-16.166 -15.833 -29.499 -22.5l-231 -102l231 -103c13.333 -6.66699 23.166 -14.167 29.499 -22.5z" />
    <glyph glyph-name="equal" unicode="=" 
d="M497.5 469c11 -10.667 16.5 -24.334 16.5 -41.001s-5.5 -30.334 -16.5 -41.001s-24.833 -16 -41.5 -16h-351c-16.667 0 -30.5 5.33301 -41.5 16s-16.5 24.334 -16.5 41.001s5.5 30.334 16.5 41.001s24.833 16 41.5 16h351c16.667 0 30.5 -5.33301 41.5 -16zM497.5 253.5
c11 -11 16.5 -24.5 16.5 -40.5c0 -16.667 -5.5 -30.334 -16.5 -41.001s-24.833 -16 -41.5 -16h-351c-16.667 0 -30.5 5.33301 -41.5 16s-16.5 24.334 -16.5 41.001c0 16 5.5 29.5 16.5 40.5s24.833 16.5 41.5 16.5h351c16.667 0 30.5 -5.5 41.5 -16.5z" />
    <glyph glyph-name="greater" unicode="&#x3e;" 
d="M523 322c0 -12.667 -3.49805 -23.667 -10.498 -33s-18.5 -17.333 -34.5 -24l-341 -148c-12 -4.66699 -22 -7 -30 -7c-16 0 -29.5 5.5 -40.5 16.5s-16.5 24.167 -16.5 39.5c0 12 3.16699 22.167 9.5 30.5s16.166 15.833 29.499 22.5l231 103l-231 102
c-13.333 6.66699 -23.166 14.167 -29.499 22.5s-9.5 18.833 -9.5 31.5c0 15.333 5.5 28.5 16.5 39.5s24.5 16.5 40.5 16.5c5.33301 0 10.666 -0.833008 15.999 -2.5s11.666 -4.16699 18.999 -7.5l336 -146c30 -13.333 45 -32 45 -56z" />
    <glyph glyph-name="question" unicode="?" horiz-adv-x="452" 
d="M157 227c-12.667 11.333 -18.9961 25.3311 -18.9961 41.998v10c0 19.333 5 36.833 15 52.5s29.667 37.167 59 64.5c26 23.333 43.167 41 51.5 53s12.5 25 12.5 39c0 16.667 -5.66699 30.834 -17 42.501s-25.333 17.5 -42 17.5c-28.667 0 -51.667 -15.667 -69 -47
c-8.66699 -12 -17.334 -20.833 -26.001 -26.5s-18.667 -8.5 -30 -8.5c-16.667 0 -30.834 5.83301 -42.501 17.5s-17.5 26.167 -17.5 43.5c0 12.667 4.66699 27.334 14 44.001c16.667 32.667 40.167 57.667 70.5 75s65.166 26 104.499 26
c36.667 0 69.834 -7.33301 99.501 -22s53 -34.667 70 -60s25.5 -53.666 25.5 -84.999c0 -24.667 -6.33301 -47.667 -19 -69s-33.334 -44.333 -62.001 -69c-26 -22.667 -44 -41 -54 -55s-15.333 -28 -16 -42l-1 -9c-1.33301 -14.667 -7.83301 -26.834 -19.5 -36.501
s-25.834 -14.5 -42.501 -14.5c-17.333 0 -32.333 5.66699 -45 17zM141.504 12.998c-17 16.667 -25.5 37.334 -25.5 62.001c0 24 8.5 44.667 25.5 62s38.167 26 63.5 26c24.667 0 45.167 -8.5 61.5 -25.5s24.5 -37.833 24.5 -62.5s-8.16699 -45.334 -24.5 -62.001
s-36.833 -25 -61.5 -25c-25.333 0 -46.5 8.33301 -63.5 25z" />
    <glyph glyph-name="at" unicode="@" horiz-adv-x="953" 
d="M707 614c64.667 -34.667 115.329 -82.6641 151.996 -143.997s55 -130 55 -206c0 -43.333 -8.16699 -82 -24.5 -116s-39.166 -60.5 -68.499 -79.5s-62.666 -28.5 -99.999 -28.5c-64 0 -106.333 22.333 -127 67c-12 -28 -30.833 -49.667 -56.5 -65s-55.834 -23 -90.501 -23
c-38.667 0 -73.167 9.33301 -103.5 28s-54.166 44.667 -71.499 78s-26 70.666 -26 111.999s8.66699 78.5 26 111.5s41.166 58.833 71.499 77.5s64.833 28 103.5 28c28 0 53 -5 75 -15s40 -24 54 -42c1.33301 15.333 7.33301 28.333 18 39s23.667 16 39 16
c16 0 29.333 -5.66699 40 -17s16 -25.333 16 -42v-203c0 -30.667 15.333 -46 46 -46c20.667 0 38 11.5 52 34.5s21 51.5 21 85.5c0 60 -12.833 112.5 -38.5 157.5s-62.334 79.833 -110.001 104.5s-103.167 37 -166.5 37c-66.667 0 -126.334 -13.667 -179.001 -41
s-93.667 -65.5 -123 -114.5s-44 -104.833 -44 -167.5c0 -61.333 14.333 -116.333 43 -165s68.334 -86.834 119.001 -114.501s107.667 -41.5 171 -41.5c14.667 0 30.334 1.66699 47.001 5c20 2.66699 34.667 4 44 4c14 0 26 -4.5 36 -13.5s15 -20.5 15 -34.5
c0 -11.333 -3 -21.5 -9 -30.5s-14.333 -15.167 -25 -18.5c-39.333 -10 -80 -15 -122 -15c-79.333 0 -151.666 18.5 -216.999 55.5s-116.833 87.667 -154.5 152s-56.5 135.833 -56.5 214.5c0 80 19.833 152.667 59.5 218s93.834 116.666 162.501 153.999
s145.334 56 230.001 56c80 0 152.333 -17.333 217 -52zM541.995 160.503c18 19.667 27 45.167 27 76.5s-9 56.833 -27 76.5s-41.333 29.5 -70 29.5c-29.333 0 -53.5 -10 -72.5 -30s-28.5 -45.333 -28.5 -76s9.5 -56 28.5 -76s42.833 -30 71.5 -30
c29.333 0 53 9.83301 71 29.5z" />
    <glyph glyph-name="A" unicode="A" horiz-adv-x="662" 
d="M628 53c0 -18 -6.33301 -33.333 -19 -46s-28.334 -19 -47.001 -19c-29.333 0 -50.666 16 -63.999 48l-28 68h-279l-28 -68c-12.667 -32 -33.667 -48 -63 -48c-18.667 0 -34.5 6.33301 -47.5 19s-19.5 28 -19.5 46c0 9.33301 2.66699 21.333 8 36l226 537
c12 30.667 33.333 46 64 46s52 -15.333 64 -46l225 -537c5.33301 -12.667 8 -24.667 8 -36zM235 215h190l-94 258z" />
    <glyph glyph-name="B" unicode="B" horiz-adv-x="620" 
d="M556 295c20.667 -28 30.998 -61.665 30.998 -100.998c0 -37.333 -9.33301 -70.833 -28 -100.5s-44.5 -52.667 -77.5 -69s-70.5 -24.5 -112.5 -24.5h-225c-20 0 -36.5 6.5 -49.5 19.5s-19.5 29.5 -19.5 49.5v522c0 20 6.5 36.5 19.5 49.5s29.5 19.5 49.5 19.5h165
c40.667 0 76.834 -7.83301 108.501 -23.5s56.334 -37.334 74.001 -65.001s26.5 -59.5 26.5 -95.5c0 -48.667 -16.333 -88.334 -49 -119.001c37.333 -13.333 66.333 -34 87 -62zM205.998 544.002v-150.999h93c26.667 0 47.667 6.83301 63 20.5s23 32.167 23 55.5
s-7.66699 41.666 -23 54.999s-36.333 20 -63 20h-93zM427.998 137.503c16.667 14.333 25 34.833 25 61.5c0 26 -8.33301 46.333 -25 61s-39.667 22 -69 22h-153v-166h153c29.333 0 52.333 7.16699 69 21.5z" />
    <glyph glyph-name="C" unicode="C" horiz-adv-x="720" 
d="M211.5 33.5c-53.667 30.333 -95.999 71.499 -126.999 123.499s-46.5 109.667 -46.5 173s15.5 121 46.5 173s73.5 93.167 127.5 123.5s113.333 45.5 178 45.5c50.667 0 98.5 -10.167 143.5 -30.5s82.167 -48.166 111.5 -83.499c14 -16 21 -32.667 21 -50
c0 -16.667 -6.16699 -31 -18.5 -43s-27.166 -18 -44.499 -18c-19.333 0 -36.666 8.66699 -51.999 26c-42.667 49.333 -96.334 74 -161.001 74c-40.667 0 -77.167 -9.33301 -109.5 -28s-57.666 -44.5 -75.999 -77.5s-27.5 -70.5 -27.5 -112.5
c0 -41.333 9.16699 -78.5 27.5 -111.5s43.666 -58.667 75.999 -77s68.833 -27.5 109.5 -27.5c63.333 0 116.666 24.667 159.999 74c16 17.333 33.667 26 53 26c17.333 0 32 -6 44 -18s18 -26.333 18 -43s-7 -33.334 -21 -50.001
c-29.333 -35.333 -66.5 -63.166 -111.5 -83.499s-92.833 -30.5 -143.5 -30.5c-64.667 0 -123.834 15.167 -177.501 45.5z" />
    <glyph glyph-name="D" unicode="D" horiz-adv-x="690" 
d="M479.5 619c54.333 -27.333 96.5 -65.832 126.5 -115.499s45 -106.834 45 -171.501s-15.167 -122.167 -45.5 -172.5s-72.833 -89.5 -127.5 -117.5s-116.667 -42 -186 -42h-148c-20 0 -36.5 6.5 -49.5 19.5s-19.5 29.5 -19.5 49.5v522c0 20 6.5 36.5 19.5 49.5
s29.5 19.5 49.5 19.5h148c70.667 0 133.167 -13.667 187.5 -41zM210 538.001l0.000976562 -416h81c44 0 82.833 8.66699 116.5 26s59.667 41.833 78 73.5s27.5 68.5 27.5 110.5c0 63.333 -19.833 113.5 -59.5 150.5s-93.834 55.5 -162.501 55.5h-81z" />
    <glyph glyph-name="E" unicode="E" horiz-adv-x="572" 
d="M94.5 19.5c-13 13 -19.5 28.833 -19.5 47.5v526c0 19.333 6.5 35.333 19.5 48s28.833 19 47.5 19h323c18 0 32.833 -5.83301 44.5 -17.5s17.5 -26.167 17.5 -43.5s-6 -31.833 -18 -43.5s-26.667 -17.5 -44 -17.5h-255v-134h175c16.667 0 30.667 -5.5 42 -16.5
s17 -24.833 17 -41.5c0 -16 -5.66699 -29.5 -17 -40.5s-25.333 -16.5 -42 -16.5h-175v-167h267c18 0 32.833 -5.83301 44.5 -17.5s17.5 -26.167 17.5 -43.5s-6 -31.833 -18 -43.5s-26.667 -17.5 -44 -17.5h-335c-18.667 0 -34.5 6.5 -47.5 19.5z" />
    <glyph glyph-name="F" unicode="F" horiz-adv-x="534" 
d="M94 7.5c-12.667 13 -19 29.499 -19 49.499v534c0 20 6.5 36.5 19.5 49.5s29.5 19.5 49.5 19.5h311c18 0 32.833 -5.83301 44.5 -17.5s17.5 -26.167 17.5 -43.5s-6 -31.833 -18 -43.5s-26.667 -17.5 -44 -17.5h-245v-165h191c18 0 32.833 -5.83301 44.5 -17.5
s17.5 -26.167 17.5 -43.5s-6 -31.833 -18 -43.5s-26.667 -17.5 -44 -17.5h-191v-194c0 -19.333 -6.33301 -35.666 -19 -48.999s-28.667 -20 -48 -20c-20 0 -36.333 6.5 -49 19.5z" />
    <glyph glyph-name="G" unicode="G" horiz-adv-x="747" 
d="M212 33c-54 30 -96.498 71.167 -127.498 123.5s-46.5 110.166 -46.5 173.499s15.5 121.166 46.5 173.499s73.5 93.5 127.5 123.5s113.667 45 179 45c44.667 0 88 -8.33301 130 -25s76.667 -39.334 104 -68.001c14.667 -13.333 25.167 -25.666 31.5 -36.999
s9.5 -22.666 9.5 -33.999c0 -16.667 -6.16699 -31 -18.5 -43s-26.833 -18 -43.5 -18c-10.667 0 -20.334 2.33301 -29.001 7s-18 12.334 -28 23.001c-22.667 24 -46.667 41.667 -72 53s-54 17 -86 17c-41.333 0 -78 -9.16699 -110 -27.5s-57 -43.833 -75 -76.5
s-27 -70.334 -27 -113.001c0 -43.333 9.33301 -81.666 28 -114.999s44.667 -59.333 78 -78s71.333 -28 114 -28c36.667 0 70 6.83301 100 20.5s54.667 33.167 74 58.5v57h-126c-18 0 -33 5.5 -45 16.5s-18 24.833 -18 41.5s6 30.667 18 42s27 17 45 17h192
c20 0 36.5 -6.5 49.5 -19.5s19.5 -29.5 19.5 -49.5v-85c0 -28.667 -7 -53.667 -21 -75c-30 -44 -71.833 -79.167 -125.5 -105.5s-109.834 -39.5 -168.501 -39.5c-65.333 0 -125 15 -179 45z" />
    <glyph glyph-name="H" unicode="H" horiz-adv-x="712" 
d="M94.5 8c-13 13.333 -19.5 30 -19.5 50v544c0 20 6.33301 36.667 19 50s29 20 49 20c19.333 0 35.333 -6.66699 48 -20s19 -30 19 -50v-195h292v196c0 20 6.33301 36.5 19 49.5s29 19.5 49 19.5c19.333 0 35.333 -6.5 48 -19.5s19 -29.5 19 -49.5v-545
c0 -20 -6.33301 -36.667 -19 -50s-28.667 -20 -48 -20s-35.5 6.66699 -48.5 20s-19.5 30 -19.5 50v227h-292v-227c0 -20 -6.33301 -36.667 -19 -50s-28.667 -20 -48 -20s-35.5 6.66699 -48.5 20z" />
    <glyph glyph-name="I" unicode="I" horiz-adv-x="285" 
d="M94 7.5c-12.667 13 -19 29.498 -19 49.498v546c0 20 6.33301 36.5 19 49.5s29 19.5 49 19.5c19.333 0 35.333 -6.66699 48 -20s19 -29.666 19 -48.999v-546c0 -19.333 -6.33301 -35.666 -19 -48.999s-28.667 -20 -48 -20c-20 0 -36.333 6.5 -49 19.5z" />
    <glyph glyph-name="J" unicode="J" horiz-adv-x="388" 
d="M44 -3c-11.333 5.33301 -20.666 13.166 -27.999 23.499s-11 21.5 -11 33.5c0 17.333 6 31.666 18 42.999s27 17 45 17l23 -1c10.667 -1.33301 19 -2 25 -2c19.333 0 34.5 5.83301 45.5 17.5s16.5 27.834 16.5 48.501v426c0 20 6.33301 36.5 19 49.5s29 19.5 49 19.5
c19.333 0 35.333 -6.66699 48 -20s19 -29.666 19 -48.999v-427c0 -62 -17.333 -108.833 -52 -140.5s-86.334 -47.5 -155.001 -47.5c-25.333 0 -46 3 -62 9z" />
    <glyph glyph-name="K" unicode="K" horiz-adv-x="670" 
d="M190.5 652c13 -13.333 19.5 -29.667 19.5 -49v-546c0 -19.333 -6.5 -35.666 -19.5 -48.999s-28.833 -20 -47.5 -20c-19.333 0 -35.5 6.66699 -48.5 20s-19.5 29.666 -19.5 48.999v546c0 20 6.33301 36.5 19 49.5s29 19.5 49 19.5c18.667 0 34.5 -6.66699 47.5 -20z
M623 51.999c0 -17.333 -6.33203 -32.334 -18.999 -45.001s-27.334 -19 -44.001 -19c-20.667 0 -38.667 9.33301 -54 28l-251 289c-12 14 -18 29 -18 45c0 14.667 6.33301 29 19 43l238 257c8 8 15.667 13.667 23 17s16 5 26 5c16.667 0 31 -6.16699 43 -18.5
s18 -27.166 18 -44.499c0 -16 -6.66699 -31 -20 -45l-199 -215l221 -256c11.333 -13.333 17 -27 17 -41z" />
    <glyph glyph-name="L" unicode="L" horiz-adv-x="523" 
d="M94.5 19.5c-13 13 -19.5 29.498 -19.5 49.498v534c0 18.667 6.5 34.834 19.5 48.501s29.167 20.5 48.5 20.5s35.333 -6.66699 48 -20s19 -29.666 19 -48.999v-481h235c18 0 32.833 -5.83301 44.5 -17.5s17.5 -26.167 17.5 -43.5s-5.83301 -31.833 -17.5 -43.5
s-26.5 -17.5 -44.5 -17.5h-301c-20 0 -36.5 6.5 -49.5 19.5z" />
    <glyph glyph-name="M" unicode="M" horiz-adv-x="796" 
d="M702 652c12.667 -13.333 18.9961 -30 18.9961 -50v-545c0 -19.333 -6.5 -35.666 -19.5 -48.999s-28.833 -20 -47.5 -20c-19.333 0 -35.5 6.66699 -48.5 20s-19.5 29.666 -19.5 48.999v326l-124 -195c-9.33301 -15.333 -19 -26.333 -29 -33s-21.667 -10 -35 -10
c-12.667 0 -24.167 3.33301 -34.5 10s-20.166 17.667 -29.499 33l-124 197v-328c0 -19.333 -6.5 -35.666 -19.5 -48.999s-28.833 -20 -47.5 -20c-19.333 0 -35.5 6.66699 -48.5 20s-19.5 29.666 -19.5 48.999v545c0 20 6.33301 36.667 19 50s28.334 20 47.001 20
c14.667 0 27.334 -3.83301 38.001 -11.5s21.667 -21.167 33 -40.5l186 -295l186 295c12 19.333 23.167 32.833 33.5 40.5s22.833 11.5 37.5 11.5c18.667 0 34.334 -6.66699 47.001 -20z" />
    <glyph glyph-name="N" unicode="N" horiz-adv-x="712" 
d="M617.5 652c13 -13.333 19.499 -29.666 19.499 -48.999v-547c0 -19.333 -6.33301 -35.5 -19 -48.5s-28.334 -19.5 -47.001 -19.5c-14.667 0 -26.667 3.33301 -36 10s-19.666 17 -30.999 31l-294 378v-350c0 -19.333 -6.5 -35.666 -19.5 -48.999s-28.833 -20 -47.5 -20
c-19.333 0 -35.5 6.66699 -48.5 20s-19.5 29.666 -19.5 48.999v547c0 19.333 6.33301 35.5 19 48.5s28.334 19.5 47.001 19.5c15.333 0 27.5 -3.33301 36.5 -10s19.833 -18 32.5 -34l293 -375l-1 350c0 19.333 6.5 35.666 19.5 48.999s29.167 20 48.5 20
c18.667 0 34.5 -6.66699 47.5 -20z" />
    <glyph glyph-name="O" unicode="O" horiz-adv-x="778" 
d="M565.5 626.5c53.667 -30.333 96.167 -71.668 127.5 -124.001s47 -109.833 47 -172.5s-15.667 -120.167 -47 -172.5s-73.833 -93.666 -127.5 -123.999s-112.834 -45.5 -177.501 -45.5s-123.667 15.167 -177 45.5s-95.5 71.5 -126.5 123.5s-46.5 109.667 -46.5 173
s15.5 121 46.5 173s73.167 93.167 126.5 123.5s112.333 45.5 177 45.5s123.834 -15.167 177.501 -45.5zM279.5 519.498c-32.333 -18.333 -57.5 -44 -75.5 -77s-27 -70.5 -27 -112.5s9 -79.5 27 -112.5s43.167 -58.667 75.5 -77s68.833 -27.5 109.5 -27.5s77 9.33301 109 28
s57.167 44.5 75.5 77.5s27.5 70.167 27.5 111.5s-9.16699 78.5 -27.5 111.5s-43.5 58.833 -75.5 77.5s-68.333 28 -109 28s-77.167 -9.16699 -109.5 -27.5z" />
    <glyph glyph-name="P" unicode="P" horiz-adv-x="593" 
d="M94.5 8c-13 13.333 -19.501 29.666 -19.501 48.999v534c0 20 6.5 36.5 19.5 49.5s29.5 19.5 49.5 19.5h180c46.667 0 87.834 -8.83301 123.501 -26.5s63.5 -42.667 83.5 -75s30 -69.5 30 -111.5c0 -41.333 -10 -78.333 -30 -111s-48 -58 -84 -76s-77 -27 -123 -27h-114
v-176c0 -19.333 -6.5 -35.666 -19.5 -48.999s-28.833 -20 -47.5 -20c-19.333 0 -35.5 6.66699 -48.5 20zM322.999 351c30.667 0 55 8.66797 73 26.001s27 40.666 27 69.999c0 28.667 -9 51.5 -27 68.5s-42.333 25.5 -73 25.5h-113v-190h113z" />
    <glyph glyph-name="Q" unicode="Q" horiz-adv-x="778" 
d="M1051.5 -118c10.333 -9.33301 15.498 -22.335 15.498 -39.002c0 -24.667 -12 -41.334 -36 -50.001c-22.667 -9.33301 -53.667 -14 -93 -14c-90.667 0 -173.667 19.333 -249 58s-138.666 94.667 -189.999 168c-36 -11.333 -73 -17 -111 -17
c-64.667 0 -123.667 15.167 -177 45.5s-95.5 71.5 -126.5 123.5s-46.5 109.667 -46.5 173s15.5 121 46.5 173s73.167 93.167 126.5 123.5s112.333 45.5 177 45.5s123.834 -15.167 177.501 -45.5s96.167 -71.666 127.5 -123.999s47 -109.833 47 -172.5
c0 -53.333 -11.5 -103.166 -34.5 -149.499s-54.5 -85.166 -94.5 -116.499c44.667 -58.667 95.334 -101.667 152.001 -129s122.667 -41 198 -41c12 0 22 0.333008 30 1s14.333 1 19 1c17.333 0 31.166 -4.66699 41.499 -14zM203.998 218.498
c18 -33 43.166 -58.833 75.499 -77.5s68.833 -28 109.5 -28s77 9.33301 109 28s57.167 44.5 75.5 77.5s27.5 70.167 27.5 111.5s-9.16699 78.5 -27.5 111.5s-43.666 58.833 -75.999 77.5s-68.833 28 -109.5 28s-77 -9.16699 -109 -27.5s-57 -44 -75 -77
s-27 -70.5 -27 -112.5c0 -41.333 9 -78.5 27 -111.5z" />
    <glyph glyph-name="R" unicode="R" horiz-adv-x="640" 
d="M596 50c0 -16.667 -6.16895 -31.167 -18.502 -43.5s-27.166 -18.5 -44.499 -18.5c-24 0 -44 11.667 -60 35l-148 210h-1h-114v-176c0 -19.333 -6.5 -35.666 -19.5 -48.999s-28.833 -20 -47.5 -20c-19.333 0 -35.5 6.66699 -48.5 20s-19.5 29.666 -19.5 48.999v535
c0 19.333 6.5 35.5 19.5 48.5s29.5 19.5 49.5 19.5h180c46.667 0 87.834 -8.83301 123.501 -26.5s63.5 -42.667 83.5 -75s30 -69.166 30 -110.499c0 -39.333 -9 -74.833 -27 -106.5s-43.333 -56.834 -76 -75.501l119 -165c12.667 -18.667 19 -35.667 19 -51zM209.998 352
h113c30.667 0 55 8.5 73 25.5s27 40.167 27 69.5c0 28.667 -9 51.5 -27 68.5s-42.333 25.5 -73 25.5h-113v-189z" />
    <glyph glyph-name="S" unicode="S" horiz-adv-x="559" 
d="M167.5 12.5c-39 16.333 -70.8311 37.8369 -95.498 64.5039c-16.667 16.667 -25 34 -25 52c0.666992 17.333 7 31.666 19 42.999s26.333 17 43 17c14 0 25.667 -4.33301 35 -13c44 -45.333 91 -68 141 -68c29.333 0 52.333 6.5 69 19.5s25 30.833 25 53.5
c0 18 -5.83301 32.5 -17.5 43.5s-33.834 23.833 -66.501 38.5l-71 32c-54 24.667 -94.167 52.167 -120.5 82.5s-39.5 66.166 -39.5 107.499c0 36.667 9.5 69.167 28.5 97.5s45.167 50.333 78.5 66s70.666 23.5 111.999 23.5c44 0 81.333 -7.83301 112 -23.5
s55 -33.834 73 -54.501c12 -12.667 18 -27 18 -43c0 -16.667 -6.33301 -30.834 -19 -42.501s-27 -17.5 -43 -17.5c-13.333 0 -25.666 4.66699 -36.999 14c-16.667 14.667 -32.834 26.167 -48.501 34.5s-34.167 12.5 -55.5 12.5c-24.667 0 -44.5 -5.66699 -59.5 -17
s-22.5 -27 -22.5 -47c0 -16 5.33301 -29.167 16 -39.5s31 -22.5 61 -36.5l75 -33c56.667 -25.333 98 -52.833 124 -82.5s39 -66.5 39 -110.5c0 -40 -10 -75 -30 -105s-47.5 -53 -82.5 -69s-74.5 -24 -118.5 -24c-39.333 0 -78.5 8.16699 -117.5 24.5z" />
    <glyph glyph-name="T" unicode="T" horiz-adv-x="585" 
d="M244.5 8c-13 13.333 -19.5 29.666 -19.5 48.999v481h-157c-17.333 0 -32 5.83301 -44 17.5s-18 26.167 -18 43.5s6 31.833 18 43.5s26.667 17.5 44 17.5h449c18 0 32.833 -5.83301 44.5 -17.5s17.5 -26.167 17.5 -43.5s-6 -31.833 -18 -43.5s-26.667 -17.5 -44 -17.5
h-157v-481c0 -19.333 -6.5 -35.666 -19.5 -48.999s-29.167 -20 -48.5 -20c-18.667 0 -34.5 6.66699 -47.5 20z" />
    <glyph glyph-name="U" unicode="U" horiz-adv-x="700" 
d="M203.5 24c-42.333 24 -75.1699 57.5 -98.5029 100.5s-35 92.5 -35 148.5v330c0 19.333 6.5 35.666 19.5 48.999s29.167 20 48.5 20c18.667 0 34.5 -6.66699 47.5 -20s19.5 -29.666 19.5 -48.999v-340c0 -46 13 -82.5 39 -109.5s61.333 -40.5 106 -40.5s80 13.5 106 40.5
s39 63.5 39 109.5v340c0 19.333 6.5 35.666 19.5 48.999s29.167 20 48.5 20c18.667 0 34.5 -6.66699 47.5 -20s19.5 -29.666 19.5 -48.999v-330c0 -56 -11.667 -105.5 -35 -148.5s-56.166 -76.5 -98.499 -100.5s-91.166 -36 -146.499 -36s-104.166 12 -146.499 36z" />
    <glyph glyph-name="V" unicode="V" horiz-adv-x="662" 
d="M609 653c12.667 -12.667 19 -28 19 -46c0 -14 -2.66699 -26 -8 -36l-225 -537c-12.667 -30.667 -34 -46 -64 -46c-30.667 0 -52 15.333 -64 46l-226 537c-5.33301 12 -8 24 -8 36c0 18 6.5 33.333 19.5 46s28.833 19 47.5 19c29.333 0 50.333 -16 63 -48l168 -413
l167 413c13.333 32 34.666 48 63.999 48c18.667 0 34.334 -6.33301 47.001 -19z" />
    <glyph glyph-name="W" unicode="W" horiz-adv-x="1036" 
d="M977.5 652.5c13 -13 19.501 -28.833 19.501 -47.5c0 -10 -2.33301 -21 -7 -33l-202 -538c-5.33301 -14.667 -13.5 -26 -24.5 -34s-23.833 -12 -38.5 -12c-30.667 0 -51.667 15.333 -63 46l-144 399l-144 -399c-5.33301 -14.667 -13.333 -26 -24 -34
s-23.334 -12 -38.001 -12c-15.333 0 -28.5 4 -39.5 12s-19.167 19.333 -24.5 34l-202 538c-5.33301 12.667 -8 23.667 -8 33c0 18.667 6.66699 34.5 20 47.5s29.333 19.5 48 19.5c14.667 0 27.5 -4 38.5 -12s18.833 -18.667 23.5 -32l145 -402l139 395
c5.33301 16 13.833 28.5 25.5 37.5s25.167 13.5 40.5 13.5s28.833 -4.5 40.5 -13.5s20.167 -21.5 25.5 -37.5l140 -395l143 401c5.33301 14 13.5 25 24.5 33s23.833 12 38.5 12c18.667 0 34.5 -6.5 47.5 -19.5z" />
    <glyph glyph-name="X" unicode="X" horiz-adv-x="613" 
d="M574 53c0 -17.333 -6.50195 -32.499 -19.502 -45.499s-28.833 -19.5 -47.5 -19.5c-10.667 0 -20.667 2.5 -30 7.5s-17.333 12.167 -24 21.5l-146 207l-147 -207c-14 -19.333 -32.333 -29 -55 -29c-18 0 -33.5 6.5 -46.5 19.5s-19.5 28.5 -19.5 46.5
c0 14 6.33301 30.333 19 49l167 233l-153 221c-12.667 18.667 -19 36 -19 52c0 17.333 6.5 32.166 19.5 44.499s28.5 18.5 46.5 18.5c23.333 0 42 -10 56 -30l132 -194l135 193c14.667 20.667 33.334 31 56.001 31c18.667 0 34.334 -6.33301 47.001 -19s19 -27.667 19 -45
c0 -16.667 -6.66699 -34.667 -20 -54l-155 -218l167 -236c12 -17.333 18 -33 18 -47z" />
    <glyph glyph-name="Y" unicode="Y" horiz-adv-x="625" 
d="M570 563l-190.001 -312v-194c0 -19.333 -6.5 -35.666 -19.5 -48.999s-29.167 -20 -48.5 -20c-18.667 0 -34.5 6.66699 -47.5 20s-19.5 29.666 -19.5 48.999v194l-189 312c-10 14.667 -15 29.667 -15 45c0 18 6.33301 33.167 19 45.5s28.334 18.5 47.001 18.5
c14.667 0 27 -3.16699 37 -9.5s19 -16.5 27 -30.5l142 -246l142 246c7.33301 14 16.166 24.167 26.499 30.5s22.5 9.5 36.5 9.5c18.667 0 34.334 -6.16699 47.001 -18.5s19 -27.833 19 -46.5c0 -15.333 -4.66699 -30 -14 -44z" />
    <glyph glyph-name="Z" unicode="Z" horiz-adv-x="588" 
d="M550.5 104.5c11.667 -11.667 17.5 -26.167 17.5 -43.5s-6 -31.833 -18 -43.5s-26.667 -17.5 -44 -17.5h-423c-18 -0 -33 5.83301 -45 17.5s-18 26.167 -18 43.5c0 12 6 26 18 42l334 435h-254c-18 0 -33 5.83301 -45 17.5s-18 26.167 -18 43.5s6 31.833 18 43.5
s27 17.5 45 17.5h379c17.333 0 32 -5.83301 44 -17.5s18 -26.167 18 -43.5c0 -12.667 -5.66699 -27 -17 -43l-334 -434h298c18 0 32.833 -5.83301 44.5 -17.5z" />
    <glyph glyph-name="bracketleft" unicode="[" horiz-adv-x="363" 
d="M311.5 714c10.333 -10.667 15.5 -23.6689 15.5 -39.002s-5.16699 -28.166 -15.5 -38.499s-23.5 -15.5 -39.5 -15.5h-67v-642h67c16 0 29.167 -5.33301 39.5 -16s15.5 -23.667 15.5 -39s-5.16699 -28.166 -15.5 -38.499s-23.5 -15.5 -39.5 -15.5h-124
c-16.667 0 -30.5 5.5 -41.5 16.5s-16.5 24.833 -16.5 41.5v743c0 16.667 5.5 30.667 16.5 42s24.833 17 41.5 17h124c16 0 29.167 -5.33301 39.5 -16z" />
    <glyph glyph-name="backslash" unicode="\" horiz-adv-x="675" 
d="M540.5 -125c-9.66699 5.33301 -17.166 12.666 -22.499 21.999l-464 781c-8 12 -12 25 -12 39c0 17.333 6.16699 32.166 18.5 44.499s26.833 18.5 43.5 18.5c10.667 0 20.834 -2.66699 30.501 -8s17.167 -12.666 22.5 -21.999l464 -781
c8.66699 -13.333 13 -26.666 13 -39.999c0 -16.667 -6.33301 -31.167 -19 -43.5s-27.334 -18.5 -44.001 -18.5c-10.667 0 -20.834 2.66699 -30.501 8z" />
    <glyph glyph-name="bracketright" unicode="]" horiz-adv-x="357" 
d="M251.5 713c11 -11.333 16.5 -25.665 16.5 -42.998v-741c0 -17.333 -5.5 -31.5 -16.5 -42.5s-25.167 -16.5 -42.5 -16.5h-116c-16 0 -29.167 5.16699 -39.5 15.5s-15.5 23.166 -15.5 38.499s5.16699 28.333 15.5 39s23.5 16 39.5 16h59v642h-59
c-16 0 -29.167 5.16699 -39.5 15.5s-15.5 23.166 -15.5 38.499s5.16699 28.333 15.5 39s23.5 16 39.5 16h116c17.333 0 31.5 -5.66699 42.5 -17z" />
    <glyph glyph-name="asciicircum" unicode="^" horiz-adv-x="535" 
d="M86 288.5c-12.667 12.333 -19.001 27.5 -19.001 45.5c0 8.66699 3.66699 20 11 34l132 266c12.667 24.667 31.667 37 57 37c26.667 0 46 -12.333 58 -37l132 -266c6.66699 -12.667 10 -24 10 -34c0 -18 -6.16699 -33.167 -18.5 -45.5s-27.5 -18.5 -45.5 -18.5
c-25.333 0 -43.666 11 -54.999 33l-81 163l-81 -163c-10.667 -22 -29 -33 -55 -33c-17.333 0 -32.333 6.16699 -45 18.5z" />
    <glyph glyph-name="underscore" unicode="_" horiz-adv-x="502" 
d="M459 -80c10.667 -10 16 -22.667 16 -38s-5.33301 -28 -16 -38s-24 -15 -40 -15h-335c-16 0 -29.333 5 -40 15s-16 22.667 -16 38s5.33301 28 16 38s24 15 40 15h335c16 0 29.333 -5 40 -15z" />
    <glyph glyph-name="grave" unicode="`" horiz-adv-x="295" 
d="M151.5 570.5c-9 5.66699 -16.501 13.168 -22.501 22.501l-62 103c-7.33301 12 -11 24.333 -11 37c0 18.667 6.33301 34.667 19 48s28.667 20 48 20c12.667 0 24.834 -3.5 36.501 -10.5s20.167 -16.5 25.5 -28.5l47 -107c5.33301 -12 8 -22 8 -30
c1.33301 -16.667 -3.66699 -31.334 -15 -44.001s-26.333 -19 -45 -19c-10 0 -19.5 2.83301 -28.5 8.5z" />
    <glyph glyph-name="a" unicode="a" horiz-adv-x="545" 
d="M426 450.5c37.333 -37 56.001 -89.167 56.001 -156.5v-238c0 -19.333 -6.16699 -35.333 -18.5 -48s-27.833 -19 -46.5 -19c-16 0 -30 4.83301 -42 14.5s-19.667 22.167 -23 37.5c-37.333 -35.333 -85.666 -53 -144.999 -53c-50.667 0 -91.834 13.667 -123.501 41
s-47.5 63 -47.5 107c0 44.667 16.667 79.834 50 105.501s79 38.5 137 38.5h124v22c0 27.333 -8 48.666 -24 63.999s-39 23 -69 23c-34.667 0 -66.334 -12.333 -95.001 -37c-14 -10.667 -27.333 -16 -40 -16c-16.667 0 -30.5 5.33301 -41.5 16s-16.5 23.667 -16.5 39
c0 18.667 9.33301 36.667 28 54c20.667 19.333 46.667 34.333 78 45s65 16 101 16c68 0 120.667 -18.5 158 -55.5zM317.001 115c20 18.667 30 42.001 30 70.001v6h-106c-46 0 -69 -16.667 -69 -50c0 -16.667 6.33301 -29.834 19 -39.501s30 -14.5 52 -14.5
c29.333 0 54 9.33301 74 28z" />
    <glyph glyph-name="b" unicode="b" horiz-adv-x="629" 
d="M473.5 472.5c36.333 -22.333 64.832 -53.167 85.499 -92.5s31 -83.666 31 -132.999s-10.333 -93.666 -31 -132.999s-49.167 -70.166 -85.5 -92.499s-77.5 -33.5 -123.5 -33.5c-32 0 -60.833 5.5 -86.5 16.5s-47.167 26.5 -64.5 46.5
c-1.33301 -18.667 -8.16602 -33.834 -20.499 -45.501s-27.166 -17.5 -44.499 -17.5c-18.667 0 -34.5 6.66699 -47.5 20s-19.5 29.666 -19.5 48.999v636c0 19.333 6.5 35.666 19.5 48.999s29.167 20 48.5 20s35.333 -6.5 48 -19.5s19 -29.5 19 -49.5v-246
c17.333 18.667 38.666 33.167 63.999 43.5s53.333 15.5 84 15.5c46 0 87.167 -11.167 123.5 -33.5zM416.999 149.499c24 25.667 36 58.5 36 98.5c0 39.333 -12.167 71.833 -36.5 97.5s-54.833 38.5 -91.5 38.5s-66.667 -12.667 -90 -38s-35 -58.333 -35 -99
s11.5 -73.5 34.5 -98.5s53.167 -37.5 90.5 -37.5s68 12.833 92 38.5z" />
    <glyph glyph-name="c" unicode="c" horiz-adv-x="552" 
d="M170 22.5c-40.667 23 -72.666 54.499 -95.999 94.499s-35 83.667 -35 131s11.667 90.833 35 130.5s55.333 70.834 96 93.501s85.334 34 134.001 34c41.333 0 80.166 -9 116.499 -27s64.166 -41.667 83.499 -71c8 -12.667 12 -24.667 12 -36
c0 -16.667 -5.83301 -30.834 -17.5 -42.501s-25.834 -17.5 -42.501 -17.5c-19.333 0 -34.666 7 -45.999 21c-28 33.333 -62.667 50 -104 50c-38 0 -69.167 -12.667 -93.5 -38s-36.5 -57.666 -36.5 -96.999c0 -40 12.167 -72.667 36.5 -98s55.5 -38 93.5 -38
c39.333 0 74 16.667 104 50c12 14 27.333 21 46 21c16.667 0 30.834 -5.83301 42.501 -17.5s17.5 -25.834 17.5 -42.501c0 -11.333 -3.66699 -22.666 -11 -33.999c-20.667 -32 -48.5 -56.833 -83.5 -74.5s-74.167 -26.5 -117.5 -26.5c-48.667 0 -93.334 11.5 -134.001 34.5z
" />
    <glyph glyph-name="d" unicode="d" horiz-adv-x="629" 
d="M543 742.5c12.667 -13 19.002 -29.4941 19.002 -49.4941v-637c0 -19.333 -6.33301 -35.5 -19 -48.5s-28.334 -19.5 -47.001 -19.5c-17.333 0 -32.333 6.16699 -45 18.5s-19.667 27.166 -21 44.499c-17.333 -20 -38.833 -35.5 -64.5 -46.5s-54.5 -16.5 -86.5 -16.5
c-46 0 -87.167 11.167 -123.5 33.5s-64.833 53.166 -85.5 92.499s-31 83.666 -31 132.999s10.333 93.666 31 132.999s49.167 70.166 85.5 92.499s77.5 33.5 123.5 33.5c30.667 0 58.667 -5.16699 84 -15.5s46.666 -24.833 63.999 -43.5v246c0 19.333 6.5 35.666 19.5 48.999
s29.167 20 48.5 20s35.333 -6.5 48 -19.5zM394.502 148.506c23 25 34.5 57.833 34.5 98.5s-11.667 73.667 -35 99s-53.333 38 -90 38s-67.167 -12.833 -91.5 -38.5s-36.5 -58.167 -36.5 -97.5c0 -40 12 -72.833 36 -98.5s54.667 -38.5 92 -38.5s67.5 12.5 90.5 37.5z" />
    <glyph glyph-name="e" unicode="e" horiz-adv-x="569" 
d="M416.5 476c35.667 -20 63.665 -47.6689 83.998 -83.002s30.5 -75 30.5 -119v-3c0 -20.667 -6.83301 -37.334 -20.5 -50.001s-31.5 -19 -53.5 -19h-282c8 -31.333 24 -55.5 48 -72.5s54.333 -25.5 91 -25.5c38 0 72.333 9.66699 103 29c10 6 19.667 9 29 9
c15.333 0 28.333 -5.16699 39 -15.5s16 -23.166 16 -38.499c0 -11.333 -2.66699 -21.166 -8 -29.499s-14 -16.5 -26 -24.5c-46 -30.667 -98.333 -46 -157 -46c-51.333 0 -97.666 11.333 -138.999 34s-73.666 53.667 -96.999 93s-35 83.333 -35 132
c0 48 11.167 91.833 33.5 131.5s53.166 70.834 92.499 93.501s83 34 131 34c44.667 0 84.834 -10 120.501 -30zM217.498 369.998c-21 -18 -35.1689 -42.333 -42.502 -73h225c-1.33301 30 -11.666 54.167 -30.999 72.5s-44.666 27.5 -75.999 27.5
c-29.333 0 -54.5 -9 -75.5 -27z" />
    <glyph glyph-name="f" unicode="f" horiz-adv-x="342" 
d="M244 621c-12.667 -13.333 -18.998 -32.333 -18.998 -57v-69h62c16.667 0 30.334 -5.33301 41.001 -16s16 -24.334 16 -41.001s-5.33301 -30.334 -16 -41.001s-24.334 -16 -41.001 -16h-62v-324c0 -20 -6.33301 -36.5 -19 -49.5s-28.667 -19.5 -48 -19.5
s-35.5 6.66699 -48.5 20s-19.5 29.666 -19.5 48.999v324h-22c-16.667 0 -30.5 5.33301 -41.5 16s-16.5 24.334 -16.5 41.001s5.5 30.334 16.5 41.001s24.833 16 41.5 16h22v81c0 58.667 16.333 104.334 49 137.001s77.667 49 135 49c25.333 0 46.666 -4.33301 63.999 -13
c10.667 -4.66699 19 -11.667 25 -21s9 -20.333 9 -33c0 -16.667 -5.33301 -30 -16 -40s-25 -15 -43 -15l-16 1c-22.667 0 -40.334 -6.66699 -53.001 -20z" />
    <glyph glyph-name="g" unicode="g" horiz-adv-x="631" 
d="M545 486.5c12.667 -13 19 -29.166 19 -48.499v-383c0 -78 -22.5 -138.667 -67.5 -182s-107.833 -65 -188.5 -65c-40.667 0 -79.167 5.83301 -115.5 17.5s-68.833 28.834 -97.5 51.501c-18.667 13.333 -28 29.666 -28 48.999c0 16.667 6 31 18 43s26.333 18 43 18
c11.333 0 23.333 -4.33301 36 -13c42 -29.333 86.333 -44 133 -44c41.333 0 73.666 10.333 96.999 31s35 49.334 35 86.001v27c-36 -39.333 -86.333 -59 -151 -59c-46 0 -87 10.5 -123 31.5s-64 50.167 -84 87.5s-30 79.666 -30 126.999s10 89.666 30 126.999
s48 66.333 84 87s77 31 123 31c33.333 0 63 -5.5 89 -16.5s47.667 -26.5 65 -46.5c0.666992 18 7.5 33 20.5 45s28.167 18 45.5 18c18.667 0 34.334 -6.5 47.001 -19.5zM396.5 166.001c23 24.667 34.5 57 34.5 97c0 38.667 -11.333 69.667 -34 93s-53 35 -91 35
c-37.333 0 -68 -12 -92 -36s-36 -55 -36 -93c0 -38.667 12 -70.5 36 -95.5s54.667 -37.5 92 -37.5s67.5 12.333 90.5 37z" />
    <glyph glyph-name="h" unicode="h" horiz-adv-x="585" 
d="M471.5 451.5c33.667 -36.333 50.5 -84.4961 50.5 -144.496v-250c0 -20 -6.33301 -36.5 -19 -49.5s-28.667 -19.5 -48 -19.5c-18.667 0 -34.5 6.66699 -47.5 20s-19.5 29.666 -19.5 48.999v231c0 28.667 -8.5 51.834 -25.5 69.501s-39.167 26.5 -66.5 26.5
s-49.833 -8.83301 -67.5 -26.5s-26.5 -40.834 -26.5 -69.501v-231c0 -20 -6.33301 -36.5 -19 -49.5s-28.667 -19.5 -48 -19.5s-35.5 6.66699 -48.5 20s-19.5 29.666 -19.5 48.999v636c0 19.333 6.5 35.666 19.5 48.999s29.167 20 48.5 20s35.333 -6.5 48 -19.5
s19 -29.5 19 -49.5v-241c17.333 17.333 37.5 30.666 60.5 39.999s48.167 14 75.5 14c55.333 0 99.833 -18.167 133.5 -54.5z" />
    <glyph glyph-name="i" unicode="i" horiz-adv-x="269" 
d="M86.5 8c-13 13.333 -19.5 29.666 -19.5 48.999v381c0 19.333 6.5 35.5 19.5 48.5s29.167 19.5 48.5 19.5s35.333 -6.5 48 -19.5s19 -29.167 19 -48.5v-381c0 -19.333 -6.5 -35.666 -19.5 -48.999s-29.167 -20 -48.5 -20c-18.667 0 -34.5 6.66699 -47.5 20zM194 733
c16.667 -16 25 -35.334 25 -58.001c0 -22 -8.33301 -41 -25 -57s-36.334 -24 -59.001 -24c-23.333 0 -43.333 7.83301 -60 23.5s-25 34.834 -25 57.501s8.33301 42 25 58s36.667 24 60 24c22.667 0 42.334 -8 59.001 -24z" />
    <glyph glyph-name="j" unicode="j" horiz-adv-x="269" 
d="M-38 -183c-12.667 5.33301 -22.668 12.667 -30.001 22s-11 20.333 -11 33c0 16.667 5.33301 30.5 16 41.5s24.334 16.5 41.001 16.5l13 -1c26.667 0 46 6.5 58 19.5s18 36.167 18 69.5v420c0 19.333 6.5 35.5 19.5 48.5s29.167 19.5 48.5 19.5s35.333 -6.5 48 -19.5
s19 -29.167 19 -48.5v-444c0 -60 -16.5 -106 -49.5 -138s-78.167 -48 -135.5 -48c-18.667 0 -37 3 -55 9zM193.999 733.001c16.667 -16 25 -35.334 25 -58.001c0 -22 -8.33301 -41 -25 -57s-36.334 -24 -59.001 -24c-23.333 0 -43.333 7.83301 -60 23.5
s-25 34.834 -25 57.501s8.33301 42 25 58s36.667 24 60 24c22.667 0 42.334 -8 59.001 -24z" />
    <glyph glyph-name="k" unicode="k" 
d="M183 742.5c12.667 -13 19 -29.498 19 -49.498v-636c0 -20 -6.33301 -36.5 -19 -49.5s-28.667 -19.5 -48 -19.5s-35.5 6.66699 -48.5 20s-19.5 29.666 -19.5 48.999v636c0 19.333 6.5 35.666 19.5 48.999s29.167 20 48.5 20s35.333 -6.5 48 -19.5zM525 50.002
c0 -17.333 -5.83301 -32 -17.5 -44s-26.167 -18 -43.5 -18c-20.667 0 -37.334 8.33301 -50.001 25l-169 208c-14 18.667 -21 35 -21 49c0 8.66699 1.83301 16.834 5.5 24.501s9.83398 16.167 18.501 25.5l158 165c13.333 14 29 21 47 21c17.333 0 32 -5.83301 44 -17.5
s18 -25.834 18 -42.501c0 -17.333 -7.33301 -33.333 -22 -48l-126 -128l142 -178c10.667 -13.333 16 -27.333 16 -42z" />
    <glyph glyph-name="l" unicode="l" horiz-adv-x="269" 
d="M86.5 8c-13 13.333 -19.5 29.666 -19.5 48.999v636c0 19.333 6.5 35.666 19.5 48.999s29.167 20 48.5 20c18.667 0 34.5 -6.66699 47.5 -20s19.5 -29.666 19.5 -48.999v-636c0 -19.333 -6.5 -35.666 -19.5 -48.999s-28.833 -20 -47.5 -20
c-19.333 0 -35.5 6.66699 -48.5 20z" />
    <glyph glyph-name="m" unicode="m" horiz-adv-x="892" 
d="M779.5 452.5c33.667 -35.667 50.5 -84.1641 50.5 -145.497v-250c0 -20 -6.33301 -36.5 -19 -49.5s-28.667 -19.5 -48 -19.5s-35.5 6.66699 -48.5 20s-19.5 29.666 -19.5 48.999v231c0 29.333 -7.83301 52.666 -23.5 69.999s-37.167 26 -64.5 26
c-26.667 0 -48.5 -8.66699 -65.5 -26s-25.5 -39.666 -25.5 -66.999v-234c0 -20 -6.33301 -36.5 -19 -49.5s-28.667 -19.5 -48 -19.5s-35.5 6.66699 -48.5 20s-19.5 29.666 -19.5 48.999v231c0 29.333 -8 52.666 -24 69.999s-37.333 26 -64 26
c-27.333 0 -49.333 -8.66699 -66 -26s-25 -40.666 -25 -69.999v-231c0 -20 -6.33301 -36.5 -19 -49.5s-28.667 -19.5 -48 -19.5s-35.5 6.66699 -48.5 20s-19.5 29.666 -19.5 48.999v381c0 19.333 6.33301 35.5 19 48.5s28.667 19.5 48 19.5
c15.333 0 28.666 -4.5 39.999 -13.5s19 -21.167 23 -36.5c35.333 33.333 80 50 134 50c32 0 60.5 -6 85.5 -18s45.5 -29.667 61.5 -53c20 22 44.333 39.333 73 52s59.334 19 92.001 19c57.333 0 102.833 -17.833 136.5 -53.5z" />
    <glyph glyph-name="n" unicode="n" horiz-adv-x="585" 
d="M471.5 452c33.667 -36 50.499 -84.333 50.499 -145v-250c0 -20 -6.33301 -36.5 -19 -49.5s-28.667 -19.5 -48 -19.5c-18.667 0 -34.5 6.66699 -47.5 20s-19.5 29.666 -19.5 48.999v232c0 28.667 -8.5 51.834 -25.5 69.501s-39.167 26.5 -66.5 26.5s-49.833 -9 -67.5 -27
s-26.5 -41 -26.5 -69v-232c0 -20 -6.33301 -36.5 -19 -49.5s-28.667 -19.5 -48 -19.5s-35.5 6.66699 -48.5 20s-19.5 29.666 -19.5 48.999v381c0 19.333 6.33301 35.5 19 48.5s28.667 19.5 48 19.5c15.333 0 28.833 -4.66699 40.5 -14s19.167 -21.666 22.5 -36.999
c18 16 38.833 28.5 62.5 37.5s49.167 13.5 76.5 13.5c56.667 0 101.834 -18 135.501 -54z" />
    <glyph glyph-name="o" unicode="o" horiz-adv-x="608" 
d="M438 471.5c40.667 -23 72.8301 -54.1689 96.4971 -93.502s35.5 -82.666 35.5 -129.999s-11.833 -90.833 -35.5 -130.5s-56 -71 -97 -94s-85.833 -34.5 -134.5 -34.5s-93.167 11.5 -133.5 34.5s-72.166 54.333 -95.499 94s-35 83.167 -35 130.5s11.667 90.833 35 130.5
s55.333 70.834 96 93.501s85.334 34 134.001 34s93.334 -11.5 134.001 -34.5zM211.996 344.498c-24 -25.667 -36 -58.167 -36 -97.5c0 -38.667 12 -70.667 36 -96s54.667 -38 92 -38c36.667 0 67.167 12.667 91.5 38s36.5 57.333 36.5 96s-12.167 71 -36.5 97
s-54.833 39 -91.5 39c-37.333 0 -68 -12.833 -92 -38.5z" />
    <glyph glyph-name="p" unicode="p" horiz-adv-x="629" 
d="M473.5 473c36.333 -22 64.832 -52.667 85.499 -92s31 -83.666 31 -132.999s-10.333 -93.833 -31 -133.5s-49.167 -70.667 -85.5 -93s-77.5 -33.5 -123.5 -33.5c-30.667 0 -58.667 5.16699 -84 15.5s-46.666 25.166 -63.999 44.499v-172
c0 -19.333 -6.33301 -35.5 -19 -48.5s-28.667 -19.5 -48 -19.5s-35.5 6.5 -48.5 19.5s-19.5 29.167 -19.5 48.5v564c0 19.333 6.5 35.333 19.5 48s28.833 19 47.5 19c18 0 33 -6 45 -18s18.667 -27.333 20 -46c17.333 20 38.833 35.5 64.5 46.5s54.5 16.5 86.5 16.5
c46 0 87.167 -11 123.5 -33zM416.999 149.5c24 25.667 36 58.167 36 97.5c0 40 -12 72.833 -36 98.5s-54.667 38.5 -92 38.5s-67.5 -12.5 -90.5 -37.5s-34.5 -57.833 -34.5 -98.5s11.667 -73.667 35 -99s53.333 -38 90 -38c37.333 0 68 12.833 92 38.5z" />
    <glyph glyph-name="q" unicode="q" horiz-adv-x="629" 
d="M543 486.5c12.667 -13 18.998 -29.167 18.998 -48.5v-562c0 -19.333 -6.33301 -35.5 -19 -48.5s-28.667 -19.5 -48 -19.5s-35.5 6.5 -48.5 19.5s-19.5 29.167 -19.5 48.5v172c-17.333 -19.333 -38.666 -34.166 -63.999 -44.499s-53.333 -15.5 -84 -15.5
c-46 0 -87.167 11.167 -123.5 33.5s-64.833 53.333 -85.5 93s-31 84.167 -31 133.5s10.333 93.666 31 132.999s49.167 70 85.5 92s77.5 33 123.5 33c32 0 60.833 -5.5 86.5 -16.5s47.167 -26.5 64.5 -46.5c1.33301 18 8.33301 33 21 45s27.667 18 45 18
c18.667 0 34.334 -6.5 47.001 -19.5zM393.998 149c23.333 25.333 35 58.333 35 99s-11.5 73.5 -34.5 98.5s-53.167 37.5 -90.5 37.5s-68 -12.833 -92 -38.5s-36 -58.5 -36 -98.5c0 -39.333 12 -71.833 36 -97.5s54.667 -38.5 92 -38.5c36.667 0 66.667 12.667 90 38z" />
    <glyph glyph-name="r" unicode="r" horiz-adv-x="388" 
d="M364 484.5c11.333 -11 17.001 -25.832 17.001 -44.499c0 -18 -5.66699 -32.833 -17 -44.5s-26.666 -18.5 -45.999 -20.5c-36 -2.66699 -64.333 -15.167 -85 -37.5s-31 -52.5 -31 -90.5v-190c0 -20 -6.33301 -36.5 -19 -49.5s-28.667 -19.5 -48 -19.5
s-35.5 6.66699 -48.5 20s-19.5 29.666 -19.5 48.999v381c0 19.333 6.33301 35.5 19 48.5s28.667 19.5 48 19.5c17.333 0 32.166 -5.83301 44.499 -17.5s19.166 -26.167 20.499 -43.5c16 18 34.333 31.833 55 41.5s42.667 14.5 66 14.5c18 0 32.667 -5.5 44 -16.5z" />
    <glyph glyph-name="s" unicode="s" horiz-adv-x="455" 
d="M126 7c-31.333 12.667 -58.332 29.9951 -80.999 51.9951c-12.667 10.667 -19 24.667 -19 42c0 15.333 5.5 28.666 16.5 39.999s24.167 17 39.5 17c13.333 0 26.333 -5 39 -15c34 -29.333 70 -44 108 -44c18 0 33 3.5 45 10.5s18 17.167 18 30.5
c0 10.667 -3.83301 18.834 -11.5 24.501s-20.834 12.5 -39.501 20.5l-53 22c-45.333 18.667 -79.166 39.334 -101.499 62.001s-33.5 52.334 -33.5 89.001c0 46.667 16.833 83.167 50.5 109.5s77.5 39.5 131.5 39.5c29.333 0 57.666 -4.66699 84.999 -14s51 -22.333 71 -39
c16 -12 24 -27.333 24 -46c0 -15.333 -5.33301 -28.5 -16 -39.5s-23.667 -16.5 -39 -16.5c-10 0 -22 4.66699 -36 14c-28.667 20 -58.667 30 -90 30c-16.667 0 -29.667 -3 -39 -9s-14 -14.667 -14 -26c0 -9.33301 3.83301 -17.166 11.5 -23.499s21.167 -13.166 40.5 -20.499
l48 -20c48 -19.333 83.167 -40.166 105.5 -62.499s33.5 -51.833 33.5 -88.5c0 -49.333 -18.167 -88 -54.5 -116s-82.5 -42 -138.5 -42c-36 0 -69.667 6.33301 -101 19z" />
    <glyph glyph-name="t" unicode="t" horiz-adv-x="416" 
d="M380 95c10.667 -10 16.001 -23.335 16.001 -40.002c0 -12 -3 -22.667 -9 -32s-14.333 -16.666 -25 -21.999c-20.667 -8.66699 -44 -13 -70 -13c-64.667 0 -113.834 15.833 -147.501 47.5s-50.5 77.834 -50.5 138.501v207h-28c-16.667 0 -30.5 5.33301 -41.5 16
s-16.5 24.334 -16.5 41.001s5.5 30.334 16.5 41.001s24.833 16 41.5 16h28v68c0 19.333 6.33301 35.5 19 48.5s29 19.5 49 19.5c19.333 0 35.333 -6.5 48 -19.5s19 -29.167 19 -48.5v-68h91c16.667 0 30.334 -5.33301 41.001 -16s16 -24.334 16 -41.001
s-5.33301 -30.334 -16 -41.001s-24.334 -16 -41.001 -16h-91v-195c0 -27.333 7 -47 21 -59s36.667 -18 68 -18l19 1c18 0 32.333 -5 43 -15z" />
    <glyph glyph-name="u" unicode="u" horiz-adv-x="580" 
d="M172 17c-34.667 19.333 -61.667 46.5 -81 81.5s-29 74.833 -29 119.5v220c0 19.333 6.5 35.5 19.5 48.5s29.167 19.5 48.5 19.5s35.333 -6.5 48 -19.5s19 -29.167 19 -48.5v-231c0 -27.333 8.83301 -50 26.5 -68s40.167 -27 67.5 -27c26.667 0 48.667 9 66 27
s26 40.667 26 68v231c0 19.333 6.33301 35.5 19 48.5s29 19.5 49 19.5c19.333 0 35.333 -6.5 48 -19.5s19 -29.167 19 -48.5v-220c0 -44.667 -9.66699 -84.5 -29 -119.5s-46.166 -62.167 -80.499 -81.5s-73.5 -29 -117.5 -29c-44.667 0 -84.334 9.66699 -119.001 29z" />
    <glyph glyph-name="v" unicode="v" horiz-adv-x="559" 
d="M518.5 486.5c13 -13 19.501 -28.167 19.501 -45.5c0 -10 -3.33301 -22 -10 -36l-186 -375c-6.66699 -13.333 -15.334 -23.666 -26.001 -30.999s-22.667 -11 -36 -11s-25.333 3.66699 -36 11s-19.334 17.666 -26.001 30.999l-186 375c-7.33301 14 -11 26 -11 36
c0 17.333 6.5 32.5 19.5 45.5s28.5 19.5 46.5 19.5c26.667 0 46.334 -12.667 59.001 -38l134 -276l133 276c12.667 25.333 32.667 38 60 38c17.333 0 32.5 -6.5 45.5 -19.5z" />
    <glyph glyph-name="w" unicode="w" horiz-adv-x="856" 
d="M819 487c12.667 -12.667 18.9961 -27.999 18.9961 -45.999c0 -12 -2.33301 -23 -7 -33l-172 -378c-6.66699 -13.333 -15.167 -23.666 -25.5 -30.999s-22.166 -11 -35.499 -11s-25.333 3.66699 -36 11s-19 17.666 -25 30.999l-109 251l-109 -251
c-13.333 -28 -33.666 -42 -60.999 -42c-13.333 0 -25.166 3.66699 -35.499 11s-18.833 17.666 -25.5 30.999l-172 378c-4.66699 10 -7 21 -7 33c0 18 6.33301 33.333 19 46s28 19 46 19c12.667 0 24.334 -3.33301 35.001 -10s18.667 -15.667 24 -27l120 -263l101 250
c14 33.333 35.667 50 65 50s50.666 -16.667 63.999 -50l102 -251l120 264c5.33301 11.333 13.333 20.333 24 27s22.334 10 35.001 10c18 0 33.333 -6.33301 46 -19z" />
    <glyph glyph-name="x" unicode="x" horiz-adv-x="531" 
d="M491 53c0 -18 -6.16504 -33.3311 -18.498 -45.998s-27.833 -19 -46.5 -19c-20.667 0 -39.334 10 -56.001 30l-105 134l-105 -134c-16 -20 -34.333 -30 -55 -30c-18.667 0 -34.334 6.33301 -47.001 19s-19 28 -19 46c0 15.333 7 32 21 50l120 149l-108 139
c-8 11.333 -13.667 20.666 -17 27.999s-5 14.666 -5 21.999c0 18 6.33301 33.333 19 46s28.334 19 47.001 19c22 0 40 -9.66699 54 -29l96 -124l98 124c15.333 19.333 33.666 29 54.999 29c18 0 33.333 -6.33301 46 -19s19 -28 19 -46c0 -16 -7.33301 -32.667 -22 -50
l-110 -138l119 -150c13.333 -17.333 20 -34 20 -50z" />
    <glyph glyph-name="y" unicode="y" horiz-adv-x="559" 
d="M518.5 486.5c13 -13 19.499 -28.168 19.499 -45.501c0 -10.667 -2.66699 -21 -8 -31l-218 -447c-26.667 -54.667 -56 -94.167 -88 -118.5s-70.333 -36.5 -115 -36.5c-22 0 -41 3.66699 -57 11c-10.667 4.66699 -19 11.834 -25 21.501s-9 20.167 -9 31.5
c0 16.667 5.83301 30.5 17.5 41.5s26.167 16.5 43.5 16.5l12 -1c22 0 40.5 5 55.5 15s27.833 26 38.5 48l18 40l-171 377c-6 12 -9 22.667 -9 32c0 17.333 6.5 32.5 19.5 45.5s28.5 19.5 46.5 19.5c13.333 0 25.333 -3.33301 36 -10s18.334 -16 23.001 -28l131 -293l134 293
c5.33301 11.333 13.333 20.5 24 27.5s22.667 10.5 36 10.5c17.333 0 32.5 -6.5 45.5 -19.5z" />
    <glyph glyph-name="z" unicode="z" horiz-adv-x="468" 
d="M443.5 98c11 -10.667 16.5 -24.335 16.5 -41.002c0 -16 -5.5 -29.5 -16.5 -40.5s-24.833 -16.5 -41.5 -16.5h-326c-16 0 -29.5 5.5 -40.5 16.5s-16.5 24.5 -16.5 40.5c0 8.66699 1.66699 16.5 5 23.5s9.33301 15.5 18 25.5l228 275h-180
c-16.667 0 -30.5 5.33301 -41.5 16s-16.5 24.334 -16.5 41.001s5.5 30.334 16.5 41.001s24.833 16 41.5 16h303c16.667 0 30.5 -5.33301 41.5 -16s16.5 -24 16.5 -40s-6.33301 -31.333 -19 -46l-230 -279h200c16.667 0 30.5 -5.33301 41.5 -16z" />
    <glyph glyph-name="braceleft" unicode="{" horiz-adv-x="413" 
d="M368.5 -37.5c10.333 -10.333 15.5 -23.167 15.5 -38.5c0 -16 -5.16699 -29 -15.5 -39s-23.166 -15 -38.499 -15h-24c-52.667 0 -93.5 11.833 -122.5 35.5s-43.5 58.5 -43.5 104.5c0 21.333 4.33301 57.333 13 108c6 33.333 9 57.333 9 72c0 18 -4.5 31.167 -13.5 39.5
s-22.833 12.5 -41.5 12.5h-11c-16.667 0 -30.5 5.5 -41.5 16.5s-16.5 24.833 -16.5 41.5c0 16 5.5 29.5 16.5 40.5s24.833 16.5 41.5 16.5h11c18.667 0 32.5 4.16699 41.5 12.5s13.5 21.5 13.5 39.5c0 14 -3 38.333 -9 73c-3.33301 18 -6.33301 36.667 -9 56
s-4 36.333 -4 51c0 46 14.5 81 43.5 105s69.833 36 122.5 36h24c15.333 0 28.166 -5.16699 38.499 -15.5s15.5 -23.5 15.5 -39.5c0 -15.333 -5.16699 -28.166 -15.5 -38.499s-23.166 -15.5 -38.499 -15.5h-13c-20 0 -35.333 -5.5 -46 -16.5s-16 -27.167 -16 -48.5
c0 -12.667 3.33301 -39 10 -79c8 -42.667 12 -73 12 -91c0 -44.667 -24.667 -73.667 -74 -87c24.667 -6.66699 43.167 -16.834 55.5 -30.501s18.5 -32.167 18.5 -55.5c0 -14.667 -1.66699 -32.167 -5 -52.5l-6 -36.5c-7.33301 -38 -11 -65 -11 -81
c0 -21.333 5.33301 -37.5 16 -48.5s26 -16.5 46 -16.5h13c15.333 0 28.166 -5.16699 38.499 -15.5z" />
    <glyph glyph-name="bar" unicode="|" horiz-adv-x="332" 
d="M206 775c10.667 -10.667 16 -24 16 -40v-811c0 -16 -5.33301 -29.333 -16 -40s-24 -16 -40 -16s-29.333 5.33301 -40 16s-16 24 -16 40v811c0 16 5.16699 29.333 15.5 40s23.833 16 40.5 16c16 0 29.333 -5.33301 40 -16z" />
    <glyph glyph-name="braceright" unicode="}" horiz-adv-x="413" 
d="M358.5 340.5c11 -11 16.5 -24.499 16.5 -40.499c0 -16.667 -5.5 -30.5 -16.5 -41.5s-24.833 -16.5 -41.5 -16.5h-11c-18.667 0 -32.5 -4.16699 -41.5 -12.5s-13.5 -21.5 -13.5 -39.5c0 -14.667 3 -38.667 9 -72c8.66699 -50.667 13 -86.667 13 -108
c0 -46 -14.5 -80.833 -43.5 -104.5s-69.833 -35.5 -122.5 -35.5h-24c-15.333 0 -28.166 5 -38.499 15s-15.5 23 -15.5 39c0 15.333 5.16699 28.166 15.5 38.499s23.166 15.5 38.499 15.5h13c20 0 35.333 5.5 46 16.5s16 27.167 16 48.5c0 16 -3.66699 43 -11 81l-6 36.5
c-3.33301 20.333 -5 37.833 -5 52.5c0 23.333 6.16699 41.833 18.5 55.5s30.833 23.834 55.5 30.501c-49.333 13.333 -74 42.333 -74 87c0 18 4 48.333 12 91c6.66699 40 10 66.333 10 79c0 21.333 -5.33301 37.5 -16 48.5s-26 16.5 -46 16.5h-13
c-15.333 0 -28.166 5.16699 -38.499 15.5s-15.5 23.166 -15.5 38.499c0 16 5.16699 29.167 15.5 39.5s23.166 15.5 38.499 15.5h24c52.667 0 93.5 -12 122.5 -36s43.5 -59 43.5 -105c0 -14.667 -1.33301 -31.667 -4 -51s-5.66699 -38 -9 -56c-6 -34.667 -9 -59 -9 -73
c0 -18 4.5 -31.167 13.5 -39.5s22.833 -12.5 41.5 -12.5h11c16.667 0 30.5 -5.5 41.5 -16.5z" />
    <glyph glyph-name="asciitilde" unicode="~" 
d="M331 238.5c-20.667 7 -44.999 16.832 -72.999 29.499c-13.333 6 -26.333 11.333 -39 16s-23 7 -31 7c-13.333 0 -23.5 -2.16699 -30.5 -6.5s-13.5 -12.166 -19.5 -23.499c-10 -18.667 -25.333 -28 -46 -28c-16.667 0 -30.5 5.66699 -41.5 17s-16.5 25.333 -16.5 42
c0 35.333 12.5 65 37.5 89s55.833 36 92.5 36c22.667 0 44 -3.33301 64 -10s44.667 -16.667 74 -30c18 -8 32.167 -14 42.5 -18s19.5 -6 27.5 -6c13.333 0 23.5 2.16699 30.5 6.5s13.5 12.166 19.5 23.499c10 19.333 25.333 29 46 29c16.667 0 30.5 -5.66699 41.5 -17
s16.5 -25.666 16.5 -42.999c0 -34.667 -12.5 -64 -37.5 -88s-55.833 -36 -92.5 -36c-22.667 0 -44.334 3.5 -65.001 10.5z" />
    <glyph glyph-name="exclamdown" unicode="&#xa1;" horiz-adv-x="348" 
d="M110.5 359c-17 16.667 -25.5 37.334 -25.5 62.001c0 24 8.5 44.667 25.5 62s38.167 26 63.5 26c24.667 0 45.167 -8.5 61.5 -25.5s24.5 -37.833 24.5 -62.5s-8.16699 -45.334 -24.5 -62.001s-36.833 -25 -61.5 -25c-25.333 0 -46.5 8.33301 -63.5 25zM115.5 -169
c-14.333 15.333 -20.832 35.002 -19.499 59.002l11 312c0.666992 19.333 7.16699 35.666 19.5 48.999s28.166 20 47.499 20c18.667 0 34.167 -6.83301 46.5 -20.5s18.833 -29.834 19.5 -48.501l11 -312c1.33301 -24 -5.16699 -43.667 -19.5 -59s-33.5 -23 -57.5 -23
c-24.667 0 -44.167 7.66699 -58.5 23z" />
    <glyph glyph-name="cent" unicode="&#xa2;" horiz-adv-x="557" 
d="M486.5 238c11.667 -12 17.5029 -26.6689 17.5029 -44.002c0 -15.333 -5.66699 -29.666 -17 -42.999c-40.667 -46 -90.334 -73 -149.001 -81v-117c0 -18 -5.5 -32.833 -16.5 -44.5s-24.833 -17.5 -41.5 -17.5s-30.834 6 -42.501 18s-17.5 26.667 -17.5 44v125
c-55.333 16 -100.333 46.667 -135 92s-52 97.333 -52 156s17.333 110.667 52 156s79.667 76 135 92v124c0 18 5.66699 32.833 17 44.5s25.666 17.5 42.999 17.5c16.667 0 30.5 -5.83301 41.5 -17.5s16.5 -26.5 16.5 -44.5v-116c30 -4 57.667 -12.833 83 -26.5
s47.333 -31.834 66 -54.501c11.333 -13.333 17 -27.666 17 -42.999c0 -17.333 -6 -32 -18 -44s-26.333 -18 -43 -18c-9.33301 0 -17 1.66699 -23 5s-11.5 7.33301 -16.5 12s-8.5 7.66699 -10.5 9c-25.333 26 -56.333 39 -93 39c-37.333 0 -68.166 -12.667 -92.499 -38
s-36.5 -57.666 -36.5 -96.999s12 -71.666 36 -96.999s55 -38 93 -38c36 0 67 13 93 39c2 1.33301 5.83301 4.66602 11.5 9.99902s11.667 9.33301 18 12s13.166 4 20.499 4c17.333 0 31.833 -6 43.5 -18z" />
    <glyph glyph-name="sterling" unicode="&#xa3;" horiz-adv-x="569" 
d="M516.5 98c10.333 -10.667 15.502 -24.3311 15.502 -40.998s-5.16699 -30.334 -15.5 -41.001s-23.166 -16 -38.499 -16h-381c-15.333 0 -28.333 5.5 -39 16.5s-16 24.167 -16 39.5c0 21.333 10 38 30 50c28.667 16.667 49.667 29.667 63 39s23.166 19.5 29.499 30.5
s9.5 24.833 9.5 41.5v10h-71c-17.333 0 -31.5 5.33301 -42.5 16s-16.5 24.334 -16.5 41.001s5.5 30.334 16.5 41.001s25.167 16 42.5 16h28c-14 26.667 -24.667 50.167 -32 70.5s-11 42.833 -11 67.5c0 38 9.33301 71.5 28 100.5s44.5 51.667 77.5 68s70.5 24.5 112.5 24.5
c47.333 0 88.166 -9.83301 122.499 -29.5s61.5 -48.5 81.5 -86.5c8.66699 -16.667 13 -31 13 -43c0 -17.333 -6 -32 -18 -44s-26.667 -18 -44 -18c-14.667 0 -26 3.33301 -34 10s-17 17 -27 31c-11.333 19.333 -23.666 33.333 -36.999 42s-29.333 13 -48 13
c-28 0 -50 -8.33301 -66 -25s-24 -38.334 -24 -65.001c0 -18.667 3.5 -36 10.5 -52s18.167 -37.333 33.5 -64h110c16.667 0 30.5 -5.33301 41.5 -16s16.5 -24.334 16.5 -41.001s-5.5 -30.334 -16.5 -41.001s-24.833 -16 -41.5 -16h-71v-8
c0 -20.667 -4.33301 -40.167 -13 -58.5s-21.334 -33.833 -38.001 -46.5h221c15.333 0 28.166 -5.33301 38.499 -16z" />
    <glyph glyph-name="currency" unicode="&#xa4;" horiz-adv-x="657" 
d="M625 85c0 -15.333 -5.50098 -28.667 -16.501 -40s-24.167 -17 -39.5 -17c-16 0 -30.667 6.66699 -44 20l-77 79c-37.333 -20.667 -78.333 -31 -123 -31c-44 0 -84.333 10 -121 30l-71 -75c-12.667 -14.667 -28 -22 -46 -22c-14.667 0 -27.5 5.66699 -38.5 17
s-16.5 24.666 -16.5 39.999c0 14.667 5.66699 28.334 17 41.001l70 75c-25.333 38 -38 80.667 -38 128c0 45.333 13 87.333 39 126l-70 71c-12 12 -18 26 -18 42s5.66699 29.5 17 40.5s24 16.5 38 16.5c16.667 0 31.667 -6.66699 45 -20l71 -73c37.333 20.667 78 31 122 31
c44.667 0 86.334 -10.667 125.001 -32l75 75c12.667 12.667 27 19 43 19c15.333 0 28.5 -5.5 39.5 -16.5s16.5 -23.833 16.5 -38.5c0 -16.667 -6.33301 -31.334 -19 -44.001l-71 -71c24.667 -38.667 37 -80.667 37 -126c0 -47.333 -13 -89.666 -39 -126.999l74 -76
c12.667 -12 19 -26 19 -42zM402.999 250.999c20 20.667 30 47 30 79s-10.167 58.333 -30.5 79s-45.833 31 -76.5 31c-32 0 -57.833 -10.333 -77.5 -31s-29.5 -47 -29.5 -79s9.83301 -58.333 29.5 -79s45.5 -31 77.5 -31c31.333 0 57 10.333 77 31z" />
    <glyph glyph-name="yen" unicode="&#xa5;" horiz-adv-x="599" 
d="M368 266v-62.001h133c15.333 0 28.166 -5.33301 38.499 -16s15.5 -23.667 15.5 -39s-5.16699 -28.166 -15.5 -38.499s-23.166 -15.5 -38.499 -15.5h-133v-38c0 -19.333 -6.5 -35.666 -19.5 -48.999s-29.167 -20 -48.5 -20c-18.667 0 -34.5 6.66699 -47.5 20
s-19.5 29.666 -19.5 48.999v38h-134c-15.333 0 -28.166 5.16699 -38.499 15.5s-15.5 23.166 -15.5 38.499s5.16699 28.333 15.5 39s23.166 16 38.499 16h134v62h-134c-15.333 0 -28.166 5.33301 -38.499 16s-15.5 23.667 -15.5 39s5.16699 28.166 15.5 38.499
s23.166 15.5 38.499 15.5h96l-141 189c-12 16.667 -18 32 -18 46c0 16.667 6.16699 31 18.5 43s26.833 18 43.5 18c22.667 0 41.667 -12 57 -36l145 -210l145 210c15.333 24 34.333 36 57 36c16.667 0 31.167 -6 43.5 -18s18.5 -26.333 18.5 -43
c0 -13.333 -6.33301 -28.666 -19 -45.999l-141 -189h97c15.333 0 28.166 -5.16699 38.499 -15.5s15.5 -23.166 15.5 -38.499s-5.16699 -28.333 -15.5 -39s-23.166 -16 -38.499 -16h-133z" />
    <glyph glyph-name="brokenbar" unicode="&#xa6;" horiz-adv-x="332" 
d="M206 775c10.667 -10.667 16 -24 16 -40v-210c0 -16 -5.33301 -29.333 -16 -40s-24 -16 -40 -16s-29.333 5.33301 -40 16s-16 24 -16 40v210c0 16 5.16699 29.333 15.5 40s23.833 16 40.5 16c16 0 29.333 -5.33301 40 -16zM206 174c10.667 -10.667 16 -24 16 -40v-208
c0 -16 -5.33301 -29.333 -16 -40s-24 -16 -40 -16s-29.333 5.33301 -40 16s-16 24 -16 40v208c0 16 5.16699 29.333 15.5 40s23.833 16 40.5 16c16 0 29.333 -5.33301 40 -16z" />
    <glyph glyph-name="section" unicode="&#xa7;" horiz-adv-x="602" 
d="M542 107.5c-20.667 -25 -49.0049 -43.1699 -85.0049 -54.5029c1.33301 -10.667 2 -19 2 -25c0 -48 -17.333 -86.833 -52 -116.5s-79.667 -44.5 -135 -44.5c-38.667 0 -72.5 6.33301 -101.5 19s-55.5 33 -79.5 61c-11.333 12.667 -17.666 27.334 -18.999 44.001
c0 13.333 4.16699 24.833 12.5 34.5s18.833 15.167 31.5 16.5c5.33301 1.33301 10 2 14 2c15.333 0 30.333 -7 45 -21c15.333 -15.333 30.166 -26.333 44.499 -33s30.833 -10 49.5 -10c20 0 35.5 4.16699 46.5 12.5s16.5 20.166 16.5 35.499
c0 12.667 -4.66699 24.334 -14 35.001s-29.666 27.334 -60.999 50.001l-91 62c-50.667 32 -86.167 61.167 -106.5 87.5s-30.5 55.5 -30.5 87.5c0 34 10.167 63.667 30.5 89s48.833 43.666 85.5 54.999c-1.33301 9.33301 -2 17.333 -2 24c0 48 17.167 86.833 51.5 116.5
s79.5 44.5 135.5 44.5c38 0 71.5 -6.33301 100.5 -19s55.833 -33 80.5 -61c12 -14 18 -29 18 -45c0 -13.333 -4.16699 -24.666 -12.5 -33.999s-18.5 -14.666 -30.5 -15.999c-5.33301 -1.33301 -10 -2 -14 -2c-15.333 0 -30.666 7 -45.999 21
c-15.333 15.333 -30.166 26.333 -44.499 33s-30.833 10 -49.5 10c-19.333 0 -34.666 -4.33301 -45.999 -13s-17 -20.334 -17 -35.001c0 -13.333 5 -25.5 15 -36.5s30.333 -27.167 61 -48.5l90 -62c50.667 -30.667 86.334 -59.167 107.001 -85.5s31 -56.166 31 -89.499
c0 -34 -10.333 -63.5 -31 -88.5zM411.995 138.997c22.667 13.333 33.999 31 33.999 53c0 13.333 -5 25.5 -15 36.5s-30.667 27.5 -62 49.5l-98 65c-36.667 24 -63.667 45.667 -81 65c-23.333 -14 -35 -32 -35 -54c0 -13.333 5.33301 -26 16 -38s31.334 -28 62.001 -48
l98 -65c33.333 -22 60.333 -43.333 81 -64z" />
    <glyph glyph-name="dieresis" unicode="&#xa8;" horiz-adv-x="459" 
d="M168.5 731.5c15.667 -15 23.498 -33.833 23.498 -56.5c0 -20.667 -8 -38.667 -24 -54s-35 -23 -57 -23c-21.333 0 -40.166 7.83301 -56.499 23.5s-24.5 33.5 -24.5 53.5c0 22 8 40.667 24 56s35 23 57 23c22.667 0 41.834 -7.5 57.501 -22.5zM405.998 731.5
c15.333 -15 23.002 -33.833 23.002 -56.5c0 -21.333 -7.83301 -39.5 -23.5 -54.5s-34.834 -22.5 -57.501 -22.5c-20.667 0 -39.167 7.83301 -55.5 23.5s-24.5 33.5 -24.5 53.5c0 22 7.83301 40.667 23.5 56s34.5 23 56.5 23c23.333 0 42.666 -7.5 57.999 -22.5z" />
    <glyph glyph-name="copyright" unicode="&#xa9;" horiz-adv-x="778" 
d="M212.5 33.5c-53.667 30.333 -96.167 71.666 -127.5 123.999s-47 109.5 -47 171.5s15.667 119.333 47 172s74 94.334 128 125.001s112.667 46 176 46s122 -15.333 176 -46s96.667 -72.167 128 -124.5s47 -109.5 47 -171.5s-15.667 -119.167 -47 -171.5
s-74 -93.833 -128 -124.5s-113 -46 -177 -46c-63.333 0 -121.833 15.167 -175.5 45.5zM522.5 102.5c40.333 23 72 54.332 95 93.999s34.5 83.834 34.5 132.501s-11.5 93.167 -34.5 133.5s-54.667 72 -95 95s-85.166 34.5 -134.499 34.5s-94 -11.5 -134 -34.5
s-71.333 -54.5 -94 -94.5s-34 -84.667 -34 -134c0 -48.667 11.333 -93 34 -133s54 -71.333 94 -94s84.667 -34 134 -34s94.166 11.5 134.499 34.5zM300 169.499c-28.667 16.333 -51.334 38.499 -68.001 66.499s-25 59.333 -25 94s8.33301 66 25 94
s39.334 50.167 68.001 66.5s60.334 24.5 95.001 24.5c24.667 0 48.667 -4.83301 72 -14.5s42 -22.5 56 -38.5c13.333 -15.333 20 -29.666 20 -42.999c0 -12.667 -4 -23.167 -12 -31.5s-17.667 -12.5 -29 -12.5c-8.66699 0 -15.667 1.33301 -21 4
s-10.166 6.16699 -14.499 10.5s-7.5 7.16602 -9.5 8.49902c-16 15.333 -36.333 23 -61 23s-45 -8.5 -61 -25.5s-24 -38.833 -24 -65.5s8 -48.5 24 -65.5s36.333 -25.5 61 -25.5c23.333 0 43.666 7.66699 60.999 23c2.66699 2 6.66699 5.33301 12 10s10.5 8 15.5 10
s10.833 3 17.5 3c11.333 0 21 -4.16699 29 -12.5s12 -18.833 12 -31.5c0 -13.333 -6.66699 -27.666 -20 -42.999c-14 -16 -32.667 -28.833 -56 -38.5s-47.333 -14.5 -72 -14.5c-34.667 0 -66.334 8.16699 -95.001 24.5z" />
    <glyph glyph-name="ordfeminine" unicode="&#xaa;" horiz-adv-x="371" 
d="M288 529c24.667 -24 37.002 -57.667 37.002 -101v-139c0 -14.667 -5 -27.167 -15 -37.5s-22.333 -15.5 -37 -15.5c-10 0 -19.333 2.66699 -28 8s-15 12.333 -19 21c-23.333 -19.333 -52 -29 -86 -29c-32.667 0 -58.834 9 -78.501 27s-29.5 41.667 -29.5 71
s10.667 52 32 68s51.333 24 90 24h67v11c0 28 -16.667 42 -50 42c-17.333 0 -35.333 -5.66699 -54 -17c-10.667 -5.33301 -19.334 -8 -26.001 -8c-12 0 -22.167 4.16699 -30.5 12.5s-12.5 18.5 -12.5 30.5c0 16.667 8.66699 29.667 26 39c16 10.667 32.667 18.167 50 22.5
s37 6.5 59 6.5c45.333 0 80.333 -12 105 -36zM207.502 323c9 8.66699 13.5 20.333 13.5 35v9h-49c-10.667 0 -19.167 -2.5 -25.5 -7.5s-9.5 -12.167 -9.5 -21.5c0 -8.66699 3 -15.5 9 -20.5s14.667 -7.5 26 -7.5c14.667 0 26.5 4.33301 35.5 13z" />
    <glyph glyph-name="guillemotleft" unicode="&#xab;" horiz-adv-x="595" 
d="M191 85l-139.998 145c-12 13.333 -18 27.666 -18 42.999c0 14.667 6 28.667 18 42l140 146c14 14 29.333 21 46 21c15.333 0 28.666 -5.66699 39.999 -17s17 -24.666 17 -39.999c0 -14 -5.66699 -27.667 -17 -41l-99 -111l99 -111c11.333 -11.333 17 -25 17 -41
s-5.83301 -29.5 -17.5 -40.5s-24.834 -16.5 -39.501 -16.5c-16.667 0 -32 7 -46 21zM447.002 85l-139.998 145c-12 13.333 -18 27.666 -18 42.999c0 14.667 6 28.667 18 42l140 146c14 14 29.333 21 46 21c15.333 0 28.666 -5.66699 39.999 -17s17 -24.666 17 -39.999
c0 -14 -5.66699 -27.667 -17 -41l-99 -111l99 -111c11.333 -11.333 17 -25 17 -41s-5.83301 -29.5 -17.5 -40.5s-24.834 -16.5 -39.501 -16.5c-16.667 0 -32 7 -46 21z" />
    <glyph glyph-name="logicalnot" unicode="&#xac;" 
d="M376 114c-12 12 -17.999 27.333 -17.999 46v103h-264c-16.667 0 -30.667 5.5 -42 16.5s-17 24.5 -17 40.5c0 16.667 5.66699 30.5 17 41.5s25.333 16.5 42 16.5h328c18 0 32.833 -6 44.5 -18s17.5 -27 17.5 -45v-155c0 -18.667 -5.83301 -34 -17.5 -46
s-26.834 -18 -45.501 -18c-18 0 -33 6 -45 18z" />
    <glyph glyph-name="uni00AD" unicode="&#xad;" horiz-adv-x="342" 
d="M289 361c10.667 -10.667 16 -24 16 -40s-5.33301 -29.5 -16 -40.5s-24.334 -16.5 -41.001 -16.5h-153c-16.667 0 -30.334 5.5 -41.001 16.5s-16 24.5 -16 40.5s5.33301 29.333 16 40s24.334 16 41.001 16h153c16.667 0 30.334 -5.33301 41.001 -16z" />
    <glyph glyph-name="registered" unicode="&#xae;" horiz-adv-x="574" 
d="M414.5 657.5c39 -23 69.833 -54.167 92.5 -93.5s34 -82 34 -128c0 -46.667 -11.333 -89.667 -34 -129s-53.5 -70.5 -92.5 -93.5s-81.167 -34.5 -126.5 -34.5c-46 0 -88.5 11.5 -127.5 34.5s-70 54.167 -93 93.5s-34.5 82.333 -34.5 129c0 46 11.5 88.667 34.5 128
s54 70.5 93 93.5s81.5 34.5 127.5 34.5c45.333 0 87.5 -11.5 126.5 -34.5zM383 267.5c28.667 17 51.167 40.333 67.5 70s24.5 62.5 24.5 98.5s-8.16699 68.667 -24.5 98s-38.833 52.5 -67.5 69.5s-60.334 25.5 -95.001 25.5c-35.333 0 -67.333 -8.5 -96 -25.5
s-51.167 -40.167 -67.5 -69.5s-24.5 -62 -24.5 -98s8.16699 -68.833 24.5 -98.5s38.833 -53 67.5 -70s60.667 -25.5 96 -25.5c34.667 0 66.334 8.5 95.001 25.5zM389 366c7.33301 -7.33301 10.999 -15.667 10.999 -25c0 -10 -3.33301 -18.333 -10 -25s-14.667 -10 -24 -10
c-11.333 0 -20.666 4.33301 -27.999 13l-60 66h-21v-43c0 -10.667 -3.33301 -19.334 -10 -26.001s-14.667 -10 -24 -10c-10 0 -18.5 3.5 -25.5 10.5s-10.5 15.5 -10.5 25.5v183c0 10 3.5 18.5 10.5 25.5s15.833 10.5 26.5 10.5h67c29.333 0 53.5 -8.16699 72.5 -24.5
s28.5 -37.5 28.5 -63.5c0 -29.333 -12.333 -52.666 -37 -69.999zM256.999 444.999h34c8.66699 0 15.667 2.5 21 7.5s8 11.5 8 19.5c0 8.66699 -2.66699 15.5 -8 20.5s-12.333 7.5 -21 7.5h-34v-55z" />
    <glyph glyph-name="macron" unicode="&#xaf;" horiz-adv-x="362" 
d="M324 713c10.667 -10 16 -22.667 16 -38s-5.33301 -28 -16 -38s-24 -15 -40 -15h-206c-16 0 -29.333 5 -40 15s-16 22.667 -16 38s5.33301 28 16 38s24 15 40 15h206c16 0 29.333 -5 40 -15z" />
    <glyph glyph-name="degree" unicode="&#xb0;" horiz-adv-x="361" 
d="M259.5 651.5c23.667 -13.667 42.499 -32.334 56.499 -56.001s21 -49.5 21 -77.5s-7 -53.833 -21 -77.5s-33 -42.334 -57 -56.001s-50 -20.5 -78 -20.5c-28.667 0 -55 6.83301 -79 20.5s-43 32.334 -57 56.001s-21 49.5 -21 77.5s7 53.833 21 77.5s33 42.334 57 56.001
s50.333 20.5 79 20.5s54.834 -6.83301 78.501 -20.5zM132.999 565.5c-12.667 -13 -19 -29.167 -19 -48.5c0 -18.667 6.5 -34.5 19.5 -47.5s28.833 -19.5 47.5 -19.5c19.333 0 35.333 6.33301 48 19s19 28.667 19 48c0 20 -6.33301 36.333 -19 49s-28.667 19 -48 19
s-35.333 -6.5 -48 -19.5z" />
    <glyph glyph-name="plusminus" unicode="&#xb1;" 
d="M238 172c-10.667 12 -16 27.667 -16 47v96h-120c-15.333 0 -28.166 5.33301 -38.499 16s-15.5 23.667 -15.5 39s5.16699 28.166 15.5 38.499s23.166 15.5 38.499 15.5h120v89c0 18.667 5.33301 34.167 16 46.5s25 18.5 43 18.5s32.167 -6 42.5 -18s15.5 -27.667 15.5 -47
v-89h120c15.333 0 28.333 -5.16699 39 -15.5s16 -23.166 16 -38.499s-5.33301 -28.333 -16 -39s-23.667 -16 -39 -16h-120v-96c0 -19.333 -5.16699 -35 -15.5 -47s-24.5 -18 -42.5 -18s-32.333 6 -43 18zM62.5 15.5c-10.333 10.333 -15.5 23.166 -15.5 38.499
s5.16699 28.166 15.5 38.499s23.5 15.5 39.5 15.5h357c15.333 0 28.333 -5.16699 39 -15.5s16 -23.166 16 -38.499s-5.33301 -28.166 -16 -38.499s-23.667 -15.5 -39 -15.5h-357c-16 0 -29.167 5.16699 -39.5 15.5z" />
    <glyph glyph-name="uni00B2" unicode="&#xb2;" horiz-adv-x="385" 
d="M340 441c8.66699 -8.66699 13.001 -19.332 13.001 -31.999s-4.33301 -23.334 -13 -32.001s-19.667 -13 -33 -13h-229c-12.667 0 -23.334 4.33301 -32.001 13s-13 19.334 -13 32.001c0 13.333 6.66699 25.666 20 36.999l127 103c20 16.667 34.167 32.167 42.5 46.5
s12.5 30.166 12.5 47.499c0 15.333 -4.5 28 -13.5 38s-20.833 15 -35.5 15c-13.333 0 -24.5 -4.5 -33.5 -13.5s-13.833 -21.167 -14.5 -36.5c-1.33301 -8.66699 -3.33301 -15.667 -6 -21c-2 -9.33301 -7.16699 -16.666 -15.5 -21.999s-18.166 -8 -29.499 -8
c-15.333 0 -27.666 5 -36.999 15s-14 23.667 -14 41c0 24.667 6.83301 47.5 20.5 68.5s32 37.667 55 50s48.167 18.5 75.5 18.5c43.333 0 79.166 -13.167 107.499 -39.5s42.5 -59.166 42.5 -98.499c0 -30 -7.33301 -57.333 -22 -82s-39.334 -51.334 -74.001 -80.001l-41 -34
h107c13.333 0 24.333 -4.33301 33 -13z" />
    <glyph glyph-name="uni00B3" unicode="&#xb3;" horiz-adv-x="360" 
d="M298 583c18.667 -24 28 -51.0049 28 -81.0049c0 -27.333 -7 -52.166 -21 -74.499s-33.167 -39.833 -57.5 -52.5s-51.5 -19 -81.5 -19c-27.333 0 -52.833 5.5 -76.5 16.5s-42.834 26.167 -57.501 45.5c-7.33301 9.33301 -11 19.333 -11 30c0 12.667 4.5 23.5 13.5 32.5
s19.833 13.5 32.5 13.5c14 0 25.333 -5 34 -15c10.667 -11.333 20.667 -19.333 30 -24s20 -7 32 -7c18.667 0 33.334 4.83301 44.001 14.5s16 22.834 16 39.501c0 32 -24.667 48 -74 48h-5c-12.667 0 -23.5 4.5 -32.5 13.5s-13.5 19.833 -13.5 32.5s5.66699 24 17 34l65 60
h-97c-13.333 0 -24.5 4.33301 -33.5 13s-13.5 19.334 -13.5 32.001s4.5 23.334 13.5 32.001s20.167 13 33.5 13h192c12.667 0 23.167 -4.33301 31.5 -13s12.5 -19 12.5 -31c0 -13.333 -4.66699 -24.666 -14 -33.999l-77 -72c28 -7.33301 51.333 -23 70 -47z" />
    <glyph glyph-name="acute" unicode="&#xb4;" horiz-adv-x="295" 
d="M70 581c-11.333 12.667 -16.334 27.333 -15.001 44c0 8 2.66699 18 8 30l47 107c5.33301 12 13.833 21.5 25.5 28.5s23.834 10.5 36.501 10.5c19.333 0 35.333 -6.66699 48 -20s19 -29.333 19 -48c0 -12.667 -3.66699 -25 -11 -37l-62 -103
c-6 -9.33301 -13.5 -16.833 -22.5 -22.5s-18.5 -8.5 -28.5 -8.5c-18.667 0 -33.667 6.33301 -45 19z" />
    <glyph glyph-name="uni00B5" unicode="&#xb5;" horiz-adv-x="610" 
d="M598 97.5c8.66699 -9.66699 13 -22.165 13 -37.498c0 -26.667 -10.333 -45.334 -31 -56.001c-17.333 -9.33301 -36.333 -14 -57 -14c-50 0 -85.333 17.333 -106 52c-13.333 -16.667 -29.666 -29.834 -48.999 -39.501s-40.333 -14.5 -63 -14.5
c-20.667 0 -39.834 4 -57.501 12s-32.834 19 -45.501 33v-156c0 -19.333 -6.5 -35.666 -19.5 -48.999s-28.833 -20 -47.5 -20s-34.667 6.66699 -48 20s-20 29.666 -20 48.999v561c0 19.333 6.66699 35.5 20 48.5s29.333 19.5 48 19.5s34.5 -6.66699 47.5 -20
s19.5 -29.333 19.5 -48v-228c0 -29.333 8.5 -53.333 25.5 -72s39.167 -28 66.5 -28c28 0 50.667 9.33301 68 28s26 42.667 26 72v228c0 18.667 6.5 34.667 19.5 48s28.833 20 47.5 20s34.5 -6.66699 47.5 -20s19.5 -29.333 19.5 -48v-277c0 -32.667 13.333 -49 40 -49h1
c14.667 0 26.334 -4.83301 35.001 -14.5z" />
    <glyph glyph-name="paragraph" unicode="&#xb6;" horiz-adv-x="613" 
d="M518.5 640.5c13 -13 19.501 -29.167 19.501 -48.5v-595c0 -62.667 -17.167 -109.834 -51.5 -141.501s-83.5 -47.5 -147.5 -47.5c-30.667 0 -54 4 -70 12c-25.333 11.333 -38 29 -38 53c0 17.333 6.16699 31.833 18.5 43.5s27.833 17.5 46.5 17.5
c2.66699 0 5.5 -0.333008 8.5 -1s7.5 -1 13.5 -1c28 0.666992 49.167 7 63.5 19s21.5 32 21.5 60v206h-146c-40 0 -77.333 10 -112 30s-62.167 47.167 -82.5 81.5s-30.5 71.5 -30.5 111.5s10.167 76.833 30.5 110.5s47.666 60.334 81.999 80.001s71.833 29.5 112.5 29.5h213
c19.333 0 35.5 -6.5 48.5 -19.5z" />
    <glyph glyph-name="periodcentered" unicode="&#xb7;" horiz-adv-x="270" 
d="M69 254c-18 18 -27 40 -27 66s9 48 27 66s40.333 27 67 27c26 0 47.833 -9 65.5 -27s26.5 -40 26.5 -66s-8.83301 -48 -26.5 -66s-39.5 -27 -65.5 -27c-26.667 0 -49 9 -67 27z" />
    <glyph glyph-name="cedilla" unicode="&#xb8;" horiz-adv-x="290" 
d="M39 -183c-21.333 9.33301 -31.999 23.667 -31.999 43c0 13.333 4.66699 24.666 14 33.999s20.666 14 33.999 14l32 -1c17.333 0 31.333 3.33301 42 10s16 16.667 16 30c0 18 -7 36 -21 54c-1.33301 2 -4.33301 6 -9 12s-8.16699 11.667 -10.5 17s-3.5 10.333 -3.5 15
c0 10.667 4 19.167 12 25.5s18 9.5 30 9.5c16.667 0 34 -7.5 52 -22.5s33 -33.667 45 -56s18 -43.833 18 -64.5c0 -39.333 -14 -70.666 -42 -93.999s-65.333 -35 -112 -35c-27.333 0 -49 3 -65 9z" />
    <glyph glyph-name="uni00B9" unicode="&#xb9;" horiz-adv-x="370" 
d="M48 377c-8.66699 8.66699 -13.001 19.333 -13.001 32s4.33301 23.334 13 32.001s19.667 13 33 13h64v236h-55c-13.333 0 -24.5 4.33301 -33.5 13s-13.5 19.334 -13.5 32.001s4.5 23.334 13.5 32.001s20.167 13 33.5 13h105c14.667 0 26.834 -4.83301 36.501 -14.5
s14.5 -21.834 14.5 -36.501v-275h47c13.333 0 24.333 -4.33301 33 -13s13 -19.334 13 -32.001s-4.33301 -23.334 -13 -32.001s-19.667 -13 -33 -13h-212c-13.333 0 -24.333 4.33301 -33 13z" />
    <glyph glyph-name="ordmasculine" unicode="&#xba;" horiz-adv-x="400" 
d="M286 543c26 -14.667 46.667 -34.5 62 -59.5s23 -52.5 23 -82.5s-7.66699 -57.667 -23 -83s-36 -45.333 -62 -60s-54.667 -22 -86 -22s-60 7.33301 -86 22s-46.5 34.667 -61.5 60s-22.5 53 -22.5 83s7.5 57.5 22.5 82.5s35.5 44.833 61.5 59.5s54.667 22 86 22
s60 -7.33301 86 -22zM151.5 452.5c-12.333 -13 -18.5 -30.167 -18.5 -51.5s6.16699 -38.5 18.5 -51.5s28.5 -19.5 48.5 -19.5s36.167 6.5 48.5 19.5s18.5 30.167 18.5 51.5s-6.16699 38.5 -18.5 51.5s-28.5 19.5 -48.5 19.5s-36.167 -6.5 -48.5 -19.5z" />
    <glyph glyph-name="guillemotright" unicode="&#xbb;" horiz-adv-x="597" 
d="M66.5 80.5c-11.667 11 -17.498 24.5 -17.498 40.5s5.66699 29.667 17 41l99 111l-99 111c-11.333 13.333 -17 27 -17 41c0 15.333 5.66699 28.666 17 39.999s24.666 17 39.999 17c16.667 0 32 -7 46 -21l140 -146c12 -13.333 18 -27.333 18 -42
c0 -15.333 -6 -29.666 -18 -42.999l-140 -145c-14 -14 -29.333 -21 -46 -21c-14.667 0 -27.834 5.5 -39.501 16.5zM323.502 80.5c-11.667 11 -17.498 24.5 -17.498 40.5s5.66699 29.667 17 41l99 111l-99 111c-11.333 13.333 -17 27 -17 41
c0 15.333 5.66699 28.666 17 39.999s24.666 17 39.999 17c16.667 0 32 -7 46 -21l140 -146c12 -13.333 18 -27.333 18 -42c0 -15.333 -6 -29.666 -18 -42.999l-140 -145c-14 -14 -29.333 -21 -46 -21c-14.667 0 -27.834 5.5 -39.501 16.5z" />
    <glyph glyph-name="onequarter" unicode="&#xbc;" horiz-adv-x="936" 
d="M48 257c-8.66699 8.66699 -13.001 19.333 -13.001 32s4.33301 23.334 13 32.001s19.667 13 33 13h64v236h-55c-13.333 0 -24.5 4.33301 -33.5 13s-13.5 19.334 -13.5 32.001s4.5 23.334 13.5 32.001s20.167 13 33.5 13h105c14.667 0 26.834 -4.83301 36.501 -14.5
s14.5 -21.834 14.5 -36.501v-275h47c13.333 0 24.333 -4.33301 33 -13s13 -19.334 13 -32.001s-4.33301 -23.334 -13 -32.001s-19.667 -13 -33 -13h-212c-13.333 0 -24.333 4.33301 -33 13zM290.999 0.999023c-8.66699 8.66699 -12.999 19.335 -12.999 32.002
c0 10 2.33301 19 7 27l338 582c10 18 25 27 45 27c12.667 0 23.5 -4.33301 32.5 -13s13.5 -19.334 13.5 -32.001c0 -8.66699 -2.33301 -17.334 -7 -26.001l-339 -583c-10 -18 -25 -27 -45 -27c-12.667 0 -23.334 4.33301 -32.001 13zM921.5 143.5
c8.33301 -9.66699 12.498 -20.5 12.498 -32.5s-4.16699 -22.833 -12.5 -32.5s-19.5 -14.5 -33.5 -14.5h-12v-25c0 -13.333 -4.33301 -24.5 -13 -33.5s-19.334 -13.5 -32.001 -13.5c-13.333 0 -24.333 4.5 -33 13.5s-13 20.167 -13 33.5v25h-170
c-11.333 0 -21.166 4.16699 -29.499 12.5s-12.5 18.166 -12.5 29.499c0 7.33301 1.33301 14 4 20l122 266c9.33301 21.333 24 32 44 32c12.667 0 23.334 -4.5 32.001 -13.5s13 -19.833 13 -32.5c0 -7.33301 -1.33301 -14.666 -4 -21.999l-82 -198h83v56
c0 13.333 4.33301 24.5 13 33.5s19.667 13.5 33 13.5c12.667 0 23.334 -4.5 32.001 -13.5s13 -20.167 13 -33.5v-56h12c14 0 25.167 -4.83301 33.5 -14.5z" />
    <glyph glyph-name="onehalf" unicode="&#xbd;" horiz-adv-x="971" 
d="M48 257c-8.66699 8.66699 -13.001 19.333 -13.001 32s4.33301 23.334 13 32.001s19.667 13 33 13h64v236h-55c-13.333 0 -24.5 4.33301 -33.5 13s-13.5 19.334 -13.5 32.001s4.5 23.334 13.5 32.001s20.167 13 33.5 13h105c14.667 0 26.834 -4.83301 36.501 -14.5
s14.5 -21.834 14.5 -36.501v-275h47c13.333 0 24.333 -4.33301 33 -13s13 -19.334 13 -32.001s-4.33301 -23.334 -13 -32.001s-19.667 -13 -33 -13h-212c-13.333 0 -24.333 4.33301 -33 13zM290.999 0.999023c-8.66699 8.66699 -12.999 19.335 -12.999 32.002
c0 10 2.33301 19 7 27l338 582c10 18 25 27 45 27c12.667 0 23.5 -4.33301 32.5 -13s13.5 -19.334 13.5 -32.001c0 -8.66699 -2.33301 -17.334 -7 -26.001l-339 -583c-10 -18 -25 -27 -45 -27c-12.667 0 -23.334 4.33301 -32.001 13zM926 77
c8.66699 -8.66699 13.001 -19.3301 13.001 -31.9971s-4.33301 -23.334 -13 -32.001s-19.667 -13 -33 -13h-229c-12.667 0 -23.334 4.33301 -32.001 13s-13 19.334 -13 32.001c0 13.333 6.66699 25.666 20 36.999l127 103c20 16.667 34.167 32.167 42.5 46.5
s12.5 30.166 12.5 47.499c0 15.333 -4.5 28 -13.5 38s-20.833 15 -35.5 15c-13.333 0 -24.5 -4.5 -33.5 -13.5s-13.833 -21.167 -14.5 -36.5c-1.33301 -8.66699 -3.33301 -15.667 -6 -21c-2 -8.66699 -7.16699 -15.834 -15.5 -21.501s-18.166 -8.5 -29.499 -8.5
c-15.333 0 -27.666 5 -36.999 15s-14 23.667 -14 41c0 24.667 6.83301 47.5 20.5 68.5s32 37.667 55 50s48.167 18.5 75.5 18.5c43.333 0 79.166 -13.167 107.499 -39.5s42.5 -59.166 42.5 -98.499c0 -30 -7.33301 -57.333 -22 -82s-39.334 -51.334 -74.001 -80.001l-41 -34
h107c13.333 0 24.333 -4.33301 33 -13z" />
    <glyph glyph-name="threequarters" unicode="&#xbe;" horiz-adv-x="891" 
d="M298 463c18.667 -24 28 -51.0049 28 -81.0049c0 -27.333 -7 -52.166 -21 -74.499s-33.167 -39.833 -57.5 -52.5s-51.5 -19 -81.5 -19c-27.333 0 -52.833 5.5 -76.5 16.5s-42.834 26.167 -57.501 45.5c-7.33301 9.33301 -11 19.333 -11 30c0 12.667 4.5 23.5 13.5 32.5
s19.833 13.5 32.5 13.5c14 0 25.333 -5 34 -15c10.667 -11.333 20.667 -19.333 30 -24s20 -7 32 -7c18.667 0 33.334 4.83301 44.001 14.5s16 22.834 16 39.501c0 32 -24.667 48 -74 48h-5c-12.667 0 -23.5 4.5 -32.5 13.5s-13.5 19.833 -13.5 32.5s5.66699 24 17 34l65 60
h-97c-13.333 0 -24.5 4.33301 -33.5 13s-13.5 19.334 -13.5 32.001s4.5 23.334 13.5 32.001s20.167 13 33.5 13h192c12.667 0 23.167 -4.33301 31.5 -13s12.5 -19 12.5 -31c0 -13.333 -4.66699 -24.666 -14 -33.999l-77 -72c28 -7.33301 51.333 -23 70 -47zM246 0.995117
c-8.66699 8.66699 -12.999 19.335 -12.999 32.002c0 10 2.33301 19 7 27l338 582c10 18 25 27 45 27c12.667 0 23.5 -4.33301 32.5 -13s13.5 -19.334 13.5 -32.001c0 -8.66699 -2.33301 -17.334 -7 -26.001l-339 -583c-10 -18 -25 -27 -45 -27
c-12.667 0 -23.334 4.33301 -32.001 13zM876.501 143.496c8.33301 -9.66699 12.498 -20.5 12.498 -32.5s-4.16699 -22.833 -12.5 -32.5s-19.5 -14.5 -33.5 -14.5h-12v-25c0 -13.333 -4.33301 -24.5 -13 -33.5s-19.334 -13.5 -32.001 -13.5c-13.333 0 -24.333 4.5 -33 13.5
s-13 20.167 -13 33.5v25h-170c-11.333 0 -21.166 4.16699 -29.499 12.5s-12.5 18.166 -12.5 29.499c0 7.33301 1.33301 14 4 20l122 266c9.33301 21.333 24 32 44 32c12.667 0 23.334 -4.5 32.001 -13.5s13 -19.833 13 -32.5c0 -7.33301 -1.33301 -14.666 -4 -21.999
l-82 -198h83v56c0 13.333 4.33301 24.5 13 33.5s19.667 13.5 33 13.5c12.667 0 23.334 -4.5 32.001 -13.5s13 -20.167 13 -33.5v-56h12c14 0 25.167 -4.83301 33.5 -14.5z" />
    <glyph glyph-name="questiondown" unicode="&#xbf;" horiz-adv-x="452" 
d="M310.5 483c17 -16.667 25.5 -37.334 25.5 -62.001c0 -24 -8.5 -44.667 -25.5 -62s-38.167 -26 -63.5 -26c-24.667 0 -45.167 8.5 -61.5 25.5s-24.5 37.833 -24.5 62.5s8.16699 45.334 24.5 62.001s36.833 25 61.5 25c25.333 0 46.5 -8.33301 63.5 -25zM295 269
c12.667 -11.333 18.9961 -25.3311 18.9961 -41.998v-10c0 -19.333 -5 -36.833 -15 -52.5s-29.667 -37.167 -59 -64.5c-26 -23.333 -43.167 -41 -51.5 -53s-12.5 -25 -12.5 -39c0 -16.667 5.66699 -30.834 17 -42.501s25.333 -17.5 42 -17.5c28.667 0 51.667 15.667 69 47
c8.66699 12 17.334 20.833 26.001 26.5s18.667 8.5 30 8.5c16.667 0 30.834 -5.83301 42.501 -17.5s17.5 -26.167 17.5 -43.5c0 -12.667 -4.66699 -27.334 -14 -44.001c-16.667 -32.667 -40.167 -57.667 -70.5 -75s-65.166 -26 -104.499 -26
c-36.667 0 -69.834 7.33301 -99.501 22s-53 34.667 -70 60s-25.5 53.666 -25.5 84.999c0 24.667 6.33301 47.667 19 69s33.334 44.333 62.001 69c26 22.667 44 41 54 55s15.333 28 16 42l1 9c1.33301 14.667 7.83301 26.834 19.5 36.501s25.834 14.5 42.501 14.5
c17.333 0 32.333 -5.66699 45 -17z" />
    <glyph glyph-name="Agrave" unicode="&#xc0;" horiz-adv-x="662" 
d="M628 53c0 -18 -6.33301 -33.333 -19 -46s-28.334 -19 -47.001 -19c-29.333 0 -50.666 16 -63.999 48l-28 68h-279l-28 -68c-12.667 -32 -33.667 -48 -63 -48c-18.667 0 -34.5 6.33301 -47.5 19s-19.5 28 -19.5 46c0 9.33301 2.66699 21.333 8 36l226 537
c12 30.667 33.333 46 64 46s52 -15.333 64 -46l225 -537c5.33301 -12.667 8 -24.667 8 -36zM235 215h190l-94 258zM291 724.5c-9.33301 3.66699 -17.6699 10.5 -25.0029 20.5l-64 90c-9.33301 12.667 -14 26 -14 40c0 18 6.5 33.667 19.5 47s29.167 20 48.5 20
c11.333 0 22.333 -2.66699 33 -8s19.334 -14.333 26.001 -27l52 -100c4 -8 6 -16.667 6 -26c0 -16 -5.16699 -30.167 -15.5 -42.5s-24.166 -18.833 -41.499 -19.5c-7.33301 0 -15.666 1.83301 -24.999 5.5z" />
    <glyph glyph-name="Aacute" unicode="&#xc1;" horiz-adv-x="662" 
d="M628 53c0 -18 -6.33301 -33.333 -19 -46s-28.334 -19 -47.001 -19c-29.333 0 -50.666 16 -63.999 48l-28 68h-279l-28 -68c-12.667 -32 -33.667 -48 -63 -48c-18.667 0 -34.5 6.33301 -47.5 19s-19.5 28 -19.5 46c0 9.33301 2.66699 21.333 8 36l226 537
c12 30.667 33.333 46 64 46s52 -15.333 64 -46l225 -537c5.33301 -12.667 8 -24.667 8 -36zM235 215h190l-94 258zM305.5 738.5c-10.333 12.333 -15.5039 26.499 -15.5039 42.499c0 9.33301 2 18 6 26l52 100c6.66699 12.667 15.334 21.667 26.001 27s21.667 8 33 8
c19.333 0 35.5 -6.83301 48.5 -20.5s19.5 -29.167 19.5 -46.5c0 -15.333 -4.66699 -28.666 -14 -39.999l-64 -90c-7.33301 -10 -15.666 -16.833 -24.999 -20.5s-17.666 -5.5 -24.999 -5.5c-17.333 0.666992 -31.166 7.16699 -41.499 19.5z" />
    <glyph glyph-name="Acircumflex" unicode="&#xc2;" horiz-adv-x="662" 
d="M628 53c0 -18 -6.33301 -33.333 -19 -46s-28.334 -19 -47.001 -19c-29.333 0 -50.666 16 -63.999 48l-28 68h-279l-28 -68c-12.667 -32 -33.667 -48 -63 -48c-18.667 0 -34.5 6.33301 -47.5 19s-19.5 28 -19.5 46c0 9.33301 2.66699 21.333 8 36l226 537
c12 30.667 33.333 46 64 46s52 -15.333 64 -46l225 -537c5.33301 -12.667 8 -24.667 8 -36zM235 215h190l-94 258zM494.5 793.5c4.33301 -6.33301 6.50098 -13.5 6.50098 -21.5c0 -14 -4.83301 -25.833 -14.5 -35.5s-21.167 -14.5 -34.5 -14.5c-14 0 -27 5.33301 -39 16
l-83 76l-83 -76c-12 -10.667 -25 -16 -39 -16c-13.333 0 -24.833 4.83301 -34.5 14.5s-14.5 21.5 -14.5 35.5c0 8 2.16699 15.167 6.5 21.5s12.166 14.833 23.499 25.5l94 92c14.667 13.333 30.334 20 47.001 20c17.333 0 33 -6.66699 47 -20l94 -92
c11.333 -10.667 19.166 -19.167 23.499 -25.5z" />
    <glyph glyph-name="Atilde" unicode="&#xc3;" horiz-adv-x="662" 
d="M628 53c0 -18 -6.33301 -33.333 -19 -46s-28.334 -19 -47.001 -19c-29.333 0 -50.666 16 -63.999 48l-28 68h-279l-28 -68c-12.667 -32 -33.667 -48 -63 -48c-18.667 0 -34.5 6.33301 -47.5 19s-19.5 28 -19.5 46c0 9.33301 2.66699 21.333 8 36l226 537
c12 30.667 33.333 46 64 46s52 -15.333 64 -46l225 -537c5.33301 -12.667 8 -24.667 8 -36zM235 215h190l-94 258zM146 732.5c-10 10.333 -15.002 24.1641 -15.002 41.4971c0 38 11 69 33 93s50 36 84 36c24.667 0 49.334 -7 74.001 -21l31 -18
c8.66699 -4.66699 16.667 -8.66699 24 -12s14 -5 20 -5c16 0 26 9 30 27c3.33301 11.333 9.33301 20.333 18 27s19.334 10 32.001 10c16.667 0 29.834 -5.16699 39.501 -15.5s14.5 -24.166 14.5 -41.499c0 -38 -10.833 -69 -32.5 -93s-49.834 -36 -84.501 -36
c-24.667 0 -49.334 7 -74.001 21l-30 17c-11.333 6 -20.166 10.333 -26.499 13s-12.5 4 -18.5 4c-8 0 -14.333 -2.16699 -19 -6.5s-8.33398 -11.166 -11.001 -20.499c-3.33301 -11.333 -9.16602 -20.166 -17.499 -26.499s-18.833 -9.5 -31.5 -9.5
c-16.667 0 -30 5.16699 -40 15.5z" />
    <glyph glyph-name="Adieresis" unicode="&#xc4;" horiz-adv-x="662" 
d="M628 53c0 -18 -6.33301 -33.333 -19 -46s-28.334 -19 -47.001 -19c-29.333 0 -50.666 16 -63.999 48l-28 68h-279l-28 -68c-12.667 -32 -33.667 -48 -63 -48c-18.667 0 -34.5 6.33301 -47.5 19s-19.5 28 -19.5 46c0 9.33301 2.66699 21.333 8 36l226 537
c12 30.667 33.333 46 64 46s52 -15.333 64 -46l225 -537c5.33301 -12.667 8 -24.667 8 -36zM235 215h190l-94 258zM146 760.5c-16.667 15.667 -24.998 33.5 -24.998 53.5c0 22 8.16699 40.5 24.5 55.5s35.166 22.5 56.499 22.5c22 0 41 -7.5 57 -22.5s24 -33.5 24 -55.5
c0 -20.667 -8 -38.667 -24 -54s-35 -23 -57 -23c-20.667 0 -39.334 7.83301 -56.001 23.5zM404.002 759.5c-16.667 15.667 -24.998 33.5 -24.998 53.5c0 22 8.16699 40.667 24.5 56s35.166 23 56.499 23c22 0 41 -7.66699 57 -23s24 -34 24 -56
c0 -20.667 -8 -38.667 -24 -54s-35 -23 -57 -23c-20.667 0 -39.334 7.83301 -56.001 23.5z" />
    <glyph glyph-name="Aring" unicode="&#xc5;" horiz-adv-x="662" 
d="M628 53c0 -18 -6.33301 -33.333 -19 -46s-28.334 -19 -47.001 -19c-29.333 0 -50.666 16 -63.999 48l-28 68h-279l-28 -68c-12.667 -32 -33.667 -48 -63 -48c-18.667 0 -34.5 6.33301 -47.5 19s-19.5 28 -19.5 46c0 9.33301 2.66699 21.333 8 36l226 537
c12 30.667 33.333 46 64 46s52 -15.333 64 -46l225 -537c5.33301 -12.667 8 -24.667 8 -36zM235 215h190l-94 258zM421 884.5c24 -23 36 -51.833 36 -86.5c0 -35.333 -12 -64.666 -36 -87.999s-54.333 -35 -91 -35c-36 0 -66 11.667 -90 35s-36 52.666 -36 87.999
c0 34.667 12 63.5 36 86.5s54 34.5 90 34.5c36.667 0 67 -11.5 91 -34.5zM302 827.5c-8 -7.66699 -12 -17.5 -12 -29.5s4 -22 12 -30s17.667 -12 29 -12s21 4 29 12s12 18 12 30c0 11.333 -4 21 -12 29s-17.667 12 -29 12s-21 -3.83301 -29 -11.5z" />
    <glyph glyph-name="AE" unicode="&#xc6;" horiz-adv-x="853" 
d="M802.5 104.5c11.667 -11.667 17.501 -26.167 17.501 -43.5s-6 -31.833 -18 -43.5s-26.667 -17.5 -44 -17.5h-246c-16.667 0 -30.834 5 -42.501 15s-19.167 22.667 -22.5 38l-5 33h-248l-31 -60c-5.33301 -12 -13 -21.333 -23 -28s-21 -10 -33 -10
c-19.333 0 -35.333 6 -48 18s-19 27.333 -19 46c0 12 2.66699 22.667 8 32l272 530c8 16 17.667 27.667 29 35s25.333 11 42 11h355c18 0 32.833 -5.83301 44.5 -17.5s17.5 -26.167 17.5 -43.5s-6 -31.833 -18 -43.5s-26.667 -17.5 -44 -17.5h-247l22 -134h148
c16.667 0 30.5 -5.5 41.5 -16.5s16.5 -24.833 16.5 -41.5c0 -16 -5.5 -29.5 -16.5 -40.5s-24.833 -16.5 -41.5 -16.5h-129l28 -167h190c18 0 32.833 -5.83301 44.5 -17.5zM251.001 197h172l-43 269z" />
    <glyph glyph-name="Ccedilla" unicode="&#xc7;" horiz-adv-x="720" 
d="M211.5 33.5c-53.667 30.333 -95.999 71.499 -126.999 123.499s-46.5 109.667 -46.5 173s15.5 121 46.5 173s73.5 93.167 127.5 123.5s113.333 45.5 178 45.5c50.667 0 98.5 -10.167 143.5 -30.5s82.167 -48.166 111.5 -83.499c14 -16 21 -32.667 21 -50
c0 -16.667 -6.16699 -31 -18.5 -43s-27.166 -18 -44.499 -18c-19.333 0 -36.666 8.66699 -51.999 26c-42.667 49.333 -96.334 74 -161.001 74c-40.667 0 -77.167 -9.33301 -109.5 -28s-57.666 -44.5 -75.999 -77.5s-27.5 -70.5 -27.5 -112.5
c0 -41.333 9.16699 -78.5 27.5 -111.5s43.666 -58.667 75.999 -77s68.833 -27.5 109.5 -27.5c63.333 0 116.666 24.667 159.999 74c16 17.333 33.667 26 53 26c17.333 0 32 -6 44 -18s18 -26.333 18 -43s-7 -33.334 -21 -50.001
c-29.333 -35.333 -66.5 -63.166 -111.5 -83.499s-92.833 -30.5 -143.5 -30.5c-64.667 0 -123.834 15.167 -177.501 45.5zM277.001 -183.001c-21.333 9.33301 -31.999 23.667 -31.999 43c0 13.333 4.66699 24.666 14 33.999s20.666 14 33.999 14l32 -1
c17.333 0 31.333 3.33301 42 10s16 16.667 16 30c0 18 -7 36 -21 54c-1.33301 2 -4.33301 6 -9 12s-8.16699 11.667 -10.5 17s-3.5 10.333 -3.5 15c0 10.667 4 19.167 12 25.5s18 9.5 30 9.5c16.667 0 34 -7.5 52 -22.5s33 -33.667 45 -56s18 -43.833 18 -64.5
c0 -39.333 -14 -70.666 -42 -93.999s-65.333 -35 -112 -35c-27.333 0 -49 3 -65 9z" />
    <glyph glyph-name="Egrave" unicode="&#xc8;" horiz-adv-x="572" 
d="M94.5 19.5c-13 13 -19.5 28.833 -19.5 47.5v526c0 19.333 6.5 35.333 19.5 48s28.833 19 47.5 19h323c18 0 32.833 -5.83301 44.5 -17.5s17.5 -26.167 17.5 -43.5s-6 -31.833 -18 -43.5s-26.667 -17.5 -44 -17.5h-255v-134h175c16.667 0 30.667 -5.5 42 -16.5
s17 -24.833 17 -41.5c0 -16 -5.66699 -29.5 -17 -40.5s-25.333 -16.5 -42 -16.5h-175v-167h267c18 0 32.833 -5.83301 44.5 -17.5s17.5 -26.167 17.5 -43.5s-6 -31.833 -18 -43.5s-26.667 -17.5 -44 -17.5h-335c-18.667 0 -34.5 6.5 -47.5 19.5zM254 724.5
c-9.33301 3.66699 -17.6699 10.5 -25.0029 20.5l-64 90c-9.33301 12.667 -14 26 -14 40c0 18 6.5 33.667 19.5 47s29.167 20 48.5 20c11.333 0 22.333 -2.66699 33 -8s19.334 -14.333 26.001 -27l52 -100c4 -8 6 -16.667 6 -26c0 -16 -5.16699 -30.167 -15.5 -42.5
s-24.166 -18.833 -41.499 -19.5c-7.33301 0 -15.666 1.83301 -24.999 5.5z" />
    <glyph glyph-name="Eacute" unicode="&#xc9;" horiz-adv-x="572" 
d="M94.5 19.5c-13 13 -19.5 28.833 -19.5 47.5v526c0 19.333 6.5 35.333 19.5 48s28.833 19 47.5 19h323c18 0 32.833 -5.83301 44.5 -17.5s17.5 -26.167 17.5 -43.5s-6 -31.833 -18 -43.5s-26.667 -17.5 -44 -17.5h-255v-134h175c16.667 0 30.667 -5.5 42 -16.5
s17 -24.833 17 -41.5c0 -16 -5.66699 -29.5 -17 -40.5s-25.333 -16.5 -42 -16.5h-175v-167h267c18 0 32.833 -5.83301 44.5 -17.5s17.5 -26.167 17.5 -43.5s-6 -31.833 -18 -43.5s-26.667 -17.5 -44 -17.5h-335c-18.667 0 -34.5 6.5 -47.5 19.5zM268.5 738.5
c-10.333 12.333 -15.5039 26.499 -15.5039 42.499c0 9.33301 2 18 6 26l52 100c6.66699 12.667 15.334 21.667 26.001 27s21.667 8 33 8c19.333 0 35.5 -6.83301 48.5 -20.5s19.5 -29.167 19.5 -46.5c0 -15.333 -4.66699 -28.666 -14 -39.999l-64 -90
c-7.33301 -10 -15.666 -16.833 -24.999 -20.5s-17.666 -5.5 -24.999 -5.5c-17.333 0.666992 -31.166 7.16699 -41.499 19.5z" />
    <glyph glyph-name="Ecircumflex" unicode="&#xca;" horiz-adv-x="572" 
d="M94.5 19.5c-13 13 -19.5 28.833 -19.5 47.5v526c0 19.333 6.5 35.333 19.5 48s28.833 19 47.5 19h323c18 0 32.833 -5.83301 44.5 -17.5s17.5 -26.167 17.5 -43.5s-6 -31.833 -18 -43.5s-26.667 -17.5 -44 -17.5h-255v-134h175c16.667 0 30.667 -5.5 42 -16.5
s17 -24.833 17 -41.5c0 -16 -5.66699 -29.5 -17 -40.5s-25.333 -16.5 -42 -16.5h-175v-167h267c18 0 32.833 -5.83301 44.5 -17.5s17.5 -26.167 17.5 -43.5s-6 -31.833 -18 -43.5s-26.667 -17.5 -44 -17.5h-335c-18.667 0 -34.5 6.5 -47.5 19.5zM457.5 793.5
c4.33301 -6.33301 6.50098 -13.5 6.50098 -21.5c0 -14 -4.83301 -25.833 -14.5 -35.5s-21.167 -14.5 -34.5 -14.5c-14 0 -27 5.33301 -39 16l-83 76l-83 -76c-12 -10.667 -25 -16 -39 -16c-13.333 0 -24.833 4.83301 -34.5 14.5s-14.5 21.5 -14.5 35.5
c0 8 2.16699 15.167 6.5 21.5s12.166 14.833 23.499 25.5l94 92c14.667 13.333 30.334 20 47.001 20c17.333 0 33 -6.66699 47 -20l94 -92c11.333 -10.667 19.166 -19.167 23.499 -25.5z" />
    <glyph glyph-name="Edieresis" unicode="&#xcb;" horiz-adv-x="572" 
d="M94.5 19.5c-13 13 -19.5 28.833 -19.5 47.5v526c0 19.333 6.5 35.333 19.5 48s28.833 19 47.5 19h323c18 0 32.833 -5.83301 44.5 -17.5s17.5 -26.167 17.5 -43.5s-6 -31.833 -18 -43.5s-26.667 -17.5 -44 -17.5h-255v-134h175c16.667 0 30.667 -5.5 42 -16.5
s17 -24.833 17 -41.5c0 -16 -5.66699 -29.5 -17 -40.5s-25.333 -16.5 -42 -16.5h-175v-167h267c18 0 32.833 -5.83301 44.5 -17.5s17.5 -26.167 17.5 -43.5s-6 -31.833 -18 -43.5s-26.667 -17.5 -44 -17.5h-335c-18.667 0 -34.5 6.5 -47.5 19.5zM109 760.5
c-16.667 15.667 -24.998 33.5 -24.998 53.5c0 22 8.16699 40.5 24.5 55.5s35.166 22.5 56.499 22.5c22 0 41 -7.5 57 -22.5s24 -33.5 24 -55.5c0 -20.667 -8 -38.667 -24 -54s-35 -23 -57 -23c-20.667 0 -39.334 7.83301 -56.001 23.5zM367.002 759.5
c-16.667 15.667 -24.998 33.5 -24.998 53.5c0 22 8.16699 40.667 24.5 56s35.166 23 56.499 23c22 0 41 -7.66699 57 -23s24 -34 24 -56c0 -20.667 -8 -38.667 -24 -54s-35 -23 -57 -23c-20.667 0 -39.334 7.83301 -56.001 23.5z" />
    <glyph glyph-name="Igrave" unicode="&#xcc;" horiz-adv-x="285" 
d="M94 7.5c-12.667 13 -19 29.498 -19 49.498v546c0 20 6.33301 36.5 19 49.5s29 19.5 49 19.5c19.333 0 35.333 -6.66699 48 -20s19 -29.666 19 -48.999v-546c0 -19.333 -6.33301 -35.666 -19 -48.999s-28.667 -20 -48 -20c-20 0 -36.333 6.5 -49 19.5zM103 724.498
c-9.33301 3.66699 -17.6699 10.5 -25.0029 20.5l-64 90c-9.33301 12.667 -14 26 -14 40c0 18 6.5 33.667 19.5 47s29.167 20 48.5 20c11.333 0 22.333 -2.66699 33 -8s19.334 -14.333 26.001 -27l52 -100c4 -8 6 -16.667 6 -26c0 -16 -5.16699 -30.167 -15.5 -42.5
s-24.166 -18.833 -41.499 -19.5c-7.33301 0 -15.666 1.83301 -24.999 5.5z" />
    <glyph glyph-name="Iacute" unicode="&#xcd;" horiz-adv-x="285" 
d="M94 7.5c-12.667 13 -19 29.498 -19 49.498v546c0 20 6.33301 36.5 19 49.5s29 19.5 49 19.5c19.333 0 35.333 -6.66699 48 -20s19 -29.666 19 -48.999v-546c0 -19.333 -6.33301 -35.666 -19 -48.999s-28.667 -20 -48 -20c-20 0 -36.333 6.5 -49 19.5zM117.5 738.498
c-10.333 12.333 -15.5039 26.499 -15.5039 42.499c0 9.33301 2 18 6 26l52 100c6.66699 12.667 15.334 21.667 26.001 27s21.667 8 33 8c19.333 0 35.5 -6.83301 48.5 -20.5s19.5 -29.167 19.5 -46.5c0 -15.333 -4.66699 -28.666 -14 -39.999l-64 -90
c-7.33301 -10 -15.666 -16.833 -24.999 -20.5s-17.666 -5.5 -24.999 -5.5c-17.333 0.666992 -31.166 7.16699 -41.499 19.5z" />
    <glyph glyph-name="Icircumflex" unicode="&#xce;" horiz-adv-x="285" 
d="M94 7.5c-12.667 13 -19 29.498 -19 49.498v546c0 20 6.33301 36.5 19 49.5s29 19.5 49 19.5c19.333 0 35.333 -6.66699 48 -20s19 -29.666 19 -48.999v-546c0 -19.333 -6.33301 -35.666 -19 -48.999s-28.667 -20 -48 -20c-20 0 -36.333 6.5 -49 19.5zM306.5 793.498
c4.33301 -6.33301 6.50098 -13.5 6.50098 -21.5c0 -14 -4.83301 -25.833 -14.5 -35.5s-21.167 -14.5 -34.5 -14.5c-14 0 -27 5.33301 -39 16l-83 76l-83 -76c-12 -10.667 -25 -16 -39 -16c-13.333 0 -24.833 4.83301 -34.5 14.5s-14.5 21.5 -14.5 35.5
c0 8 2.16699 15.167 6.5 21.5s12.166 14.833 23.499 25.5l94 92c14.667 13.333 30.334 20 47.001 20c17.333 0 33 -6.66699 47 -20l94 -92c11.333 -10.667 19.166 -19.167 23.499 -25.5z" />
    <glyph glyph-name="Idieresis" unicode="&#xcf;" horiz-adv-x="285" 
d="M94 7.5c-12.667 13 -19 29.498 -19 49.498v546c0 20 6.33301 36.5 19 49.5s29 19.5 49 19.5c19.333 0 35.333 -6.66699 48 -20s19 -29.666 19 -48.999v-546c0 -19.333 -6.33301 -35.666 -19 -48.999s-28.667 -20 -48 -20c-20 0 -36.333 6.5 -49 19.5zM-42 760.498
c-16.667 15.667 -24.998 33.5 -24.998 53.5c0 22 8.16699 40.5 24.5 55.5s35.166 22.5 56.499 22.5c22 0 41 -7.5 57 -22.5s24 -33.5 24 -55.5c0 -20.667 -8 -38.667 -24 -54s-35 -23 -57 -23c-20.667 0 -39.334 7.83301 -56.001 23.5zM216.002 759.498
c-16.667 15.667 -24.998 33.5 -24.998 53.5c0 22 8.16699 40.667 24.5 56s35.166 23 56.499 23c22 0 41 -7.66699 57 -23s24 -34 24 -56c0 -20.667 -8 -38.667 -24 -54s-35 -23 -57 -23c-20.667 0 -39.334 7.83301 -56.001 23.5z" />
    <glyph glyph-name="Eth" unicode="&#xd0;" horiz-adv-x="690" 
d="M479.5 619c54.333 -27.333 96.5 -65.833 126.5 -115.5s45 -106.834 45 -171.501s-15.167 -122.167 -45.5 -172.5s-72.833 -89.5 -127.5 -117.5s-116.667 -42 -186 -42h-148c-20 0 -36.5 6.5 -49.5 19.5s-19.5 29.5 -19.5 49.5v188h-28c-17.333 0 -32 5.33301 -44 16
s-18 24.334 -18 41.001c0 16 6 29.333 18 40s26.667 16 44 16h28v221c0 20 6.5 36.5 19.5 49.5s29.5 19.5 49.5 19.5h148c70.667 0 133.167 -13.667 187.5 -41zM407.5 148c33.667 17.333 59.668 41.834 78.001 73.501s27.5 68.5 27.5 110.5
c0 63.333 -19.833 113.5 -59.5 150.5s-93.834 55.5 -162.501 55.5h-81v-168h54c17.333 0 32 -5.33301 44 -16s18 -24 18 -40c0 -16.667 -6 -30.334 -18 -41.001s-26.667 -16 -44 -16h-54v-135h81c44 0 82.833 8.66699 116.5 26z" />
    <glyph glyph-name="Ntilde" unicode="&#xd1;" horiz-adv-x="712" 
d="M617.5 652c13 -13.333 19.499 -29.666 19.499 -48.999v-547c0 -19.333 -6.33301 -35.5 -19 -48.5s-28.334 -19.5 -47.001 -19.5c-14.667 0 -26.667 3.33301 -36 10s-19.666 17 -30.999 31l-294 378v-350c0 -19.333 -6.5 -35.666 -19.5 -48.999s-28.833 -20 -47.5 -20
c-19.333 0 -35.5 6.66699 -48.5 20s-19.5 29.666 -19.5 48.999v547c0 19.333 6.33301 35.5 19 48.5s28.334 19.5 47.001 19.5c15.333 0 27.5 -3.33301 36.5 -10s19.833 -18 32.5 -34l293 -375l-1 350c0 19.333 6.5 35.666 19.5 48.999s29.167 20 48.5 20
c18.667 0 34.5 -6.66699 47.5 -20zM170.999 732.5c-10 10.333 -15.002 24.1641 -15.002 41.4971c0 38 11 69 33 93s50 36 84 36c24.667 0 49.334 -7 74.001 -21l31 -18c8.66699 -4.66699 16.667 -8.66699 24 -12s14 -5 20 -5c16 0 26 9 30 27
c3.33301 11.333 9.33301 20.333 18 27s19.334 10 32.001 10c16.667 0 29.834 -5.16699 39.501 -15.5s14.5 -24.166 14.5 -41.499c0 -38 -10.833 -69 -32.5 -93s-49.834 -36 -84.501 -36c-24.667 0 -49.334 7 -74.001 21l-30 17c-11.333 6 -20.166 10.333 -26.499 13
s-12.5 4 -18.5 4c-8 0 -14.333 -2.16699 -19 -6.5s-8.33398 -11.166 -11.001 -20.499c-3.33301 -11.333 -9.16602 -20.166 -17.499 -26.499s-18.833 -9.5 -31.5 -9.5c-16.667 0 -30 5.16699 -40 15.5z" />
    <glyph glyph-name="Ograve" unicode="&#xd2;" horiz-adv-x="778" 
d="M565.5 626.5c53.667 -30.333 96.167 -71.668 127.5 -124.001s47 -109.833 47 -172.5s-15.667 -120.167 -47 -172.5s-73.833 -93.666 -127.5 -123.999s-112.834 -45.5 -177.501 -45.5s-123.667 15.167 -177 45.5s-95.5 71.5 -126.5 123.5s-46.5 109.667 -46.5 173
s15.5 121 46.5 173s73.167 93.167 126.5 123.5s112.333 45.5 177 45.5s123.834 -15.167 177.501 -45.5zM279.5 519.498c-32.333 -18.333 -57.5 -44 -75.5 -77s-27 -70.5 -27 -112.5s9 -79.5 27 -112.5s43.167 -58.667 75.5 -77s68.833 -27.5 109.5 -27.5s77 9.33301 109 28
s57.167 44.5 75.5 77.5s27.5 70.167 27.5 111.5s-9.16699 78.5 -27.5 111.5s-43.5 58.833 -75.5 77.5s-68.333 28 -109 28s-77.167 -9.16699 -109.5 -27.5zM349 724.498c-9.33301 3.66699 -17.6699 10.5 -25.0029 20.5l-64 90c-9.33301 12.667 -14 26 -14 40
c0 18 6.5 33.667 19.5 47s29.167 20 48.5 20c11.333 0 22.333 -2.66699 33 -8s19.334 -14.333 26.001 -27l52 -100c4 -8 6 -16.667 6 -26c0 -16 -5.16699 -30.167 -15.5 -42.5s-24.166 -18.833 -41.499 -19.5c-7.33301 0 -15.666 1.83301 -24.999 5.5z" />
    <glyph glyph-name="Oacute" unicode="&#xd3;" horiz-adv-x="778" 
d="M565.5 626.5c53.667 -30.333 96.167 -71.668 127.5 -124.001s47 -109.833 47 -172.5s-15.667 -120.167 -47 -172.5s-73.833 -93.666 -127.5 -123.999s-112.834 -45.5 -177.501 -45.5s-123.667 15.167 -177 45.5s-95.5 71.5 -126.5 123.5s-46.5 109.667 -46.5 173
s15.5 121 46.5 173s73.167 93.167 126.5 123.5s112.333 45.5 177 45.5s123.834 -15.167 177.501 -45.5zM279.5 519.498c-32.333 -18.333 -57.5 -44 -75.5 -77s-27 -70.5 -27 -112.5s9 -79.5 27 -112.5s43.167 -58.667 75.5 -77s68.833 -27.5 109.5 -27.5s77 9.33301 109 28
s57.167 44.5 75.5 77.5s27.5 70.167 27.5 111.5s-9.16699 78.5 -27.5 111.5s-43.5 58.833 -75.5 77.5s-68.333 28 -109 28s-77.167 -9.16699 -109.5 -27.5zM363.5 738.498c-10.333 12.333 -15.5039 26.499 -15.5039 42.499c0 9.33301 2 18 6 26l52 100
c6.66699 12.667 15.334 21.667 26.001 27s21.667 8 33 8c19.333 0 35.5 -6.83301 48.5 -20.5s19.5 -29.167 19.5 -46.5c0 -15.333 -4.66699 -28.666 -14 -39.999l-64 -90c-7.33301 -10 -15.666 -16.833 -24.999 -20.5s-17.666 -5.5 -24.999 -5.5
c-17.333 0.666992 -31.166 7.16699 -41.499 19.5z" />
    <glyph glyph-name="Ocircumflex" unicode="&#xd4;" horiz-adv-x="778" 
d="M565.5 626.5c53.667 -30.333 96.167 -71.668 127.5 -124.001s47 -109.833 47 -172.5s-15.667 -120.167 -47 -172.5s-73.833 -93.666 -127.5 -123.999s-112.834 -45.5 -177.501 -45.5s-123.667 15.167 -177 45.5s-95.5 71.5 -126.5 123.5s-46.5 109.667 -46.5 173
s15.5 121 46.5 173s73.167 93.167 126.5 123.5s112.333 45.5 177 45.5s123.834 -15.167 177.501 -45.5zM279.5 519.498c-32.333 -18.333 -57.5 -44 -75.5 -77s-27 -70.5 -27 -112.5s9 -79.5 27 -112.5s43.167 -58.667 75.5 -77s68.833 -27.5 109.5 -27.5s77 9.33301 109 28
s57.167 44.5 75.5 77.5s27.5 70.167 27.5 111.5s-9.16699 78.5 -27.5 111.5s-43.5 58.833 -75.5 77.5s-68.333 28 -109 28s-77.167 -9.16699 -109.5 -27.5zM552.5 793.498c4.33301 -6.33301 6.50098 -13.5 6.50098 -21.5c0 -14 -4.83301 -25.833 -14.5 -35.5
s-21.167 -14.5 -34.5 -14.5c-14 0 -27 5.33301 -39 16l-83 76l-83 -76c-12 -10.667 -25 -16 -39 -16c-13.333 0 -24.833 4.83301 -34.5 14.5s-14.5 21.5 -14.5 35.5c0 8 2.16699 15.167 6.5 21.5s12.166 14.833 23.499 25.5l94 92c14.667 13.333 30.334 20 47.001 20
c17.333 0 33 -6.66699 47 -20l94 -92c11.333 -10.667 19.166 -19.167 23.499 -25.5z" />
    <glyph glyph-name="Otilde" unicode="&#xd5;" horiz-adv-x="778" 
d="M565.5 626.5c53.667 -30.333 96.167 -71.668 127.5 -124.001s47 -109.833 47 -172.5s-15.667 -120.167 -47 -172.5s-73.833 -93.666 -127.5 -123.999s-112.834 -45.5 -177.501 -45.5s-123.667 15.167 -177 45.5s-95.5 71.5 -126.5 123.5s-46.5 109.667 -46.5 173
s15.5 121 46.5 173s73.167 93.167 126.5 123.5s112.333 45.5 177 45.5s123.834 -15.167 177.501 -45.5zM279.5 519.498c-32.333 -18.333 -57.5 -44 -75.5 -77s-27 -70.5 -27 -112.5s9 -79.5 27 -112.5s43.167 -58.667 75.5 -77s68.833 -27.5 109.5 -27.5s77 9.33301 109 28
s57.167 44.5 75.5 77.5s27.5 70.167 27.5 111.5s-9.16699 78.5 -27.5 111.5s-43.5 58.833 -75.5 77.5s-68.333 28 -109 28s-77.167 -9.16699 -109.5 -27.5zM204 732.498c-10 10.333 -15.002 24.1641 -15.002 41.4971c0 38 11 69 33 93s50 36 84 36
c24.667 0 49.334 -7 74.001 -21l31 -18c8.66699 -4.66699 16.667 -8.66699 24 -12s14 -5 20 -5c16 0 26 9 30 27c3.33301 11.333 9.33301 20.333 18 27s19.334 10 32.001 10c16.667 0 29.834 -5.16699 39.501 -15.5s14.5 -24.166 14.5 -41.499c0 -38 -10.833 -69 -32.5 -93
s-49.834 -36 -84.501 -36c-24.667 0 -49.334 7 -74.001 21l-30 17c-11.333 6 -20.166 10.333 -26.499 13s-12.5 4 -18.5 4c-8 0 -14.333 -2.16699 -19 -6.5s-8.33398 -11.166 -11.001 -20.499c-3.33301 -11.333 -9.16602 -20.166 -17.499 -26.499s-18.833 -9.5 -31.5 -9.5
c-16.667 0 -30 5.16699 -40 15.5z" />
    <glyph glyph-name="Odieresis" unicode="&#xd6;" horiz-adv-x="778" 
d="M565.5 626.5c53.667 -30.333 96.167 -71.668 127.5 -124.001s47 -109.833 47 -172.5s-15.667 -120.167 -47 -172.5s-73.833 -93.666 -127.5 -123.999s-112.834 -45.5 -177.501 -45.5s-123.667 15.167 -177 45.5s-95.5 71.5 -126.5 123.5s-46.5 109.667 -46.5 173
s15.5 121 46.5 173s73.167 93.167 126.5 123.5s112.333 45.5 177 45.5s123.834 -15.167 177.501 -45.5zM279.5 519.498c-32.333 -18.333 -57.5 -44 -75.5 -77s-27 -70.5 -27 -112.5s9 -79.5 27 -112.5s43.167 -58.667 75.5 -77s68.833 -27.5 109.5 -27.5s77 9.33301 109 28
s57.167 44.5 75.5 77.5s27.5 70.167 27.5 111.5s-9.16699 78.5 -27.5 111.5s-43.5 58.833 -75.5 77.5s-68.333 28 -109 28s-77.167 -9.16699 -109.5 -27.5zM204 760.498c-16.667 15.667 -24.998 33.5 -24.998 53.5c0 22 8.16699 40.5 24.5 55.5s35.166 22.5 56.499 22.5
c22 0 41 -7.5 57 -22.5s24 -33.5 24 -55.5c0 -20.667 -8 -38.667 -24 -54s-35 -23 -57 -23c-20.667 0 -39.334 7.83301 -56.001 23.5zM462.002 759.498c-16.667 15.667 -24.998 33.5 -24.998 53.5c0 22 8.16699 40.667 24.5 56s35.166 23 56.499 23c22 0 41 -7.66699 57 -23
s24 -34 24 -56c0 -20.667 -8 -38.667 -24 -54s-35 -23 -57 -23c-20.667 0 -39.334 7.83301 -56.001 23.5z" />
    <glyph glyph-name="multiply" unicode="&#xd7;" 
d="M84.5 128.5c-11.667 11.667 -17.5 25.167 -17.5 40.5c0 14.667 6.33301 28.334 19 41.001l113 113l-113 114c-12.667 11.333 -19 25 -19 41c0 15.333 5.83301 28.666 17.5 39.999s25.167 17 40.5 17s29 -6 41 -18l114 -114l114 114c12 12 25.667 18 41 18
s28.833 -5.66699 40.5 -17s17.5 -24.666 17.5 -39.999c0 -16 -6.33301 -29.667 -19 -41l-113 -114l113 -113c12.667 -12.667 19 -26.334 19 -41.001c0 -15.333 -5.83301 -28.833 -17.5 -40.5s-25.167 -17.5 -40.5 -17.5c-14 0 -27.667 6 -41 18l-114 114l-114 -114
c-13.333 -12 -27 -18 -41 -18c-15.333 0 -28.833 5.83301 -40.5 17.5z" />
    <glyph glyph-name="Oslash" unicode="&#xd8;" horiz-adv-x="779" 
d="M722.5 437.5c11.667 -34.333 17.501 -70.1689 17.501 -107.502c0 -62.667 -15.667 -120.167 -47 -172.5s-73.833 -93.666 -127.5 -123.999s-112.5 -45.5 -176.5 -45.5c-74.667 0 -141.334 20 -200.001 60l-39 -39c-14 -14 -29.333 -21 -46 -21
c-14.667 0 -27.5 5.66699 -38.5 17s-16.5 24.666 -16.5 39.999c0 16.667 6.33301 31.334 19 44.001l38 38c-21.333 28.667 -37.833 60.167 -49.5 94.5s-17.5 70.5 -17.5 108.5c0 63.333 15.5 121 46.5 173s73.167 93.167 126.5 123.5s112.333 45.5 177 45.5
c74 0 141 -20 201 -60l39 39c14 14 29.333 21 46 21c14.667 0 27.5 -5.66699 38.5 -17s16.5 -24.666 16.5 -39.999c0 -16.667 -6.33301 -31.334 -19 -44.001l-38 -38c21.333 -29.333 37.833 -61.166 49.5 -95.499zM197.001 217.997l305 305.999
c-34.667 19.333 -72 29 -112 29c-42 0 -79.667 -9.5 -113 -28.5s-59.333 -45.5 -78 -79.5s-28 -72.333 -28 -115c0 -41.333 8.66699 -78.666 26 -111.999zM501.501 135.496c33 19 58.832 45.5 77.499 79.5s28 72.333 28 115c0 40.667 -8.66699 77.667 -26 111l-304 -305
c32.667 -19.333 70.334 -29 113.001 -29c41.333 0 78.5 9.5 111.5 28.5z" />
    <glyph glyph-name="Ugrave" unicode="&#xd9;" horiz-adv-x="700" 
d="M203.5 24c-42.333 24 -75.1699 57.5 -98.5029 100.5s-35 92.5 -35 148.5v330c0 19.333 6.5 35.666 19.5 48.999s29.167 20 48.5 20c18.667 0 34.5 -6.66699 47.5 -20s19.5 -29.666 19.5 -48.999v-340c0 -46 13 -82.5 39 -109.5s61.333 -40.5 106 -40.5s80 13.5 106 40.5
s39 63.5 39 109.5v340c0 19.333 6.5 35.666 19.5 48.999s29.167 20 48.5 20c18.667 0 34.5 -6.66699 47.5 -20s19.5 -29.666 19.5 -48.999v-330c0 -56 -11.667 -105.5 -35 -148.5s-56.166 -76.5 -98.499 -100.5s-91.166 -36 -146.499 -36s-104.166 12 -146.499 36z
M309.996 724.5c-9.33301 3.66699 -17.6699 10.5 -25.0029 20.5l-64 90c-9.33301 12.667 -14 26 -14 40c0 18 6.5 33.667 19.5 47s29.167 20 48.5 20c11.333 0 22.333 -2.66699 33 -8s19.334 -14.333 26.001 -27l52 -100c4 -8 6 -16.667 6 -26
c0 -16 -5.16699 -30.167 -15.5 -42.5s-24.166 -18.833 -41.499 -19.5c-7.33301 0 -15.666 1.83301 -24.999 5.5z" />
    <glyph glyph-name="Uacute" unicode="&#xda;" horiz-adv-x="700" 
d="M203.5 24c-42.333 24 -75.1699 57.5 -98.5029 100.5s-35 92.5 -35 148.5v330c0 19.333 6.5 35.666 19.5 48.999s29.167 20 48.5 20c18.667 0 34.5 -6.66699 47.5 -20s19.5 -29.666 19.5 -48.999v-340c0 -46 13 -82.5 39 -109.5s61.333 -40.5 106 -40.5s80 13.5 106 40.5
s39 63.5 39 109.5v340c0 19.333 6.5 35.666 19.5 48.999s29.167 20 48.5 20c18.667 0 34.5 -6.66699 47.5 -20s19.5 -29.666 19.5 -48.999v-330c0 -56 -11.667 -105.5 -35 -148.5s-56.166 -76.5 -98.499 -100.5s-91.166 -36 -146.499 -36s-104.166 12 -146.499 36z
M324.496 738.5c-10.333 12.333 -15.5039 26.499 -15.5039 42.499c0 9.33301 2 18 6 26l52 100c6.66699 12.667 15.334 21.667 26.001 27s21.667 8 33 8c19.333 0 35.5 -6.83301 48.5 -20.5s19.5 -29.167 19.5 -46.5c0 -15.333 -4.66699 -28.666 -14 -39.999l-64 -90
c-7.33301 -10 -15.666 -16.833 -24.999 -20.5s-17.666 -5.5 -24.999 -5.5c-17.333 0.666992 -31.166 7.16699 -41.499 19.5z" />
    <glyph glyph-name="Ucircumflex" unicode="&#xdb;" horiz-adv-x="700" 
d="M203.5 24c-42.333 24 -75.1699 57.5 -98.5029 100.5s-35 92.5 -35 148.5v330c0 19.333 6.5 35.666 19.5 48.999s29.167 20 48.5 20c18.667 0 34.5 -6.66699 47.5 -20s19.5 -29.666 19.5 -48.999v-340c0 -46 13 -82.5 39 -109.5s61.333 -40.5 106 -40.5s80 13.5 106 40.5
s39 63.5 39 109.5v340c0 19.333 6.5 35.666 19.5 48.999s29.167 20 48.5 20c18.667 0 34.5 -6.66699 47.5 -20s19.5 -29.666 19.5 -48.999v-330c0 -56 -11.667 -105.5 -35 -148.5s-56.166 -76.5 -98.499 -100.5s-91.166 -36 -146.499 -36s-104.166 12 -146.499 36z
M513.496 793.5c4.33301 -6.33301 6.50098 -13.5 6.50098 -21.5c0 -14 -4.83301 -25.833 -14.5 -35.5s-21.167 -14.5 -34.5 -14.5c-14 0 -27 5.33301 -39 16l-83 76l-83 -76c-12 -10.667 -25 -16 -39 -16c-13.333 0 -24.833 4.83301 -34.5 14.5s-14.5 21.5 -14.5 35.5
c0 8 2.16699 15.167 6.5 21.5s12.166 14.833 23.499 25.5l94 92c14.667 13.333 30.334 20 47.001 20c17.333 0 33 -6.66699 47 -20l94 -92c11.333 -10.667 19.166 -19.167 23.499 -25.5z" />
    <glyph glyph-name="Udieresis" unicode="&#xdc;" horiz-adv-x="700" 
d="M203.5 24c-42.333 24 -75.1699 57.5 -98.5029 100.5s-35 92.5 -35 148.5v330c0 19.333 6.5 35.666 19.5 48.999s29.167 20 48.5 20c18.667 0 34.5 -6.66699 47.5 -20s19.5 -29.666 19.5 -48.999v-340c0 -46 13 -82.5 39 -109.5s61.333 -40.5 106 -40.5s80 13.5 106 40.5
s39 63.5 39 109.5v340c0 19.333 6.5 35.666 19.5 48.999s29.167 20 48.5 20c18.667 0 34.5 -6.66699 47.5 -20s19.5 -29.666 19.5 -48.999v-330c0 -56 -11.667 -105.5 -35 -148.5s-56.166 -76.5 -98.499 -100.5s-91.166 -36 -146.499 -36s-104.166 12 -146.499 36z
M164.996 760.5c-16.667 15.667 -24.998 33.5 -24.998 53.5c0 22 8.16699 40.5 24.5 55.5s35.166 22.5 56.499 22.5c22 0 41 -7.5 57 -22.5s24 -33.5 24 -55.5c0 -20.667 -8 -38.667 -24 -54s-35 -23 -57 -23c-20.667 0 -39.334 7.83301 -56.001 23.5zM422.998 759.5
c-16.667 15.667 -24.998 33.5 -24.998 53.5c0 22 8.16699 40.667 24.5 56s35.166 23 56.499 23c22 0 41 -7.66699 57 -23s24 -34 24 -56c0 -20.667 -8 -38.667 -24 -54s-35 -23 -57 -23c-20.667 0 -39.334 7.83301 -56.001 23.5z" />
    <glyph glyph-name="Yacute" unicode="&#xdd;" horiz-adv-x="625" 
d="M570 563l-190.001 -312v-194c0 -19.333 -6.5 -35.666 -19.5 -48.999s-29.167 -20 -48.5 -20c-18.667 0 -34.5 6.66699 -47.5 20s-19.5 29.666 -19.5 48.999v194l-189 312c-10 14.667 -15 29.667 -15 45c0 18 6.33301 33.167 19 45.5s28.334 18.5 47.001 18.5
c14.667 0 27 -3.16699 37 -9.5s19 -16.5 27 -30.5l142 -246l142 246c7.33301 14 16.166 24.167 26.499 30.5s22.5 9.5 36.5 9.5c18.667 0 34.334 -6.16699 47.001 -18.5s19 -27.833 19 -46.5c0 -15.333 -4.66699 -30 -14 -44zM285.499 738.5
c-10.333 12.333 -15.5039 26.499 -15.5039 42.499c0 9.33301 2 18 6 26l52 100c6.66699 12.667 15.334 21.667 26.001 27s21.667 8 33 8c19.333 0 35.5 -6.83301 48.5 -20.5s19.5 -29.167 19.5 -46.5c0 -15.333 -4.66699 -28.666 -14 -39.999l-64 -90
c-7.33301 -10 -15.666 -16.833 -24.999 -20.5s-17.666 -5.5 -24.999 -5.5c-17.333 0.666992 -31.166 7.16699 -41.499 19.5z" />
    <glyph glyph-name="Thorn" unicode="&#xde;" horiz-adv-x="593" 
d="M190.5 652c13 -13.333 19.499 -29.667 19.499 -49v-44h114c46.667 0 87.834 -9 123.501 -27s63.5 -43.333 83.5 -76s30 -70 30 -112s-10 -79.333 -30 -112s-48 -58.167 -84 -76.5s-77 -27.5 -123 -27.5h-114v-71c0 -19.333 -6.5 -35.666 -19.5 -48.999
s-28.833 -20 -47.5 -20c-19.333 0 -35.5 6.66699 -48.5 20s-19.5 29.666 -19.5 48.999v546c0 20 6.33301 36.5 19 49.5s29 19.5 49 19.5c18.667 0 34.5 -6.66699 47.5 -20zM209.999 439.999v-194h113c30.667 0 55 8.83301 73 26.5s27 41.167 27 70.5s-9 52.833 -27 70.5
s-42.333 26.5 -73 26.5h-113z" />
    <glyph glyph-name="germandbls" unicode="&#xdf;" horiz-adv-x="650" 
d="M354.5 -0.5c-26.333 7.66699 -49.1641 18.499 -68.4971 32.499c-8.66699 5.33301 -15.5 12.333 -20.5 21s-7.5 17.667 -7.5 27c0 15.333 5.66699 28.5 17 39.5s24.666 16.5 39.999 16.5c7.33301 0 18 -3.33301 32 -10c32 -16 62 -24 90 -24c38 0 57 14 57 42
c0 8 -1.83301 14.833 -5.5 20.5s-10.667 12.167 -21 19.5s-27.5 18 -51.5 32c-37.333 22.667 -63.666 43.167 -78.999 61.5s-23 38.5 -23 60.5c0 19.333 6 43.666 18 72.999l34 87c9.33301 22.667 14 44.667 14 66c0 24 -6.83301 42.667 -20.5 56s-32.834 20 -57.501 20
c-32 0 -57 -11 -75 -33s-27 -52.333 -27 -91v-459c0 -19.333 -6.33301 -35.666 -19 -48.999s-28.334 -20 -47.001 -20s-34.5 6.66699 -47.5 20s-19.5 29.666 -19.5 48.999v465c0 75.333 21.167 134.166 63.5 176.499s101.166 63.5 176.499 63.5
c63.333 0 114 -14.667 152 -44s57 -68.666 57 -117.999c0 -27.333 -5.66699 -55 -17 -83l-39 -100c-8.66699 -20.667 -13 -36.667 -13 -48c0 -9.33301 1.83301 -17.166 5.5 -23.499s11 -13.666 22 -21.999s28.5 -19.833 52.5 -34.5c36 -22 61.333 -43.833 76 -65.5
s22 -47.5 22 -77.5c0 -48 -17 -86.333 -51 -115s-79.667 -43 -137 -43c-28.667 0 -56.167 3.83301 -82.5 11.5z" />
    <glyph glyph-name="agrave" unicode="&#xe0;" horiz-adv-x="545" 
d="M426 450.5c37.333 -37 56.001 -89.167 56.001 -156.5v-238c0 -19.333 -6.16699 -35.333 -18.5 -48s-27.833 -19 -46.5 -19c-16 0 -30 4.83301 -42 14.5s-19.667 22.167 -23 37.5c-37.333 -35.333 -85.666 -53 -144.999 -53c-50.667 0 -91.834 13.667 -123.501 41
s-47.5 63 -47.5 107c0 44.667 16.667 79.834 50 105.501s79 38.5 137 38.5h124v22c0 27.333 -8 48.666 -24 63.999s-39 23 -69 23c-34.667 0 -66.334 -12.333 -95.001 -37c-14 -10.667 -27.333 -16 -40 -16c-16.667 0 -30.5 5.33301 -41.5 16s-16.5 23.667 -16.5 39
c0 18.667 9.33301 36.667 28 54c20.667 19.333 46.667 34.333 78 45s65 16 101 16c68 0 120.667 -18.5 158 -55.5zM317.001 115c20 18.667 30 42.001 30 70.001v6h-106c-46 0 -69 -16.667 -69 -50c0 -16.667 6.33301 -29.834 19 -39.501s30 -14.5 52 -14.5
c29.333 0 54 9.33301 74 28zM221.501 570.501c-9 5.66699 -16.501 13.168 -22.501 22.501l-62 103c-7.33301 12 -11 24.333 -11 37c0 18.667 6.33301 34.667 19 48s28.667 20 48 20c12.667 0 24.834 -3.5 36.501 -10.5s20.167 -16.5 25.5 -28.5l47 -107
c5.33301 -12 8 -22 8 -30c1.33301 -16.667 -3.66699 -31.334 -15 -44.001s-26.333 -19 -45 -19c-10 0 -19.5 2.83301 -28.5 8.5z" />
    <glyph glyph-name="aacute" unicode="&#xe1;" horiz-adv-x="545" 
d="M426 450.5c37.333 -37 56.001 -89.167 56.001 -156.5v-238c0 -19.333 -6.16699 -35.333 -18.5 -48s-27.833 -19 -46.5 -19c-16 0 -30 4.83301 -42 14.5s-19.667 22.167 -23 37.5c-37.333 -35.333 -85.666 -53 -144.999 -53c-50.667 0 -91.834 13.667 -123.501 41
s-47.5 63 -47.5 107c0 44.667 16.667 79.834 50 105.501s79 38.5 137 38.5h124v22c0 27.333 -8 48.666 -24 63.999s-39 23 -69 23c-34.667 0 -66.334 -12.333 -95.001 -37c-14 -10.667 -27.333 -16 -40 -16c-16.667 0 -30.5 5.33301 -41.5 16s-16.5 23.667 -16.5 39
c0 18.667 9.33301 36.667 28 54c20.667 19.333 46.667 34.333 78 45s65 16 101 16c68 0 120.667 -18.5 158 -55.5zM317.001 115c20 18.667 30 42.001 30 70.001v6h-106c-46 0 -69 -16.667 -69 -50c0 -16.667 6.33301 -29.834 19 -39.501s30 -14.5 52 -14.5
c29.333 0 54 9.33301 74 28zM246.001 581.001c-11.333 12.667 -16.334 27.333 -15.001 44c0 8 2.66699 18 8 30l47 107c5.33301 12 13.833 21.5 25.5 28.5s23.834 10.5 36.501 10.5c19.333 0 35.333 -6.66699 48 -20s19 -29.333 19 -48c0 -12.667 -3.66699 -25 -11 -37
l-62 -103c-6 -9.33301 -13.5 -16.833 -22.5 -22.5s-18.5 -8.5 -28.5 -8.5c-18.667 0 -33.667 6.33301 -45 19z" />
    <glyph glyph-name="acircumflex" unicode="&#xe2;" horiz-adv-x="545" 
d="M426 450.5c37.333 -37 56.001 -89.167 56.001 -156.5v-238c0 -19.333 -6.16699 -35.333 -18.5 -48s-27.833 -19 -46.5 -19c-16 0 -30 4.83301 -42 14.5s-19.667 22.167 -23 37.5c-37.333 -35.333 -85.666 -53 -144.999 -53c-50.667 0 -91.834 13.667 -123.501 41
s-47.5 63 -47.5 107c0 44.667 16.667 79.834 50 105.501s79 38.5 137 38.5h124v22c0 27.333 -8 48.666 -24 63.999s-39 23 -69 23c-34.667 0 -66.334 -12.333 -95.001 -37c-14 -10.667 -27.333 -16 -40 -16c-16.667 0 -30.5 5.33301 -41.5 16s-16.5 23.667 -16.5 39
c0 18.667 9.33301 36.667 28 54c20.667 19.333 46.667 34.333 78 45s65 16 101 16c68 0 120.667 -18.5 158 -55.5zM317.001 115c20 18.667 30 42.001 30 70.001v6h-106c-46 0 -69 -16.667 -69 -50c0 -16.667 6.33301 -29.834 19 -39.501s30 -14.5 52 -14.5
c29.333 0 54 9.33301 74 28zM430.001 636.001c2.66699 -5.33301 3.99805 -12 3.99805 -20c0 -14.667 -5.16699 -26.667 -15.5 -36s-22.166 -14 -35.499 -14c-12.667 0 -24 5 -34 15l-78 82l-79 -82c-10 -10 -21.333 -15 -34 -15c-13.333 0 -25.166 4.66699 -35.499 14
s-15.5 21.333 -15.5 36c0 8 1.33301 14.667 4 20s7 11.666 13 18.999l96 115c13.333 15.333 30.333 23 51 23c20 0 36.667 -7.66699 50 -23l96 -115c6 -7.33301 10.333 -13.666 13 -18.999z" />
    <glyph glyph-name="atilde" unicode="&#xe3;" horiz-adv-x="545" 
d="M426 450.5c37.333 -37 56.001 -89.167 56.001 -156.5v-238c0 -19.333 -6.16699 -35.333 -18.5 -48s-27.833 -19 -46.5 -19c-16 0 -30 4.83301 -42 14.5s-19.667 22.167 -23 37.5c-37.333 -35.333 -85.666 -53 -144.999 -53c-50.667 0 -91.834 13.667 -123.501 41
s-47.5 63 -47.5 107c0 44.667 16.667 79.834 50 105.501s79 38.5 137 38.5h124v22c0 27.333 -8 48.666 -24 63.999s-39 23 -69 23c-34.667 0 -66.334 -12.333 -95.001 -37c-14 -10.667 -27.333 -16 -40 -16c-16.667 0 -30.5 5.33301 -41.5 16s-16.5 23.667 -16.5 39
c0 18.667 9.33301 36.667 28 54c20.667 19.333 46.667 34.333 78 45s65 16 101 16c68 0 120.667 -18.5 158 -55.5zM317.001 115c20 18.667 30 42.001 30 70.001v6h-106c-46 0 -69 -16.667 -69 -50c0 -16.667 6.33301 -29.834 19 -39.501s30 -14.5 52 -14.5
c29.333 0 54 9.33301 74 28zM278.001 602.001l-27.999 18c-2 1.33301 -6 4.16602 -12 8.49902s-11 7.33301 -15 9s-8 2.5 -12 2.5c-8 0 -14.333 -2.33301 -19 -7s-8.33398 -11.667 -11.001 -21c-3.33301 -12 -9.33301 -21.333 -18 -28s-19.334 -10 -32.001 -10
c-16 0 -28.833 5.33301 -38.5 16s-14.5 24.667 -14.5 42c0 38.667 10.833 69.834 32.5 93.501s49.5 35.5 83.5 35.5c24 0 47.667 -7.66699 71 -23l28 -18c10.667 -7.33301 18.834 -12.333 24.501 -15s11.5 -4 17.5 -4c7.33301 0 13 2.16699 17 6.5s7.33301 11.5 10 21.5
c2.66699 11.333 8.5 20.333 17.5 27s19.833 10 32.5 10c16.667 0 29.667 -5.33301 39 -16s14 -24.667 14 -42c0 -38 -10.5 -69 -31.5 -93s-47.833 -36 -80.5 -36c-26.667 0 -51.667 7.66699 -75 23z" />
    <glyph glyph-name="adieresis" unicode="&#xe4;" horiz-adv-x="545" 
d="M426 450.5c37.333 -37 56.001 -89.167 56.001 -156.5v-238c0 -19.333 -6.16699 -35.333 -18.5 -48s-27.833 -19 -46.5 -19c-16 0 -30 4.83301 -42 14.5s-19.667 22.167 -23 37.5c-37.333 -35.333 -85.666 -53 -144.999 -53c-50.667 0 -91.834 13.667 -123.501 41
s-47.5 63 -47.5 107c0 44.667 16.667 79.834 50 105.501s79 38.5 137 38.5h124v22c0 27.333 -8 48.666 -24 63.999s-39 23 -69 23c-34.667 0 -66.334 -12.333 -95.001 -37c-14 -10.667 -27.333 -16 -40 -16c-16.667 0 -30.5 5.33301 -41.5 16s-16.5 23.667 -16.5 39
c0 18.667 9.33301 36.667 28 54c20.667 19.333 46.667 34.333 78 45s65 16 101 16c68 0 120.667 -18.5 158 -55.5zM317.001 115c20 18.667 30 42.001 30 70.001v6h-106c-46 0 -69 -16.667 -69 -50c0 -16.667 6.33301 -29.834 19 -39.501s30 -14.5 52 -14.5
c29.333 0 54 9.33301 74 28zM209.501 731.501c15.667 -15 23.498 -33.833 23.498 -56.5c0 -20.667 -8 -38.667 -24 -54s-35 -23 -57 -23c-21.333 0 -40.166 7.83301 -56.499 23.5s-24.5 33.5 -24.5 53.5c0 22 8 40.667 24 56s35 23 57 23c22.667 0 41.834 -7.5 57.501 -22.5
zM446.999 731.501c15.333 -15 23.002 -33.833 23.002 -56.5c0 -21.333 -7.83301 -39.5 -23.5 -54.5s-34.834 -22.5 -57.501 -22.5c-20.667 0 -39.167 7.83301 -55.5 23.5s-24.5 33.5 -24.5 53.5c0 22 7.83301 40.667 23.5 56s34.5 23 56.5 23
c23.333 0 42.666 -7.5 57.999 -22.5z" />
    <glyph glyph-name="aring" unicode="&#xe5;" horiz-adv-x="545" 
d="M426 450.5c37.333 -37 56.001 -89.167 56.001 -156.5v-238c0 -19.333 -6.16699 -35.333 -18.5 -48s-27.833 -19 -46.5 -19c-16 0 -30 4.83301 -42 14.5s-19.667 22.167 -23 37.5c-37.333 -35.333 -85.666 -53 -144.999 -53c-50.667 0 -91.834 13.667 -123.501 41
s-47.5 63 -47.5 107c0 44.667 16.667 79.834 50 105.501s79 38.5 137 38.5h124v22c0 27.333 -8 48.666 -24 63.999s-39 23 -69 23c-34.667 0 -66.334 -12.333 -95.001 -37c-14 -10.667 -27.333 -16 -40 -16c-16.667 0 -30.5 5.33301 -41.5 16s-16.5 23.667 -16.5 39
c0 18.667 9.33301 36.667 28 54c20.667 19.333 46.667 34.333 78 45s65 16 101 16c68 0 120.667 -18.5 158 -55.5zM317.001 115c20 18.667 30 42.001 30 70.001v6h-106c-46 0 -69 -16.667 -69 -50c0 -16.667 6.33301 -29.834 19 -39.501s30 -14.5 52 -14.5
c29.333 0 54 9.33301 74 28zM361.001 760.501c24 -23 36 -52.167 36 -87.5s-12 -64.666 -36 -87.999s-54.333 -35 -91 -35c-36 0 -66 11.667 -90 35s-36 52.666 -36 87.999c0 34.667 12 63.667 36 87s54 35 90 35c36.667 0 67 -11.5 91 -34.5zM242.001 702.501
c-8 -7.66699 -12 -17.5 -12 -29.5s3.83301 -21.833 11.5 -29.5s17.5 -11.5 29.5 -11.5c11.333 0 21 4 29 12s12 17.667 12 29c0 12 -4 21.833 -12 29.5s-17.667 11.5 -29 11.5s-21 -3.83301 -29 -11.5z" />
    <glyph glyph-name="ae" unicode="&#xe6;" horiz-adv-x="878" 
d="M727 476c35.333 -20 62.9961 -47.501 82.9961 -82.501s30 -74.5 30 -118.5v-7c0 -21.333 -6.66699 -38.5 -20 -51.5s-31 -19.5 -53 -19.5h-282c9.33301 -30 25.833 -53 49.5 -69s53.5 -24 89.5 -24c40.667 0 74.667 9.66699 102 29c10 6 19.667 9 29 9
c15.333 0 28.333 -5.16699 39 -15.5s16 -23.166 16 -38.499c0 -11.333 -2.66699 -21.166 -8 -29.499s-14 -16.5 -26 -24.5c-44.667 -30.667 -96.667 -46 -156 -46c-44 0 -84 8.83301 -120 26.5s-65.333 42.167 -88 73.5c-19.333 -32 -45.666 -56.667 -78.999 -74
s-72 -26 -116 -26c-55.333 0 -99.333 13.5 -132 40.5s-49 63.167 -49 108.5c0 46 16.833 82.333 50.5 109s79.167 40 136.5 40h124v16c0 27.333 -8 48.666 -24 63.999s-38.667 23 -68 23c-34.667 0 -66.667 -12.333 -96 -37c-14 -10.667 -27.333 -16 -40 -16
c-16 0 -29.667 5.5 -41 16.5s-17 24.167 -17 39.5c0 18 9.66699 35.667 29 53c20.667 19.333 46.334 34.333 77.001 45s64.334 16 101.001 16c36 0 68 -6.33301 96 -19s50.667 -30.667 68 -54c22.667 23.333 48.834 41.333 78.501 54s62.167 19 97.5 19
c44 0 83.667 -10 119 -30zM523.496 366.999c-21.667 -20 -35.833 -47.001 -42.5 -81.001h228c0.666992 32.667 -8.83301 59.334 -28.5 80.001s-45.5 31 -77.5 31c-31.333 0 -57.833 -10 -79.5 -30zM316.997 115.498c20 18.333 30.001 41.166 30.001 68.499v13h-106
c-22.667 0 -39.834 -4.5 -51.501 -13.5s-17.5 -21.833 -17.5 -38.5c0 -17.333 6.33301 -31.166 19 -41.499s29.667 -15.5 51 -15.5c30 0 55 9.16699 75 27.5z" />
    <glyph glyph-name="ccedilla" unicode="&#xe7;" horiz-adv-x="552" 
d="M170 22.5c-40.667 23 -72.666 54.499 -95.999 94.499s-35 83.667 -35 131s11.667 90.833 35 130.5s55.333 70.834 96 93.501s85.334 34 134.001 34c41.333 0 80.166 -9 116.499 -27s64.166 -41.667 83.499 -71c8 -12.667 12 -24.667 12 -36
c0 -16.667 -5.83301 -30.834 -17.5 -42.501s-25.834 -17.5 -42.501 -17.5c-19.333 0 -34.666 7 -45.999 21c-28 33.333 -62.667 50 -104 50c-38 0 -69.167 -12.667 -93.5 -38s-36.5 -57.666 -36.5 -96.999c0 -40 12.167 -72.667 36.5 -98s55.5 -38 93.5 -38
c39.333 0 74 16.667 104 50c12 14 27.333 21 46 21c16.667 0 30.834 -5.83301 42.501 -17.5s17.5 -25.834 17.5 -42.501c0 -11.333 -3.66699 -22.666 -11 -33.999c-20.667 -32 -48.5 -56.833 -83.5 -74.5s-74.167 -26.5 -117.5 -26.5c-48.667 0 -93.334 11.5 -134.001 34.5z
M192.001 -183.001c-21.333 9.33301 -31.999 23.667 -31.999 43c0 13.333 4.66699 24.666 14 33.999s20.666 14 33.999 14l32 -1c17.333 0 31.333 3.33301 42 10s16 16.667 16 30c0 18 -7 36 -21 54c-1.33301 2 -4.33301 6 -9 12s-8.16699 11.667 -10.5 17
s-3.5 10.333 -3.5 15c0 10.667 4 19.167 12 25.5s18 9.5 30 9.5c16.667 0 34 -7.5 52 -22.5s33 -33.667 45 -56s18 -43.833 18 -64.5c0 -39.333 -14 -70.666 -42 -93.999s-65.333 -35 -112 -35c-27.333 0 -49 3 -65 9z" />
    <glyph glyph-name="egrave" unicode="&#xe8;" horiz-adv-x="569" 
d="M416.5 476c35.667 -20 63.665 -47.6689 83.998 -83.002s30.5 -75 30.5 -119v-3c0 -20.667 -6.83301 -37.334 -20.5 -50.001s-31.5 -19 -53.5 -19h-282c8 -31.333 24 -55.5 48 -72.5s54.333 -25.5 91 -25.5c38 0 72.333 9.66699 103 29c10 6 19.667 9 29 9
c15.333 0 28.333 -5.16699 39 -15.5s16 -23.166 16 -38.499c0 -11.333 -2.66699 -21.166 -8 -29.499s-14 -16.5 -26 -24.5c-46 -30.667 -98.333 -46 -157 -46c-51.333 0 -97.666 11.333 -138.999 34s-73.666 53.667 -96.999 93s-35 83.333 -35 132
c0 48 11.167 91.833 33.5 131.5s53.166 70.834 92.499 93.501s83 34 131 34c44.667 0 84.834 -10 120.501 -30zM217.498 369.998c-21 -18 -35.1689 -42.333 -42.502 -73h225c-1.33301 30 -11.666 54.167 -30.999 72.5s-44.666 27.5 -75.999 27.5
c-29.333 0 -54.5 -9 -75.5 -27zM248.496 570.498c-9 5.66699 -16.501 13.168 -22.501 22.501l-62 103c-7.33301 12 -11 24.333 -11 37c0 18.667 6.33301 34.667 19 48s28.667 20 48 20c12.667 0 24.834 -3.5 36.501 -10.5s20.167 -16.5 25.5 -28.5l47 -107
c5.33301 -12 8 -22 8 -30c1.33301 -16.667 -3.66699 -31.334 -15 -44.001s-26.333 -19 -45 -19c-10 0 -19.5 2.83301 -28.5 8.5z" />
    <glyph glyph-name="eacute" unicode="&#xe9;" horiz-adv-x="569" 
d="M416.5 476c35.667 -20 63.665 -47.6689 83.998 -83.002s30.5 -75 30.5 -119v-3c0 -20.667 -6.83301 -37.334 -20.5 -50.001s-31.5 -19 -53.5 -19h-282c8 -31.333 24 -55.5 48 -72.5s54.333 -25.5 91 -25.5c38 0 72.333 9.66699 103 29c10 6 19.667 9 29 9
c15.333 0 28.333 -5.16699 39 -15.5s16 -23.166 16 -38.499c0 -11.333 -2.66699 -21.166 -8 -29.499s-14 -16.5 -26 -24.5c-46 -30.667 -98.333 -46 -157 -46c-51.333 0 -97.666 11.333 -138.999 34s-73.666 53.667 -96.999 93s-35 83.333 -35 132
c0 48 11.167 91.833 33.5 131.5s53.166 70.834 92.499 93.501s83 34 131 34c44.667 0 84.834 -10 120.501 -30zM217.498 369.998c-21 -18 -35.1689 -42.333 -42.502 -73h225c-1.33301 30 -11.666 54.167 -30.999 72.5s-44.666 27.5 -75.999 27.5
c-29.333 0 -54.5 -9 -75.5 -27zM272.996 580.998c-11.333 12.667 -16.334 27.333 -15.001 44c0 8 2.66699 18 8 30l47 107c5.33301 12 13.833 21.5 25.5 28.5s23.834 10.5 36.501 10.5c19.333 0 35.333 -6.66699 48 -20s19 -29.333 19 -48c0 -12.667 -3.66699 -25 -11 -37
l-62 -103c-6 -9.33301 -13.5 -16.833 -22.5 -22.5s-18.5 -8.5 -28.5 -8.5c-18.667 0 -33.667 6.33301 -45 19z" />
    <glyph glyph-name="ecircumflex" unicode="&#xea;" horiz-adv-x="569" 
d="M416.5 476c35.667 -20 63.665 -47.6689 83.998 -83.002s30.5 -75 30.5 -119v-3c0 -20.667 -6.83301 -37.334 -20.5 -50.001s-31.5 -19 -53.5 -19h-282c8 -31.333 24 -55.5 48 -72.5s54.333 -25.5 91 -25.5c38 0 72.333 9.66699 103 29c10 6 19.667 9 29 9
c15.333 0 28.333 -5.16699 39 -15.5s16 -23.166 16 -38.499c0 -11.333 -2.66699 -21.166 -8 -29.499s-14 -16.5 -26 -24.5c-46 -30.667 -98.333 -46 -157 -46c-51.333 0 -97.666 11.333 -138.999 34s-73.666 53.667 -96.999 93s-35 83.333 -35 132
c0 48 11.167 91.833 33.5 131.5s53.166 70.834 92.499 93.501s83 34 131 34c44.667 0 84.834 -10 120.501 -30zM217.498 369.998c-21 -18 -35.1689 -42.333 -42.502 -73h225c-1.33301 30 -11.666 54.167 -30.999 72.5s-44.666 27.5 -75.999 27.5
c-29.333 0 -54.5 -9 -75.5 -27zM456.996 635.998c2.66699 -5.33301 3.99805 -12 3.99805 -20c0 -14.667 -5.16699 -26.667 -15.5 -36s-22.166 -14 -35.499 -14c-12.667 0 -24 5 -34 15l-78 82l-79 -82c-10 -10 -21.333 -15 -34 -15c-13.333 0 -25.166 4.66699 -35.499 14
s-15.5 21.333 -15.5 36c0 8 1.33301 14.667 4 20s7 11.666 13 18.999l96 115c13.333 15.333 30.333 23 51 23c20 0 36.667 -7.66699 50 -23l96 -115c6 -7.33301 10.333 -13.666 13 -18.999z" />
    <glyph glyph-name="edieresis" unicode="&#xeb;" horiz-adv-x="569" 
d="M416.5 476c35.667 -20 63.665 -47.6689 83.998 -83.002s30.5 -75 30.5 -119v-3c0 -20.667 -6.83301 -37.334 -20.5 -50.001s-31.5 -19 -53.5 -19h-282c8 -31.333 24 -55.5 48 -72.5s54.333 -25.5 91 -25.5c38 0 72.333 9.66699 103 29c10 6 19.667 9 29 9
c15.333 0 28.333 -5.16699 39 -15.5s16 -23.166 16 -38.499c0 -11.333 -2.66699 -21.166 -8 -29.499s-14 -16.5 -26 -24.5c-46 -30.667 -98.333 -46 -157 -46c-51.333 0 -97.666 11.333 -138.999 34s-73.666 53.667 -96.999 93s-35 83.333 -35 132
c0 48 11.167 91.833 33.5 131.5s53.166 70.834 92.499 93.501s83 34 131 34c44.667 0 84.834 -10 120.501 -30zM217.498 369.998c-21 -18 -35.1689 -42.333 -42.502 -73h225c-1.33301 30 -11.666 54.167 -30.999 72.5s-44.666 27.5 -75.999 27.5
c-29.333 0 -54.5 -9 -75.5 -27zM236.496 731.498c15.667 -15 23.498 -33.833 23.498 -56.5c0 -20.667 -8 -38.667 -24 -54s-35 -23 -57 -23c-21.333 0 -40.166 7.83301 -56.499 23.5s-24.5 33.5 -24.5 53.5c0 22 8 40.667 24 56s35 23 57 23
c22.667 0 41.834 -7.5 57.501 -22.5zM473.994 731.498c15.333 -15 23.002 -33.833 23.002 -56.5c0 -21.333 -7.83301 -39.5 -23.5 -54.5s-34.834 -22.5 -57.501 -22.5c-20.667 0 -39.167 7.83301 -55.5 23.5s-24.5 33.5 -24.5 53.5c0 22 7.83301 40.667 23.5 56
s34.5 23 56.5 23c23.333 0 42.666 -7.5 57.999 -22.5z" />
    <glyph glyph-name="igrave" unicode="&#xec;" horiz-adv-x="269" 
d="M86.5 8c-13 13.333 -19.5 29.666 -19.5 48.999v381c0 19.333 6.5 35.5 19.5 48.5s29.167 19.5 48.5 19.5s35.333 -6.5 48 -19.5s19 -29.167 19 -48.5v-381c0 -19.333 -6.5 -35.666 -19.5 -48.999s-29.167 -20 -48.5 -20c-18.667 0 -34.5 6.66699 -47.5 20zM85.5 582.5
c-7.66699 7.66699 -13.167 17.166 -16.5 28.499l-33 115c-2 8 -3 15.333 -3 22c0 18.667 6.5 34.5 19.5 47.5s28.5 19.5 46.5 19.5c8 0 14 -0.666992 18 -2c12 -3.33301 22.833 -10 32.5 -20s15.5 -21.333 17.5 -34l18 -115c0.666992 -4 1 -10 1 -18
c0 -16.667 -5.5 -31 -16.5 -43s-25.167 -18 -42.5 -18c-3.33301 0 -8.33301 0.666992 -15 2c-10 2.66699 -18.833 7.83398 -26.5 15.501z" />
    <glyph glyph-name="iacute" unicode="&#xed;" horiz-adv-x="269" 
d="M86.5 8c-13 13.333 -19.5 29.666 -19.5 48.999v381c0 19.333 6.5 35.5 19.5 48.5s29.167 19.5 48.5 19.5s35.333 -6.5 48 -19.5s19 -29.167 19 -48.5v-381c0 -19.333 -6.5 -35.666 -19.5 -48.999s-29.167 -20 -48.5 -20c-18.667 0 -34.5 6.66699 -47.5 20zM108.5 582.5
c-11 10.333 -17.1689 22.834 -18.502 37.501c-0.666992 2 -1 5 -1 9c0 0.666992 1 8 3 22l28 114c4 14.667 12.5 26.667 25.5 36s26.167 14 39.5 14c16.667 0 31.334 -5.33301 44.001 -16s20.334 -24.334 23.001 -41.001c0.666992 -2 1 -5.66699 1 -11
c0 -6.66699 -1.66699 -15.667 -5 -27l-43 -112c-5.33301 -12 -13 -21.833 -23 -29.5s-21 -11.5 -33 -11.5c-16 0 -29.5 5.16699 -40.5 15.5z" />
    <glyph glyph-name="icircumflex" unicode="&#xee;" horiz-adv-x="269" 
d="M86.5 8c-13 13.333 -19.5 29.666 -19.5 48.999v381c0 19.333 6.5 35.5 19.5 48.5s29.167 19.5 48.5 19.5s35.333 -6.5 48 -19.5s19 -29.167 19 -48.5v-381c0 -19.333 -6.5 -35.666 -19.5 -48.999s-29.167 -20 -48.5 -20c-18.667 0 -34.5 6.66699 -47.5 20zM294 636
c2.66699 -5.33301 3.99805 -12 3.99805 -20c0 -14.667 -5.16699 -26.667 -15.5 -36s-22.166 -14 -35.499 -14c-12.667 0 -24 5 -34 15l-78 82l-79 -82c-10 -10 -21.333 -15 -34 -15c-13.333 0 -25.166 4.66699 -35.499 14s-15.5 21.333 -15.5 36c0 8 1.33301 14.667 4 20
s7 11.666 13 18.999l96 115c13.333 15.333 30.333 23 51 23c20 0 36.667 -7.66699 50 -23l96 -115c6 -7.33301 10.333 -13.666 13 -18.999z" />
    <glyph glyph-name="idieresis" unicode="&#xef;" horiz-adv-x="269" 
d="M86.5 8c-13 13.333 -19.5 29.666 -19.5 48.999v381c0 19.333 6.5 35.5 19.5 48.5s29.167 19.5 48.5 19.5s35.333 -6.5 48 -19.5s19 -29.167 19 -48.5v-381c0 -19.333 -6.5 -35.666 -19.5 -48.999s-29.167 -20 -48.5 -20c-18.667 0 -34.5 6.66699 -47.5 20zM-32 621
c-16 15.333 -24.002 33.667 -24.002 55s7.83301 39.666 23.5 54.999s34.834 23 57.501 23s41.834 -7.5 57.501 -22.5s23.5 -33.5 23.5 -55.5c0 -21.333 -8 -39.666 -24 -54.999s-35 -23 -57 -23s-41 7.66699 -57 23zM187.998 621.001c-16 15.333 -24.001 33.667 -24.001 55
s7.83301 39.666 23.5 54.999s34.834 23 57.501 23s41.667 -7.5 57 -22.5s23 -33.5 23 -55.5c0 -21.333 -7.83301 -39.666 -23.5 -54.999s-34.5 -23 -56.5 -23s-41 7.66699 -57 23z" />
    <glyph glyph-name="eth" unicode="&#xf0;" horiz-adv-x="573" 
d="M508 338c17.333 -37.333 26 -74.332 26 -110.999c0 -45.333 -10.667 -86.166 -32 -122.499s-50.666 -64.833 -87.999 -85.5s-79.333 -31 -126 -31c-47.333 0 -90 10 -128 30s-67.667 47.667 -89 83s-32 75 -32 119c0 42 10.167 80.167 30.5 114.5
s48.166 61.333 83.499 81s74.666 29.5 117.999 29.5h10l-62 84l-99 -49c-12 -5.33301 -22 -8 -30 -8c-14 0 -26.167 5.16699 -36.5 15.5s-15.5 22.833 -15.5 37.5c0 10 2.66699 19.167 8 27.5s12.333 14.833 21 19.5l88 44l-32 44c-8.66699 14 -13 27 -13 39
c0 17.333 6.33301 32.166 19 44.499s27.334 18.5 44.001 18.5c21.333 0 39 -10 53 -30l45 -59l118 58c10 5.33301 20 8 30 8c14 0 26.167 -5.16699 36.5 -15.5s15.5 -22.833 15.5 -37.5c0 -9.33301 -2.66699 -18.333 -8 -27s-12.333 -15.334 -21 -20.001l-106 -52l80 -105
c44 -58.667 74.667 -106.667 92 -144zM366.5 140.001c21 21.333 31.5 48.333 31.5 81s-10.5 59.5 -31.5 80.5s-47.833 31.5 -80.5 31.5s-59.334 -10.5 -80.001 -31.5s-31 -48.167 -31 -81.5c0 -32.667 10.333 -59.5 31 -80.5s47.334 -31.5 80.001 -31.5s59.5 10.667 80.5 32
z" />
    <glyph glyph-name="ntilde" unicode="&#xf1;" horiz-adv-x="585" 
d="M471.5 452c33.667 -36 50.499 -84.333 50.499 -145v-250c0 -20 -6.33301 -36.5 -19 -49.5s-28.667 -19.5 -48 -19.5c-18.667 0 -34.5 6.66699 -47.5 20s-19.5 29.666 -19.5 48.999v232c0 28.667 -8.5 51.834 -25.5 69.501s-39.167 26.5 -66.5 26.5s-49.833 -9 -67.5 -27
s-26.5 -41 -26.5 -69v-232c0 -20 -6.33301 -36.5 -19 -49.5s-28.667 -19.5 -48 -19.5s-35.5 6.66699 -48.5 20s-19.5 29.666 -19.5 48.999v381c0 19.333 6.33301 35.5 19 48.5s28.667 19.5 48 19.5c15.333 0 28.833 -4.66699 40.5 -14s19.167 -21.666 22.5 -36.999
c18 16 38.833 28.5 62.5 37.5s49.167 13.5 76.5 13.5c56.667 0 101.834 -18 135.501 -54zM287.999 602l-27.999 18c-2 1.33301 -6 4.16602 -12 8.49902s-11 7.33301 -15 9s-8 2.5 -12 2.5c-8 0 -14.333 -2.33301 -19 -7s-8.33398 -11.667 -11.001 -21
c-3.33301 -12 -9.33301 -21.333 -18 -28s-19.334 -10 -32.001 -10c-16 0 -28.833 5.33301 -38.5 16s-14.5 24.667 -14.5 42c0 38.667 10.833 69.834 32.5 93.501s49.5 35.5 83.5 35.5c24 0 47.667 -7.66699 71 -23l28 -18c10.667 -7.33301 18.834 -12.333 24.501 -15
s11.5 -4 17.5 -4c7.33301 0 13 2.16699 17 6.5s7.33301 11.5 10 21.5c2.66699 11.333 8.5 20.333 17.5 27s19.833 10 32.5 10c16.667 0 29.667 -5.33301 39 -16s14 -24.667 14 -42c0 -38 -10.5 -69 -31.5 -93s-47.833 -36 -80.5 -36c-26.667 0 -51.667 7.66699 -75 23z" />
    <glyph glyph-name="ograve" unicode="&#xf2;" horiz-adv-x="608" 
d="M438 471.5c40.667 -23 72.8301 -54.1689 96.4971 -93.502s35.5 -82.666 35.5 -129.999s-11.833 -90.833 -35.5 -130.5s-56 -71 -97 -94s-85.833 -34.5 -134.5 -34.5s-93.167 11.5 -133.5 34.5s-72.166 54.333 -95.499 94s-35 83.167 -35 130.5s11.667 90.833 35 130.5
s55.333 70.834 96 93.501s85.334 34 134.001 34s93.334 -11.5 134.001 -34.5zM211.996 344.498c-24 -25.667 -36 -58.167 -36 -97.5c0 -38.667 12 -70.667 36 -96s54.667 -38 92 -38c36.667 0 67.167 12.667 91.5 38s36.5 57.333 36.5 96s-12.167 71 -36.5 97
s-54.833 39 -91.5 39c-37.333 0 -68 -12.833 -92 -38.5zM254.496 570.498c-9 5.66699 -16.501 13.168 -22.501 22.501l-62 103c-7.33301 12 -11 24.333 -11 37c0 18.667 6.33301 34.667 19 48s28.667 20 48 20c12.667 0 24.834 -3.5 36.501 -10.5s20.167 -16.5 25.5 -28.5
l47 -107c5.33301 -12 8 -22 8 -30c1.33301 -16.667 -3.66699 -31.334 -15 -44.001s-26.333 -19 -45 -19c-10 0 -19.5 2.83301 -28.5 8.5z" />
    <glyph glyph-name="oacute" unicode="&#xf3;" horiz-adv-x="608" 
d="M438 471.5c40.667 -23 72.8301 -54.1689 96.4971 -93.502s35.5 -82.666 35.5 -129.999s-11.833 -90.833 -35.5 -130.5s-56 -71 -97 -94s-85.833 -34.5 -134.5 -34.5s-93.167 11.5 -133.5 34.5s-72.166 54.333 -95.499 94s-35 83.167 -35 130.5s11.667 90.833 35 130.5
s55.333 70.834 96 93.501s85.334 34 134.001 34s93.334 -11.5 134.001 -34.5zM211.996 344.498c-24 -25.667 -36 -58.167 -36 -97.5c0 -38.667 12 -70.667 36 -96s54.667 -38 92 -38c36.667 0 67.167 12.667 91.5 38s36.5 57.333 36.5 96s-12.167 71 -36.5 97
s-54.833 39 -91.5 39c-37.333 0 -68 -12.833 -92 -38.5zM278.996 580.998c-11.333 12.667 -16.334 27.333 -15.001 44c0 8 2.66699 18 8 30l47 107c5.33301 12 13.833 21.5 25.5 28.5s23.834 10.5 36.501 10.5c19.333 0 35.333 -6.66699 48 -20s19 -29.333 19 -48
c0 -12.667 -3.66699 -25 -11 -37l-62 -103c-6 -9.33301 -13.5 -16.833 -22.5 -22.5s-18.5 -8.5 -28.5 -8.5c-18.667 0 -33.667 6.33301 -45 19z" />
    <glyph glyph-name="ocircumflex" unicode="&#xf4;" horiz-adv-x="608" 
d="M438 471.5c40.667 -23 72.8301 -54.1689 96.4971 -93.502s35.5 -82.666 35.5 -129.999s-11.833 -90.833 -35.5 -130.5s-56 -71 -97 -94s-85.833 -34.5 -134.5 -34.5s-93.167 11.5 -133.5 34.5s-72.166 54.333 -95.499 94s-35 83.167 -35 130.5s11.667 90.833 35 130.5
s55.333 70.834 96 93.501s85.334 34 134.001 34s93.334 -11.5 134.001 -34.5zM211.996 344.498c-24 -25.667 -36 -58.167 -36 -97.5c0 -38.667 12 -70.667 36 -96s54.667 -38 92 -38c36.667 0 67.167 12.667 91.5 38s36.5 57.333 36.5 96s-12.167 71 -36.5 97
s-54.833 39 -91.5 39c-37.333 0 -68 -12.833 -92 -38.5zM462.996 635.998c2.66699 -5.33301 3.99805 -12 3.99805 -20c0 -14.667 -5.16699 -26.667 -15.5 -36s-22.166 -14 -35.499 -14c-12.667 0 -24 5 -34 15l-78 82l-79 -82c-10 -10 -21.333 -15 -34 -15
c-13.333 0 -25.166 4.66699 -35.499 14s-15.5 21.333 -15.5 36c0 8 1.33301 14.667 4 20s7 11.666 13 18.999l96 115c13.333 15.333 30.333 23 51 23c20 0 36.667 -7.66699 50 -23l96 -115c6 -7.33301 10.333 -13.666 13 -18.999z" />
    <glyph glyph-name="otilde" unicode="&#xf5;" horiz-adv-x="608" 
d="M438 471.5c40.667 -23 72.8301 -54.1689 96.4971 -93.502s35.5 -82.666 35.5 -129.999s-11.833 -90.833 -35.5 -130.5s-56 -71 -97 -94s-85.833 -34.5 -134.5 -34.5s-93.167 11.5 -133.5 34.5s-72.166 54.333 -95.499 94s-35 83.167 -35 130.5s11.667 90.833 35 130.5
s55.333 70.834 96 93.501s85.334 34 134.001 34s93.334 -11.5 134.001 -34.5zM211.996 344.498c-24 -25.667 -36 -58.167 -36 -97.5c0 -38.667 12 -70.667 36 -96s54.667 -38 92 -38c36.667 0 67.167 12.667 91.5 38s36.5 57.333 36.5 96s-12.167 71 -36.5 97
s-54.833 39 -91.5 39c-37.333 0 -68 -12.833 -92 -38.5zM310.996 601.998l-27.999 18c-2 1.33301 -6 4.16602 -12 8.49902s-11 7.33301 -15 9s-8 2.5 -12 2.5c-8 0 -14.333 -2.33301 -19 -7s-8.33398 -11.667 -11.001 -21c-3.33301 -12 -9.33301 -21.333 -18 -28
s-19.334 -10 -32.001 -10c-16 0 -28.833 5.33301 -38.5 16s-14.5 24.667 -14.5 42c0 38.667 10.833 69.834 32.5 93.501s49.5 35.5 83.5 35.5c24 0 47.667 -7.66699 71 -23l28 -18c10.667 -7.33301 18.834 -12.333 24.501 -15s11.5 -4 17.5 -4c7.33301 0 13 2.16699 17 6.5
s7.33301 11.5 10 21.5c2.66699 11.333 8.5 20.333 17.5 27s19.833 10 32.5 10c16.667 0 29.667 -5.33301 39 -16s14 -24.667 14 -42c0 -38 -10.5 -69 -31.5 -93s-47.833 -36 -80.5 -36c-26.667 0 -51.667 7.66699 -75 23z" />
    <glyph glyph-name="odieresis" unicode="&#xf6;" horiz-adv-x="608" 
d="M438 471.5c40.667 -23 72.8301 -54.1689 96.4971 -93.502s35.5 -82.666 35.5 -129.999s-11.833 -90.833 -35.5 -130.5s-56 -71 -97 -94s-85.833 -34.5 -134.5 -34.5s-93.167 11.5 -133.5 34.5s-72.166 54.333 -95.499 94s-35 83.167 -35 130.5s11.667 90.833 35 130.5
s55.333 70.834 96 93.501s85.334 34 134.001 34s93.334 -11.5 134.001 -34.5zM211.996 344.498c-24 -25.667 -36 -58.167 -36 -97.5c0 -38.667 12 -70.667 36 -96s54.667 -38 92 -38c36.667 0 67.167 12.667 91.5 38s36.5 57.333 36.5 96s-12.167 71 -36.5 97
s-54.833 39 -91.5 39c-37.333 0 -68 -12.833 -92 -38.5zM242.496 731.498c15.667 -15 23.498 -33.833 23.498 -56.5c0 -20.667 -8 -38.667 -24 -54s-35 -23 -57 -23c-21.333 0 -40.166 7.83301 -56.499 23.5s-24.5 33.5 -24.5 53.5c0 22 8 40.667 24 56s35 23 57 23
c22.667 0 41.834 -7.5 57.501 -22.5zM479.994 731.498c15.333 -15 23.002 -33.833 23.002 -56.5c0 -21.333 -7.83301 -39.5 -23.5 -54.5s-34.834 -22.5 -57.501 -22.5c-20.667 0 -39.167 7.83301 -55.5 23.5s-24.5 33.5 -24.5 53.5c0 22 7.83301 40.667 23.5 56
s34.5 23 56.5 23c23.333 0 42.666 -7.5 57.999 -22.5z" />
    <glyph glyph-name="divide" unicode="&#xf7;" 
d="M336 562c16 -14.667 24 -32.667 24 -54c0 -22 -8 -40.5 -24 -55.5s-35 -22.5 -57 -22.5c-22.667 0 -42 7.5 -58 22.5s-24 33.5 -24 55.5c0 21.333 8 39.333 24 54s35.333 22 58 22c22 0 41 -7.33301 57 -22zM506.5 361.5c11 -11 16.5 -24.833 16.5 -41.5
c0 -16 -5.5 -29.5 -16.5 -40.5s-24.833 -16.5 -41.5 -16.5h-371c-16.667 0 -30.5 5.5 -41.5 16.5s-16.5 24.5 -16.5 40.5c0 16.667 5.5 30.5 16.5 41.5s24.833 16.5 41.5 16.5h371c16.667 0 30.5 -5.5 41.5 -16.5zM336 187c16 -14.667 24 -33 24 -55
c0 -21.333 -8 -39.5 -24 -54.5s-35 -22.5 -57 -22.5c-22.667 0 -42 7.5 -58 22.5s-24 33.167 -24 54.5c0 22 8 40.333 24 55s35.333 22 58 22c22 0 41 -7.33301 57 -22z" />
    <glyph glyph-name="oslash" unicode="&#xf8;" horiz-adv-x="612" 
d="M529 390c28.667 -43.333 42.999 -91.001 42.999 -143.001c0 -46.667 -11.833 -89.834 -35.5 -129.501s-56 -71.167 -97 -94.5s-85.833 -35 -134.5 -35c-52 0 -98.667 13 -140 39l-28 -28c-13.333 -14 -28.333 -21 -45 -21c-15.333 0 -28.666 5.5 -39.999 16.5
s-17 24.5 -17 40.5c0 15.333 7.33301 30 22 44l26 26c-28 42.667 -42 90 -42 142c0 48 11.667 91.833 35 131.5s55.333 70.834 96 93.501s85.334 34 134.001 34c50 0 96.667 -12.667 140 -38l28 28c13.333 13.333 27.666 20 42.999 20c16 0 29.667 -5.5 41 -16.5
s17 -24.5 17 -40.5c0 -15.333 -6.66699 -29.666 -20 -42.999zM205.499 351.499c-25.667 -27 -38.499 -61.833 -38.499 -104.5c0 -23.333 4 -44 12 -62l192 192c-18.667 10 -40.334 15 -65.001 15c-41.333 0 -74.833 -13.5 -100.5 -40.5zM405.5 142.999
c26.333 27.333 39.5 62 39.5 104c0 23.333 -4 44 -12 62l-193 -192c19.333 -10 41 -15 65 -15c40.667 0 74.167 13.667 100.5 41z" />
    <glyph glyph-name="ugrave" unicode="&#xf9;" horiz-adv-x="580" 
d="M172 17c-34.667 19.333 -61.667 46.5 -81 81.5s-29 74.833 -29 119.5v220c0 19.333 6.5 35.5 19.5 48.5s29.167 19.5 48.5 19.5s35.333 -6.5 48 -19.5s19 -29.167 19 -48.5v-231c0 -27.333 8.83301 -50 26.5 -68s40.167 -27 67.5 -27c26.667 0 48.667 9 66 27
s26 40.667 26 68v231c0 19.333 6.33301 35.5 19 48.5s29 19.5 49 19.5c19.333 0 35.333 -6.5 48 -19.5s19 -29.167 19 -48.5v-220c0 -44.667 -9.66699 -84.5 -29 -119.5s-46.166 -62.167 -80.499 -81.5s-73.5 -29 -117.5 -29c-44.667 0 -84.334 9.66699 -119.001 29z
M240.5 570.5c-9 5.66699 -16.501 13.168 -22.501 22.501l-62 103c-7.33301 12 -11 24.333 -11 37c0 18.667 6.33301 34.667 19 48s28.667 20 48 20c12.667 0 24.834 -3.5 36.501 -10.5s20.167 -16.5 25.5 -28.5l47 -107c5.33301 -12 8 -22 8 -30
c1.33301 -16.667 -3.66699 -31.334 -15 -44.001s-26.333 -19 -45 -19c-10 0 -19.5 2.83301 -28.5 8.5z" />
    <glyph glyph-name="uacute" unicode="&#xfa;" horiz-adv-x="580" 
d="M172 17c-34.667 19.333 -61.667 46.5 -81 81.5s-29 74.833 -29 119.5v220c0 19.333 6.5 35.5 19.5 48.5s29.167 19.5 48.5 19.5s35.333 -6.5 48 -19.5s19 -29.167 19 -48.5v-231c0 -27.333 8.83301 -50 26.5 -68s40.167 -27 67.5 -27c26.667 0 48.667 9 66 27
s26 40.667 26 68v231c0 19.333 6.33301 35.5 19 48.5s29 19.5 49 19.5c19.333 0 35.333 -6.5 48 -19.5s19 -29.167 19 -48.5v-220c0 -44.667 -9.66699 -84.5 -29 -119.5s-46.166 -62.167 -80.499 -81.5s-73.5 -29 -117.5 -29c-44.667 0 -84.334 9.66699 -119.001 29z
M265 581c-11.333 12.667 -16.334 27.333 -15.001 44c0 8 2.66699 18 8 30l47 107c5.33301 12 13.833 21.5 25.5 28.5s23.834 10.5 36.501 10.5c19.333 0 35.333 -6.66699 48 -20s19 -29.333 19 -48c0 -12.667 -3.66699 -25 -11 -37l-62 -103
c-6 -9.33301 -13.5 -16.833 -22.5 -22.5s-18.5 -8.5 -28.5 -8.5c-18.667 0 -33.667 6.33301 -45 19z" />
    <glyph glyph-name="ucircumflex" unicode="&#xfb;" horiz-adv-x="580" 
d="M172 17c-34.667 19.333 -61.667 46.5 -81 81.5s-29 74.833 -29 119.5v220c0 19.333 6.5 35.5 19.5 48.5s29.167 19.5 48.5 19.5s35.333 -6.5 48 -19.5s19 -29.167 19 -48.5v-231c0 -27.333 8.83301 -50 26.5 -68s40.167 -27 67.5 -27c26.667 0 48.667 9 66 27
s26 40.667 26 68v231c0 19.333 6.33301 35.5 19 48.5s29 19.5 49 19.5c19.333 0 35.333 -6.5 48 -19.5s19 -29.167 19 -48.5v-220c0 -44.667 -9.66699 -84.5 -29 -119.5s-46.166 -62.167 -80.499 -81.5s-73.5 -29 -117.5 -29c-44.667 0 -84.334 9.66699 -119.001 29z
M449 636c2.66699 -5.33301 3.99805 -12 3.99805 -20c0 -14.667 -5.16699 -26.667 -15.5 -36s-22.166 -14 -35.499 -14c-12.667 0 -24 5 -34 15l-78 82l-79 -82c-10 -10 -21.333 -15 -34 -15c-13.333 0 -25.166 4.66699 -35.499 14s-15.5 21.333 -15.5 36
c0 8 1.33301 14.667 4 20s7 11.666 13 18.999l96 115c13.333 15.333 30.333 23 51 23c20 0 36.667 -7.66699 50 -23l96 -115c6 -7.33301 10.333 -13.666 13 -18.999z" />
    <glyph glyph-name="udieresis" unicode="&#xfc;" horiz-adv-x="580" 
d="M172 17c-34.667 19.333 -61.667 46.5 -81 81.5s-29 74.833 -29 119.5v220c0 19.333 6.5 35.5 19.5 48.5s29.167 19.5 48.5 19.5s35.333 -6.5 48 -19.5s19 -29.167 19 -48.5v-231c0 -27.333 8.83301 -50 26.5 -68s40.167 -27 67.5 -27c26.667 0 48.667 9 66 27
s26 40.667 26 68v231c0 19.333 6.33301 35.5 19 48.5s29 19.5 49 19.5c19.333 0 35.333 -6.5 48 -19.5s19 -29.167 19 -48.5v-220c0 -44.667 -9.66699 -84.5 -29 -119.5s-46.166 -62.167 -80.499 -81.5s-73.5 -29 -117.5 -29c-44.667 0 -84.334 9.66699 -119.001 29z
M228.5 731.5c15.667 -15 23.498 -33.833 23.498 -56.5c0 -20.667 -8 -38.667 -24 -54s-35 -23 -57 -23c-21.333 0 -40.166 7.83301 -56.499 23.5s-24.5 33.5 -24.5 53.5c0 22 8 40.667 24 56s35 23 57 23c22.667 0 41.834 -7.5 57.501 -22.5zM465.998 731.5
c15.333 -15 23.002 -33.833 23.002 -56.5c0 -21.333 -7.83301 -39.5 -23.5 -54.5s-34.834 -22.5 -57.501 -22.5c-20.667 0 -39.167 7.83301 -55.5 23.5s-24.5 33.5 -24.5 53.5c0 22 7.83301 40.667 23.5 56s34.5 23 56.5 23c23.333 0 42.666 -7.5 57.999 -22.5z" />
    <glyph glyph-name="yacute" unicode="&#xfd;" horiz-adv-x="559" 
d="M518.5 486.5c13 -13 19.499 -28.168 19.499 -45.501c0 -10.667 -2.66699 -21 -8 -31l-218 -447c-26.667 -54.667 -56 -94.167 -88 -118.5s-70.333 -36.5 -115 -36.5c-22 0 -41 3.66699 -57 11c-10.667 4.66699 -19 11.834 -25 21.501s-9 20.167 -9 31.5
c0 16.667 5.83301 30.5 17.5 41.5s26.167 16.5 43.5 16.5l12 -1c22 0 40.5 5 55.5 15s27.833 26 38.5 48l18 40l-171 377c-6 12 -9 22.667 -9 32c0 17.333 6.5 32.5 19.5 45.5s28.5 19.5 46.5 19.5c13.333 0 25.333 -3.33301 36 -10s18.334 -16 23.001 -28l131 -293l134 293
c5.33301 11.333 13.333 20.5 24 27.5s22.667 10.5 36 10.5c17.333 0 32.5 -6.5 45.5 -19.5zM252.999 580.999c-11.333 12.667 -16.334 27.333 -15.001 44c0 8 2.66699 18 8 30l47 107c5.33301 12 13.833 21.5 25.5 28.5s23.834 10.5 36.501 10.5
c19.333 0 35.333 -6.66699 48 -20s19 -29.333 19 -48c0 -12.667 -3.66699 -25 -11 -37l-62 -103c-6 -9.33301 -13.5 -16.833 -22.5 -22.5s-18.5 -8.5 -28.5 -8.5c-18.667 0 -33.667 6.33301 -45 19z" />
    <glyph glyph-name="thorn" unicode="&#xfe;" horiz-adv-x="629" 
d="M473.5 473c36.333 -22 64.833 -52.666 85.5 -91.999s31 -83.666 31 -132.999s-10.333 -93.833 -31 -133.5s-49.167 -70.667 -85.5 -93s-77.5 -33.5 -123.5 -33.5c-30.667 0 -58.667 5.16699 -84 15.5s-46.666 25.166 -63.999 44.499v-172
c0 -19.333 -6.33301 -35.5 -19 -48.5s-28.667 -19.5 -48 -19.5s-35.5 6.5 -48.5 19.5s-19.5 29.167 -19.5 48.5v817c0 19.333 6.5 35.666 19.5 48.999s29.167 20 48.5 20s35.333 -6.5 48 -19.5s19 -29.5 19 -49.5v-246c17.333 19.333 38.666 34 63.999 44s53.333 15 84 15
c46 0 87.167 -11 123.5 -33zM417 149.501c24 25.667 36 58.167 36 97.5c0 40 -12 72.833 -36 98.5s-54.667 38.5 -92 38.5s-67.5 -12.5 -90.5 -37.5s-34.5 -57.833 -34.5 -98.5s11.667 -73.667 35 -99s53.333 -38 90 -38c37.333 0 68 12.833 92 38.5z" />
    <glyph glyph-name="ydieresis" unicode="&#xff;" horiz-adv-x="559" 
d="M518.5 486.5c13 -13 19.499 -28.168 19.499 -45.501c0 -10.667 -2.66699 -21 -8 -31l-218 -447c-26.667 -54.667 -56 -94.167 -88 -118.5s-70.333 -36.5 -115 -36.5c-22 0 -41 3.66699 -57 11c-10.667 4.66699 -19 11.834 -25 21.501s-9 20.167 -9 31.5
c0 16.667 5.83301 30.5 17.5 41.5s26.167 16.5 43.5 16.5l12 -1c22 0 40.5 5 55.5 15s27.833 26 38.5 48l18 40l-171 377c-6 12 -9 22.667 -9 32c0 17.333 6.5 32.5 19.5 45.5s28.5 19.5 46.5 19.5c13.333 0 25.333 -3.33301 36 -10s18.334 -16 23.001 -28l131 -293l134 293
c5.33301 11.333 13.333 20.5 24 27.5s22.667 10.5 36 10.5c17.333 0 32.5 -6.5 45.5 -19.5zM216.499 731.499c15.667 -15 23.498 -33.833 23.498 -56.5c0 -20.667 -8 -38.667 -24 -54s-35 -23 -57 -23c-21.333 0 -40.166 7.83301 -56.499 23.5s-24.5 33.5 -24.5 53.5
c0 22 8 40.667 24 56s35 23 57 23c22.667 0 41.834 -7.5 57.501 -22.5zM453.997 731.499c15.333 -15 23.002 -33.833 23.002 -56.5c0 -21.333 -7.83301 -39.5 -23.5 -54.5s-34.834 -22.5 -57.501 -22.5c-20.667 0 -39.167 7.83301 -55.5 23.5s-24.5 33.5 -24.5 53.5
c0 22 7.83301 40.667 23.5 56s34.5 23 56.5 23c23.333 0 42.666 -7.5 57.999 -22.5z" />
    <glyph glyph-name="Amacron" unicode="&#x100;" horiz-adv-x="662" 
d="M628 53c0 -18 -6.33301 -33.333 -19 -46s-28.334 -19 -47.001 -19c-29.333 0 -50.666 16 -63.999 48l-28 68h-279l-28 -68c-12.667 -32 -33.667 -48 -63 -48c-18.667 0 -34.5 6.33301 -47.5 19s-19.5 28 -19.5 46c0 9.33301 2.66699 21.333 8 36l226 537
c12 30.667 33.333 46 64 46s52 -15.333 64 -46l225 -537c5.33301 -12.667 8 -24.667 8 -36zM235 215h190l-94 258zM484.5 848c10.333 -10 15.5 -22.667 15.5 -38s-5.16699 -28 -15.5 -38s-23.166 -15 -38.499 -15h-229c-15.333 0 -28.333 5.16699 -39 15.5
s-16 22.833 -16 37.5s5.33301 27.167 16 37.5s23.667 15.5 39 15.5h229c15.333 0 28.166 -5 38.499 -15z" />
    <glyph glyph-name="amacron" unicode="&#x101;" horiz-adv-x="545" 
d="M426 450.5c37.333 -37 56.001 -89.167 56.001 -156.5v-238c0 -19.333 -6.16699 -35.333 -18.5 -48s-27.833 -19 -46.5 -19c-16 0 -30 4.83301 -42 14.5s-19.667 22.167 -23 37.5c-37.333 -35.333 -85.666 -53 -144.999 -53c-50.667 0 -91.834 13.667 -123.501 41
s-47.5 63 -47.5 107c0 44.667 16.667 79.834 50 105.501s79 38.5 137 38.5h124v22c0 27.333 -8 48.666 -24 63.999s-39 23 -69 23c-34.667 0 -66.334 -12.333 -95.001 -37c-14 -10.667 -27.333 -16 -40 -16c-16.667 0 -30.5 5.33301 -41.5 16s-16.5 23.667 -16.5 39
c0 18.667 9.33301 36.667 28 54c20.667 19.333 46.667 34.333 78 45s65 16 101 16c68 0 120.667 -18.5 158 -55.5zM317.001 115c20 18.667 30 42.001 30 70.001v6h-106c-46 0 -69 -16.667 -69 -50c0 -16.667 6.33301 -29.834 19 -39.501s30 -14.5 52 -14.5
c29.333 0 54 9.33301 74 28zM414.001 713.001c10.667 -10 16 -22.667 16 -38s-5.33301 -28 -16 -38s-24 -15 -40 -15h-206c-16 0 -29.333 5 -40 15s-16 22.667 -16 38s5.33301 28 16 38s24 15 40 15h206c16 0 29.333 -5 40 -15z" />
    <glyph glyph-name="Abreve" unicode="&#x102;" horiz-adv-x="662" 
d="M628 53c0 -18 -6.33301 -33.333 -19 -46s-28.334 -19 -47.001 -19c-29.333 0 -50.666 16 -63.999 48l-28 68h-279l-28 -68c-12.667 -32 -33.667 -48 -63 -48c-18.667 0 -34.5 6.33301 -47.5 19s-19.5 28 -19.5 46c0 9.33301 2.66699 21.333 8 36l226 537
c12 30.667 33.333 46 64 46s52 -15.333 64 -46l225 -537c5.33301 -12.667 8 -24.667 8 -36zM235 215h190l-94 258zM249.5 745c-25.667 12.667 -46.5 29.667 -62.5 51s-24 43.666 -24 66.999c0 15.333 5 27.833 15 37.5s22.333 14.5 37 14.5c10.667 0 20 -3 28 -9
s15.333 -15.667 22 -29c14 -32.667 36 -49 66 -49c15.333 0 28.5 4.16699 39.5 12.5s19.5 20.5 25.5 36.5c12.667 25.333 29.667 38 51 38c14.667 0 26.834 -4.83301 36.501 -14.5s14.5 -22.167 14.5 -37.5c0 -23.333 -7.83301 -45.666 -23.5 -66.999
s-36.5 -38.333 -62.5 -51s-53 -19 -81 -19c-28.667 0 -55.834 6.33301 -81.501 19z" />
    <glyph glyph-name="abreve" unicode="&#x103;" horiz-adv-x="545" 
d="M426 450.5c37.333 -37 56.001 -89.167 56.001 -156.5v-238c0 -19.333 -6.16699 -35.333 -18.5 -48s-27.833 -19 -46.5 -19c-16 0 -30 4.83301 -42 14.5s-19.667 22.167 -23 37.5c-37.333 -35.333 -85.666 -53 -144.999 -53c-50.667 0 -91.834 13.667 -123.501 41
s-47.5 63 -47.5 107c0 44.667 16.667 79.834 50 105.501s79 38.5 137 38.5h124v22c0 27.333 -8 48.666 -24 63.999s-39 23 -69 23c-34.667 0 -66.334 -12.333 -95.001 -37c-14 -10.667 -27.333 -16 -40 -16c-16.667 0 -30.5 5.33301 -41.5 16s-16.5 23.667 -16.5 39
c0 18.667 9.33301 36.667 28 54c20.667 19.333 46.667 34.333 78 45s65 16 101 16c68 0 120.667 -18.5 158 -55.5zM317.001 115c20 18.667 30 42.001 30 70.001v6h-106c-46 0 -69 -16.667 -69 -50c0 -16.667 6.33301 -29.834 19 -39.501s30 -14.5 52 -14.5
c29.333 0 54 9.33301 74 28zM186.501 593.001c-26.333 13.333 -47.334 31.166 -63.001 53.499s-23.5 46.166 -23.5 71.499c0 15.333 5 28.333 15 39s22.333 16 37 16c26.667 0 44 -13.667 52 -41c4 -17.333 12 -31.166 24 -41.499s26.333 -15.5 43 -15.5
s30.834 5.16699 42.501 15.5s19.5 24.166 23.5 41.499c8 27.333 25 41 51 41c14.667 0 27.167 -5.33301 37.5 -16s15.5 -23.667 15.5 -39c0 -25.333 -7.66699 -49.166 -23 -71.499s-36 -40.166 -62 -53.499s-54.333 -20 -85 -20c-30 0 -58.167 6.66699 -84.5 20z" />
    <glyph glyph-name="Aogonek" unicode="&#x104;" horiz-adv-x="662" 
d="M628 53c0 -18 -6.33301 -33.333 -19 -46s-28.334 -19 -47.001 -19c-29.333 0 -50.666 16 -63.999 48l-28 68h-279l-28 -68c-12.667 -32 -33.667 -48 -63 -48c-18.667 0 -34.5 6.33301 -47.5 19s-19.5 28 -19.5 46c0 9.33301 2.66699 21.333 8 36l226 537
c12 30.667 33.333 46 64 46s52 -15.333 64 -46l225 -537c5.33301 -12.667 8 -24.667 8 -36zM235 215h190l-94 258zM455.5 -164c-21.667 18.667 -32.499 43.665 -32.499 74.998c0 24 7 46 21 66s37 43 69 69c30.667 24.667 54.667 37 72 37
c10.667 0 20.167 -3.83301 28.5 -11.5s12.5 -16.5 12.5 -26.5c0 -15.333 -7 -29 -21 -41c-18 -15.333 -31.833 -28.666 -41.5 -39.999s-14.5 -22 -14.5 -32c0 -8 3 -14.333 9 -19s14.667 -7 26 -7l16 1c12.667 0 22.667 -4 30 -12s11 -18.667 11 -32
c0 -12 -3.33301 -22.167 -10 -30.5s-16 -14.166 -28 -17.499c-18.667 -4.66699 -38.667 -7 -60 -7c-36.667 0 -65.834 9.33301 -87.501 28z" />
    <glyph glyph-name="aogonek" unicode="&#x105;" horiz-adv-x="545" 
d="M426 450.5c37.333 -37 56.001 -89.167 56.001 -156.5v-238c0 -19.333 -6.16699 -35.333 -18.5 -48s-27.833 -19 -46.5 -19c-16 0 -30 4.83301 -42 14.5s-19.667 22.167 -23 37.5c-37.333 -35.333 -85.666 -53 -144.999 -53c-50.667 0 -91.834 13.667 -123.501 41
s-47.5 63 -47.5 107c0 44.667 16.667 79.834 50 105.501s79 38.5 137 38.5h124v22c0 27.333 -8 48.666 -24 63.999s-39 23 -69 23c-34.667 0 -66.334 -12.333 -95.001 -37c-14 -10.667 -27.333 -16 -40 -16c-16.667 0 -30.5 5.33301 -41.5 16s-16.5 23.667 -16.5 39
c0 18.667 9.33301 36.667 28 54c20.667 19.333 46.667 34.333 78 45s65 16 101 16c68 0 120.667 -18.5 158 -55.5zM317.001 115c20 18.667 30 42.001 30 70.001v6h-106c-46 0 -69 -16.667 -69 -50c0 -16.667 6.33301 -29.834 19 -39.501s30 -14.5 52 -14.5
c29.333 0 54 9.33301 74 28zM311.501 -163.999c-21.667 18.667 -32.499 43.665 -32.499 74.998c0 24 7 46 21 66s37 43 69 69c30.667 24.667 54.667 37 72 37c10.667 0 20.167 -3.83301 28.5 -11.5s12.5 -16.5 12.5 -26.5c0 -15.333 -7 -29 -21 -41
c-18 -15.333 -31.833 -28.666 -41.5 -39.999s-14.5 -22 -14.5 -32c0 -8 3 -14.333 9 -19s14.667 -7 26 -7l16 1c12.667 0 22.667 -4 30 -12s11 -18.667 11 -32c0 -12 -3.33301 -22.167 -10 -30.5s-16 -14.166 -28 -17.499c-18.667 -4.66699 -38.667 -7 -60 -7
c-36.667 0 -65.834 9.33301 -87.501 28z" />
    <glyph glyph-name="Cacute" unicode="&#x106;" horiz-adv-x="720" 
d="M211.5 33.5c-53.667 30.333 -95.999 71.499 -126.999 123.499s-46.5 109.667 -46.5 173s15.5 121 46.5 173s73.5 93.167 127.5 123.5s113.333 45.5 178 45.5c50.667 0 98.5 -10.167 143.5 -30.5s82.167 -48.166 111.5 -83.499c14 -16 21 -32.667 21 -50
c0 -16.667 -6.16699 -31 -18.5 -43s-27.166 -18 -44.499 -18c-19.333 0 -36.666 8.66699 -51.999 26c-42.667 49.333 -96.334 74 -161.001 74c-40.667 0 -77.167 -9.33301 -109.5 -28s-57.666 -44.5 -75.999 -77.5s-27.5 -70.5 -27.5 -112.5
c0 -41.333 9.16699 -78.5 27.5 -111.5s43.666 -58.667 75.999 -77s68.833 -27.5 109.5 -27.5c63.333 0 116.666 24.667 159.999 74c16 17.333 33.667 26 53 26c17.333 0 32 -6 44 -18s18 -26.333 18 -43s-7 -33.334 -21 -50.001
c-29.333 -35.333 -66.5 -63.166 -111.5 -83.499s-92.833 -30.5 -143.5 -30.5c-64.667 0 -123.834 15.167 -177.501 45.5zM363.501 745.499c-10.333 12.333 -15.5039 26.499 -15.5039 42.499c0 9.33301 2 18 6 26l52 100c6.66699 12.667 15.334 21.667 26.001 27
s21.667 8 33 8c19.333 0 35.5 -6.83301 48.5 -20.5s19.5 -29.167 19.5 -46.5c0 -15.333 -4.66699 -28.666 -14 -39.999l-64 -90c-7.33301 -10 -15.666 -16.833 -24.999 -20.5s-17.666 -5.5 -24.999 -5.5c-17.333 0.666992 -31.166 7.16699 -41.499 19.5z" />
    <glyph glyph-name="cacute" unicode="&#x107;" horiz-adv-x="552" 
d="M170 22.5c-40.667 23 -72.666 54.499 -95.999 94.499s-35 83.667 -35 131s11.667 90.833 35 130.5s55.333 70.834 96 93.501s85.334 34 134.001 34c41.333 0 80.166 -9 116.499 -27s64.166 -41.667 83.499 -71c8 -12.667 12 -24.667 12 -36
c0 -16.667 -5.83301 -30.834 -17.5 -42.501s-25.834 -17.5 -42.501 -17.5c-19.333 0 -34.666 7 -45.999 21c-28 33.333 -62.667 50 -104 50c-38 0 -69.167 -12.667 -93.5 -38s-36.5 -57.666 -36.5 -96.999c0 -40 12.167 -72.667 36.5 -98s55.5 -38 93.5 -38
c39.333 0 74 16.667 104 50c12 14 27.333 21 46 21c16.667 0 30.834 -5.83301 42.501 -17.5s17.5 -25.834 17.5 -42.501c0 -11.333 -3.66699 -22.666 -11 -33.999c-20.667 -32 -48.5 -56.833 -83.5 -74.5s-74.167 -26.5 -117.5 -26.5c-48.667 0 -93.334 11.5 -134.001 34.5z
M279.001 580.999c-11.333 12.667 -16.334 27.333 -15.001 44c0 8 2.66699 18 8 30l47 107c5.33301 12 13.833 21.5 25.5 28.5s23.834 10.5 36.501 10.5c19.333 0 35.333 -6.66699 48 -20s19 -29.333 19 -48c0 -12.667 -3.66699 -25 -11 -37l-62 -103
c-6 -9.33301 -13.5 -16.833 -22.5 -22.5s-18.5 -8.5 -28.5 -8.5c-18.667 0 -33.667 6.33301 -45 19z" />
    <glyph glyph-name="Ccircumflex" unicode="&#x108;" horiz-adv-x="720" 
d="M211.5 33.5c-53.667 30.333 -95.999 71.499 -126.999 123.499s-46.5 109.667 -46.5 173s15.5 121 46.5 173s73.5 93.167 127.5 123.5s113.333 45.5 178 45.5c50.667 0 98.5 -10.167 143.5 -30.5s82.167 -48.166 111.5 -83.499c14 -16 21 -32.667 21 -50
c0 -16.667 -6.16699 -31 -18.5 -43s-27.166 -18 -44.499 -18c-19.333 0 -36.666 8.66699 -51.999 26c-42.667 49.333 -96.334 74 -161.001 74c-40.667 0 -77.167 -9.33301 -109.5 -28s-57.666 -44.5 -75.999 -77.5s-27.5 -70.5 -27.5 -112.5
c0 -41.333 9.16699 -78.5 27.5 -111.5s43.666 -58.667 75.999 -77s68.833 -27.5 109.5 -27.5c63.333 0 116.666 24.667 159.999 74c16 17.333 33.667 26 53 26c17.333 0 32 -6 44 -18s18 -26.333 18 -43s-7 -33.334 -21 -50.001
c-29.333 -35.333 -66.5 -63.166 -111.5 -83.499s-92.833 -30.5 -143.5 -30.5c-64.667 0 -123.834 15.167 -177.501 45.5zM552.501 800.499c4.33301 -6.33301 6.50098 -13.5 6.50098 -21.5c0 -14 -4.83301 -25.833 -14.5 -35.5s-21.167 -14.5 -34.5 -14.5
c-14 0 -27 5.33301 -39 16l-83 76l-83 -76c-12 -10.667 -25 -16 -39 -16c-13.333 0 -24.833 4.83301 -34.5 14.5s-14.5 21.5 -14.5 35.5c0 8 2.16699 15.167 6.5 21.5s12.166 14.833 23.499 25.5l94 92c14.667 13.333 30.334 20 47.001 20c17.333 0 33 -6.66699 47 -20
l94 -92c11.333 -10.667 19.166 -19.167 23.499 -25.5z" />
    <glyph glyph-name="ccircumflex" unicode="&#x109;" horiz-adv-x="552" 
d="M170 22.5c-40.667 23 -72.666 54.499 -95.999 94.499s-35 83.667 -35 131s11.667 90.833 35 130.5s55.333 70.834 96 93.501s85.334 34 134.001 34c41.333 0 80.166 -9 116.499 -27s64.166 -41.667 83.499 -71c8 -12.667 12 -24.667 12 -36
c0 -16.667 -5.83301 -30.834 -17.5 -42.501s-25.834 -17.5 -42.501 -17.5c-19.333 0 -34.666 7 -45.999 21c-28 33.333 -62.667 50 -104 50c-38 0 -69.167 -12.667 -93.5 -38s-36.5 -57.666 -36.5 -96.999c0 -40 12.167 -72.667 36.5 -98s55.5 -38 93.5 -38
c39.333 0 74 16.667 104 50c12 14 27.333 21 46 21c16.667 0 30.834 -5.83301 42.501 -17.5s17.5 -25.834 17.5 -42.501c0 -11.333 -3.66699 -22.666 -11 -33.999c-20.667 -32 -48.5 -56.833 -83.5 -74.5s-74.167 -26.5 -117.5 -26.5c-48.667 0 -93.334 11.5 -134.001 34.5z
M463.001 635.999c2.66699 -5.33301 3.99805 -12 3.99805 -20c0 -14.667 -5.16699 -26.667 -15.5 -36s-22.166 -14 -35.499 -14c-12.667 0 -24 5 -34 15l-78 82l-79 -82c-10 -10 -21.333 -15 -34 -15c-13.333 0 -25.166 4.66699 -35.499 14s-15.5 21.333 -15.5 36
c0 8 1.33301 14.667 4 20s7 11.666 13 18.999l96 115c13.333 15.333 30.333 23 51 23c20 0 36.667 -7.66699 50 -23l96 -115c6 -7.33301 10.333 -13.666 13 -18.999z" />
    <glyph glyph-name="Cdotaccent" unicode="&#x10a;" horiz-adv-x="720" 
d="M211.5 33.5c-53.667 30.333 -95.999 71.499 -126.999 123.499s-46.5 109.667 -46.5 173s15.5 121 46.5 173s73.5 93.167 127.5 123.5s113.333 45.5 178 45.5c50.667 0 98.5 -10.167 143.5 -30.5s82.167 -48.166 111.5 -83.499c14 -16 21 -32.667 21 -50
c0 -16.667 -6.16699 -31 -18.5 -43s-27.166 -18 -44.499 -18c-19.333 0 -36.666 8.66699 -51.999 26c-42.667 49.333 -96.334 74 -161.001 74c-40.667 0 -77.167 -9.33301 -109.5 -28s-57.666 -44.5 -75.999 -77.5s-27.5 -70.5 -27.5 -112.5
c0 -41.333 9.16699 -78.5 27.5 -111.5s43.666 -58.667 75.999 -77s68.833 -27.5 109.5 -27.5c63.333 0 116.666 24.667 159.999 74c16 17.333 33.667 26 53 26c17.333 0 32 -6 44 -18s18 -26.333 18 -43s-7 -33.334 -21 -50.001
c-29.333 -35.333 -66.5 -63.166 -111.5 -83.499s-92.833 -30.5 -143.5 -30.5c-64.667 0 -123.834 15.167 -177.501 45.5zM448.001 879.499c16.667 -15.667 25 -34.834 25 -57.501s-8.33301 -41.834 -25 -57.501s-36.334 -23.5 -59.001 -23.5
c-23.333 0 -43.333 7.83301 -60 23.5s-25 34.834 -25 57.501s8.33301 41.834 25 57.501s36.667 23.5 60 23.5c22.667 0 42.334 -7.83301 59.001 -23.5z" />
    <glyph glyph-name="cdotaccent" unicode="&#x10b;" horiz-adv-x="552" 
d="M170 22.5c-40.667 23 -72.666 54.499 -95.999 94.499s-35 83.667 -35 131s11.667 90.833 35 130.5s55.333 70.834 96 93.501s85.334 34 134.001 34c41.333 0 80.166 -9 116.499 -27s64.166 -41.667 83.499 -71c8 -12.667 12 -24.667 12 -36
c0 -16.667 -5.83301 -30.834 -17.5 -42.501s-25.834 -17.5 -42.501 -17.5c-19.333 0 -34.666 7 -45.999 21c-28 33.333 -62.667 50 -104 50c-38 0 -69.167 -12.667 -93.5 -38s-36.5 -57.666 -36.5 -96.999c0 -40 12.167 -72.667 36.5 -98s55.5 -38 93.5 -38
c39.333 0 74 16.667 104 50c12 14 27.333 21 46 21c16.667 0 30.834 -5.83301 42.501 -17.5s17.5 -25.834 17.5 -42.501c0 -11.333 -3.66699 -22.666 -11 -33.999c-20.667 -32 -48.5 -56.833 -83.5 -74.5s-74.167 -26.5 -117.5 -26.5c-48.667 0 -93.334 11.5 -134.001 34.5z
M363.001 732.999c16.667 -16 25 -35.334 25 -58.001c0 -22 -8.33301 -41 -25 -57s-36.334 -24 -59.001 -24c-23.333 0 -43.333 7.83301 -60 23.5s-25 34.834 -25 57.501s8.33301 42 25 58s36.667 24 60 24c22.667 0 42.334 -8 59.001 -24z" />
    <glyph glyph-name="Ccaron" unicode="&#x10c;" horiz-adv-x="720" 
d="M211.5 33.5c-53.667 30.333 -95.999 71.499 -126.999 123.499s-46.5 109.667 -46.5 173s15.5 121 46.5 173s73.5 93.167 127.5 123.5s113.333 45.5 178 45.5c50.667 0 98.5 -10.167 143.5 -30.5s82.167 -48.166 111.5 -83.499c14 -16 21 -32.667 21 -50
c0 -16.667 -6.16699 -31 -18.5 -43s-27.166 -18 -44.499 -18c-19.333 0 -36.666 8.66699 -51.999 26c-42.667 49.333 -96.334 74 -161.001 74c-40.667 0 -77.167 -9.33301 -109.5 -28s-57.666 -44.5 -75.999 -77.5s-27.5 -70.5 -27.5 -112.5
c0 -41.333 9.16699 -78.5 27.5 -111.5s43.666 -58.667 75.999 -77s68.833 -27.5 109.5 -27.5c63.333 0 116.666 24.667 159.999 74c16 17.333 33.667 26 53 26c17.333 0 32 -6 44 -18s18 -26.333 18 -43s-7 -33.334 -21 -50.001
c-29.333 -35.333 -66.5 -63.166 -111.5 -83.499s-92.833 -30.5 -143.5 -30.5c-64.667 0 -123.834 15.167 -177.501 45.5zM544.501 923.499c9.66699 -9.66699 14.499 -21.5 14.499 -35.5c0 -8 -2.16699 -15.167 -6.5 -21.5s-12.166 -14.833 -23.499 -25.5l-94 -92
c-14 -13.333 -29.667 -20 -47 -20c-16.667 0 -32.334 6.66699 -47.001 20l-94 92c-11.333 10.667 -19.166 19.167 -23.499 25.5s-6.5 13.5 -6.5 21.5c0 14 4.83301 25.833 14.5 35.5s21.167 14.5 34.5 14.5c14 0 27 -5.33301 39 -16l83 -76l83 76c12 10.667 25 16 39 16
c13.333 0 24.833 -4.83301 34.5 -14.5z" />
    <glyph glyph-name="ccaron" unicode="&#x10d;" horiz-adv-x="552" 
d="M170 22.5c-40.667 23 -72.666 54.499 -95.999 94.499s-35 83.667 -35 131s11.667 90.833 35 130.5s55.333 70.834 96 93.501s85.334 34 134.001 34c41.333 0 80.166 -9 116.499 -27s64.166 -41.667 83.499 -71c8 -12.667 12 -24.667 12 -36
c0 -16.667 -5.83301 -30.834 -17.5 -42.501s-25.834 -17.5 -42.501 -17.5c-19.333 0 -34.666 7 -45.999 21c-28 33.333 -62.667 50 -104 50c-38 0 -69.167 -12.667 -93.5 -38s-36.5 -57.666 -36.5 -96.999c0 -40 12.167 -72.667 36.5 -98s55.5 -38 93.5 -38
c39.333 0 74 16.667 104 50c12 14 27.333 21 46 21c16.667 0 30.834 -5.83301 42.501 -17.5s17.5 -25.834 17.5 -42.501c0 -11.333 -3.66699 -22.666 -11 -33.999c-20.667 -32 -48.5 -56.833 -83.5 -74.5s-74.167 -26.5 -117.5 -26.5c-48.667 0 -93.334 11.5 -134.001 34.5z
M451.501 779.999c10.333 -9.33301 15.502 -21.333 15.502 -36c0 -8 -1.33301 -14.667 -4 -20s-7 -11.666 -13 -18.999l-96 -115c-13.333 -15.333 -30 -23 -50 -23c-20.667 0 -37.667 7.66699 -51 23l-96 115c-6 7.33301 -10.333 13.666 -13 18.999s-4 12 -4 20
c0 14.667 5.16699 26.667 15.5 36s22.166 14 35.499 14c12.667 0 24 -5 34 -15l79 -82l78 82c10 10 21.333 15 34 15c13.333 0 25.166 -4.66699 35.499 -14z" />
    <glyph glyph-name="Dcaron" unicode="&#x10e;" horiz-adv-x="690" 
d="M479.5 619c54.333 -27.333 96.5 -65.832 126.5 -115.499s45 -106.834 45 -171.501s-15.167 -122.167 -45.5 -172.5s-72.833 -89.5 -127.5 -117.5s-116.667 -42 -186 -42h-148c-20 0 -36.5 6.5 -49.5 19.5s-19.5 29.5 -19.5 49.5v522c0 20 6.5 36.5 19.5 49.5
s29.5 19.5 49.5 19.5h148c70.667 0 133.167 -13.667 187.5 -41zM210 538.001l0.000976562 -416h81c44 0 82.833 8.66699 116.5 26s59.667 41.833 78 73.5s27.5 68.5 27.5 110.5c0 63.333 -19.833 113.5 -59.5 150.5s-93.834 55.5 -162.501 55.5h-81zM452.501 916.501
c9.66699 -9.66699 14.499 -21.5 14.499 -35.5c0 -8 -2.16699 -15.167 -6.5 -21.5s-12.166 -14.833 -23.499 -25.5l-94 -92c-14 -13.333 -29.667 -20 -47 -20c-16.667 0 -32.334 6.66699 -47.001 20l-94 92c-11.333 10.667 -19.166 19.167 -23.499 25.5s-6.5 13.5 -6.5 21.5
c0 14 4.83301 25.833 14.5 35.5s21.167 14.5 34.5 14.5c14 0 27 -5.33301 39 -16l83 -76l83 76c12 10.667 25 16 39 16c13.333 0 24.833 -4.83301 34.5 -14.5z" />
    <glyph glyph-name="dcaron" unicode="&#x10f;" horiz-adv-x="792" 
d="M543 742.5c12.667 -13 19.002 -29.4941 19.002 -49.4941v-637c0 -19.333 -6.33301 -35.5 -19 -48.5s-28.334 -19.5 -47.001 -19.5c-17.333 0 -32.333 6.16699 -45 18.5s-19.667 27.166 -21 44.499c-17.333 -20 -38.833 -35.5 -64.5 -46.5s-54.5 -16.5 -86.5 -16.5
c-46 0 -87.167 11.167 -123.5 33.5s-64.833 53.166 -85.5 92.499s-31 83.666 -31 132.999s10.333 93.666 31 132.999s49.167 70.166 85.5 92.499s77.5 33.5 123.5 33.5c30.667 0 58.667 -5.16699 84 -15.5s46.666 -24.833 63.999 -43.5v246c0 19.333 6.5 35.666 19.5 48.999
s29.167 20 48.5 20s35.333 -6.5 48 -19.5zM394.502 148.506c23 25 34.5 57.833 34.5 98.5s-11.667 73.667 -35 99s-53.333 38 -90 38s-67.167 -12.833 -91.5 -38.5s-36.5 -58.167 -36.5 -97.5c0 -40 12 -72.833 36 -98.5s54.667 -38.5 92 -38.5s67.5 12.5 90.5 37.5z
M657.002 552.506c-12 11.667 -18 26.167 -18 43.5c0 5.33301 0.333008 9.33301 1 12l17 112c2 16 9.16699 30 21.5 42s27.5 18 45.5 18s33.833 -6.33301 47.5 -19s20.5 -28.667 20.5 -48c0 -7.33301 -1.66699 -16 -5 -26l-32 -111c-10 -27.333 -28.667 -41 -56 -41
c-16 0 -30 5.83301 -42 17.5z" />
    <glyph glyph-name="Dcroat" unicode="&#x110;" horiz-adv-x="690" 
d="M479.5 619c54.333 -27.333 96.5 -65.833 126.5 -115.5s45 -106.834 45 -171.501s-15.167 -122.167 -45.5 -172.5s-72.833 -89.5 -127.5 -117.5s-116.667 -42 -186 -42h-148c-20 0 -36.5 6.5 -49.5 19.5s-19.5 29.5 -19.5 49.5v188h-28c-17.333 0 -32 5.33301 -44 16
s-18 24.334 -18 41.001c0 16 6 29.333 18 40s26.667 16 44 16h28v221c0 20 6.5 36.5 19.5 49.5s29.5 19.5 49.5 19.5h148c70.667 0 133.167 -13.667 187.5 -41zM407.5 148c33.667 17.333 59.668 41.834 78.001 73.501s27.5 68.5 27.5 110.5
c0 63.333 -19.833 113.5 -59.5 150.5s-93.834 55.5 -162.501 55.5h-81v-168h54c17.333 0 32 -5.33301 44 -16s18 -24 18 -40c0 -16.667 -6 -30.334 -18 -41.001s-26.667 -16 -44 -16h-54v-135h81c44 0 82.833 8.66699 116.5 26z" />
    <glyph glyph-name="dcroat" unicode="&#x111;" horiz-adv-x="636" 
d="M631 646.5c10.667 -10.333 16 -23.499 16 -39.499s-5.16699 -29 -15.5 -39s-23.5 -15 -39.5 -15h-31v-496c0 -20 -6.16699 -36.5 -18.5 -49.5s-27.833 -19.5 -46.5 -19.5c-18 0 -33.167 6.16699 -45.5 18.5s-19.166 27.833 -20.499 46.5
c-17.333 -20.667 -39.5 -36.667 -66.5 -48s-56.5 -17 -88.5 -17c-45.333 0 -86 10.5 -122 31.5s-64.167 50 -84.5 87s-30.5 78.833 -30.5 125.5s10.167 88.5 30.5 125.5s48.5 66.167 84.5 87.5s76.333 32 121 32c31.333 0 60.166 -5.5 86.499 -16.5s48.5 -26.833 66.5 -47.5
v140h-156c-16 0 -29.167 5 -39.5 15s-15.5 23 -15.5 39s5.16699 29.167 15.5 39.5s23.5 15.5 39.5 15.5h156v31c0 19.333 6.33301 35.666 19 48.999s28.667 20 48 20s35.333 -6.5 48 -19.5s19 -29.5 19 -49.5v-31h31c15.333 0 28.333 -5.16699 39 -15.5zM394.5 137.501
c23 23.667 34.499 54.834 34.499 93.501c0 39.333 -11.667 71.166 -35 95.499s-53.666 36.5 -90.999 36.5c-36.667 0 -67 -12.333 -91 -37s-36 -56 -36 -94s11.833 -69.167 35.5 -93.5s54.167 -36.5 91.5 -36.5c38 0 68.5 11.833 91.5 35.5z" />
    <glyph glyph-name="Emacron" unicode="&#x112;" horiz-adv-x="572" 
d="M94.5 19.5c-13 13 -19.5 28.833 -19.5 47.5v526c0 19.333 6.5 35.333 19.5 48s28.833 19 47.5 19h323c18 0 32.833 -5.83301 44.5 -17.5s17.5 -26.167 17.5 -43.5s-6 -31.833 -18 -43.5s-26.667 -17.5 -44 -17.5h-255v-134h175c16.667 0 30.667 -5.5 42 -16.5
s17 -24.833 17 -41.5c0 -16 -5.66699 -29.5 -17 -40.5s-25.333 -16.5 -42 -16.5h-175v-167h267c18 0 32.833 -5.83301 44.5 -17.5s17.5 -26.167 17.5 -43.5s-6 -31.833 -18 -43.5s-26.667 -17.5 -44 -17.5h-335c-18.667 0 -34.5 6.5 -47.5 19.5zM447.5 848
c10.333 -10 15.5 -22.667 15.5 -38s-5.16699 -28 -15.5 -38s-23.166 -15 -38.499 -15h-229c-15.333 0 -28.333 5.16699 -39 15.5s-16 22.833 -16 37.5s5.33301 27.167 16 37.5s23.667 15.5 39 15.5h229c15.333 0 28.166 -5 38.499 -15z" />
    <glyph glyph-name="emacron" unicode="&#x113;" horiz-adv-x="569" 
d="M416.5 476c35.667 -20 63.665 -47.6689 83.998 -83.002s30.5 -75 30.5 -119v-3c0 -20.667 -6.83301 -37.334 -20.5 -50.001s-31.5 -19 -53.5 -19h-282c8 -31.333 24 -55.5 48 -72.5s54.333 -25.5 91 -25.5c38 0 72.333 9.66699 103 29c10 6 19.667 9 29 9
c15.333 0 28.333 -5.16699 39 -15.5s16 -23.166 16 -38.499c0 -11.333 -2.66699 -21.166 -8 -29.499s-14 -16.5 -26 -24.5c-46 -30.667 -98.333 -46 -157 -46c-51.333 0 -97.666 11.333 -138.999 34s-73.666 53.667 -96.999 93s-35 83.333 -35 132
c0 48 11.167 91.833 33.5 131.5s53.166 70.834 92.499 93.501s83 34 131 34c44.667 0 84.834 -10 120.501 -30zM217.498 369.998c-21 -18 -35.1689 -42.333 -42.502 -73h225c-1.33301 30 -11.666 54.167 -30.999 72.5s-44.666 27.5 -75.999 27.5
c-29.333 0 -54.5 -9 -75.5 -27zM440.996 712.998c10.667 -10 16 -22.667 16 -38s-5.33301 -28 -16 -38s-24 -15 -40 -15h-206c-16 0 -29.333 5 -40 15s-16 22.667 -16 38s5.33301 28 16 38s24 15 40 15h206c16 0 29.333 -5 40 -15z" />
    <glyph glyph-name="Ebreve" unicode="&#x114;" horiz-adv-x="572" 
d="M94.5 19.5c-13 13 -19.5 28.833 -19.5 47.5v526c0 19.333 6.5 35.333 19.5 48s28.833 19 47.5 19h323c18 0 32.833 -5.83301 44.5 -17.5s17.5 -26.167 17.5 -43.5s-6 -31.833 -18 -43.5s-26.667 -17.5 -44 -17.5h-255v-134h175c16.667 0 30.667 -5.5 42 -16.5
s17 -24.833 17 -41.5c0 -16 -5.66699 -29.5 -17 -40.5s-25.333 -16.5 -42 -16.5h-175v-167h267c18 0 32.833 -5.83301 44.5 -17.5s17.5 -26.167 17.5 -43.5s-6 -31.833 -18 -43.5s-26.667 -17.5 -44 -17.5h-335c-18.667 0 -34.5 6.5 -47.5 19.5zM212.5 745
c-25.667 12.667 -46.5 29.667 -62.5 51s-24 43.666 -24 66.999c0 15.333 5 27.833 15 37.5s22.333 14.5 37 14.5c10.667 0 20 -3 28 -9s15.333 -15.667 22 -29c14 -32.667 36 -49 66 -49c15.333 0 28.5 4.16699 39.5 12.5s19.5 20.5 25.5 36.5
c12.667 25.333 29.667 38 51 38c14.667 0 26.834 -4.83301 36.501 -14.5s14.5 -22.167 14.5 -37.5c0 -23.333 -7.83301 -45.666 -23.5 -66.999s-36.5 -38.333 -62.5 -51s-53 -19 -81 -19c-28.667 0 -55.834 6.33301 -81.501 19z" />
    <glyph glyph-name="ebreve" unicode="&#x115;" horiz-adv-x="569" 
d="M416.5 476c35.667 -20 63.665 -47.6689 83.998 -83.002s30.5 -75 30.5 -119v-3c0 -20.667 -6.83301 -37.334 -20.5 -50.001s-31.5 -19 -53.5 -19h-282c8 -31.333 24 -55.5 48 -72.5s54.333 -25.5 91 -25.5c38 0 72.333 9.66699 103 29c10 6 19.667 9 29 9
c15.333 0 28.333 -5.16699 39 -15.5s16 -23.166 16 -38.499c0 -11.333 -2.66699 -21.166 -8 -29.499s-14 -16.5 -26 -24.5c-46 -30.667 -98.333 -46 -157 -46c-51.333 0 -97.666 11.333 -138.999 34s-73.666 53.667 -96.999 93s-35 83.333 -35 132
c0 48 11.167 91.833 33.5 131.5s53.166 70.834 92.499 93.501s83 34 131 34c44.667 0 84.834 -10 120.501 -30zM217.498 369.998c-21 -18 -35.1689 -42.333 -42.502 -73h225c-1.33301 30 -11.666 54.167 -30.999 72.5s-44.666 27.5 -75.999 27.5
c-29.333 0 -54.5 -9 -75.5 -27zM213.496 592.998c-26.333 13.333 -47.334 31.166 -63.001 53.499s-23.5 46.166 -23.5 71.499c0 15.333 5 28.333 15 39s22.333 16 37 16c26.667 0 44 -13.667 52 -41c4 -17.333 12 -31.166 24 -41.499s26.333 -15.5 43 -15.5
s30.834 5.16699 42.501 15.5s19.5 24.166 23.5 41.499c8 27.333 25 41 51 41c14.667 0 27.167 -5.33301 37.5 -16s15.5 -23.667 15.5 -39c0 -25.333 -7.66699 -49.166 -23 -71.499s-36 -40.166 -62 -53.499s-54.333 -20 -85 -20c-30 0 -58.167 6.66699 -84.5 20z" />
    <glyph glyph-name="Edotaccent" unicode="&#x116;" horiz-adv-x="572" 
d="M94.5 19.5c-13 13 -19.5 28.833 -19.5 47.5v526c0 19.333 6.5 35.333 19.5 48s28.833 19 47.5 19h323c18 0 32.833 -5.83301 44.5 -17.5s17.5 -26.167 17.5 -43.5s-6 -31.833 -18 -43.5s-26.667 -17.5 -44 -17.5h-255v-134h175c16.667 0 30.667 -5.5 42 -16.5
s17 -24.833 17 -41.5c0 -16 -5.66699 -29.5 -17 -40.5s-25.333 -16.5 -42 -16.5h-175v-167h267c18 0 32.833 -5.83301 44.5 -17.5s17.5 -26.167 17.5 -43.5s-6 -31.833 -18 -43.5s-26.667 -17.5 -44 -17.5h-335c-18.667 0 -34.5 6.5 -47.5 19.5zM353 872.5
c16.667 -15.667 25 -34.834 25 -57.501s-8.33301 -41.834 -25 -57.501s-36.334 -23.5 -59.001 -23.5c-23.333 0 -43.333 7.83301 -60 23.5s-25 34.834 -25 57.501s8.33301 41.834 25 57.501s36.667 23.5 60 23.5c22.667 0 42.334 -7.83301 59.001 -23.5z" />
    <glyph glyph-name="edotaccent" unicode="&#x117;" horiz-adv-x="569" 
d="M416.5 476c35.667 -20 63.665 -47.6689 83.998 -83.002s30.5 -75 30.5 -119v-3c0 -20.667 -6.83301 -37.334 -20.5 -50.001s-31.5 -19 -53.5 -19h-282c8 -31.333 24 -55.5 48 -72.5s54.333 -25.5 91 -25.5c38 0 72.333 9.66699 103 29c10 6 19.667 9 29 9
c15.333 0 28.333 -5.16699 39 -15.5s16 -23.166 16 -38.499c0 -11.333 -2.66699 -21.166 -8 -29.499s-14 -16.5 -26 -24.5c-46 -30.667 -98.333 -46 -157 -46c-51.333 0 -97.666 11.333 -138.999 34s-73.666 53.667 -96.999 93s-35 83.333 -35 132
c0 48 11.167 91.833 33.5 131.5s53.166 70.834 92.499 93.501s83 34 131 34c44.667 0 84.834 -10 120.501 -30zM217.498 369.998c-21 -18 -35.1689 -42.333 -42.502 -73h225c-1.33301 30 -11.666 54.167 -30.999 72.5s-44.666 27.5 -75.999 27.5
c-29.333 0 -54.5 -9 -75.5 -27zM356.996 732.998c16.667 -16 25 -35.334 25 -58.001c0 -22 -8.33301 -41 -25 -57s-36.334 -24 -59.001 -24c-23.333 0 -43.333 7.83301 -60 23.5s-25 34.834 -25 57.501s8.33301 42 25 58s36.667 24 60 24c22.667 0 42.334 -8 59.001 -24z
" />
    <glyph glyph-name="Eogonek" unicode="&#x118;" horiz-adv-x="573" 
d="M527.5 -105c7.66699 -8 11.501 -18.668 11.501 -32.001c0 -11.333 -3.33301 -21.333 -10 -30s-16.334 -14.667 -29.001 -18c-18.667 -4.66699 -38.667 -7 -60 -7c-36 0 -65 9.16699 -87 27.5s-33 42.5 -33 72.5c0 27.333 15.333 58 46 92h-224
c-18.667 0 -34.5 6.5 -47.5 19.5s-19.5 28.833 -19.5 47.5v526c0 19.333 6.5 35.333 19.5 48s28.833 19 47.5 19h323c18 0 32.833 -5.83301 44.5 -17.5s17.5 -26.167 17.5 -43.5s-6 -31.833 -18 -43.5s-26.667 -17.5 -44 -17.5h-255v-134h175c16.667 0 30.667 -5.5 42 -16.5
s17 -24.833 17 -41.5c0 -16 -5.66699 -29.5 -17 -40.5s-25.333 -16.5 -42 -16.5h-175v-167h267c18 0 32.833 -5.83301 44.5 -17.5s17.5 -26.167 17.5 -43.5c0 -8.66699 -1.33301 -15.667 -4 -21c-1.33301 -7.33301 -6.33301 -15.333 -15 -24l-38 -33
c-14 -12 -23.5 -21.667 -28.5 -29s-7.5 -14.666 -7.5 -21.999c0 -8 3.16699 -14.333 9.5 -19s15.166 -7 26.499 -7l15 1c12.667 0 22.834 -4 30.501 -12z" />
    <glyph glyph-name="eogonek" unicode="&#x119;" horiz-adv-x="569" 
d="M416.5 476c35.667 -20 63.665 -47.666 83.998 -82.999s30.5 -75 30.5 -119v-3c0 -20.667 -6.83301 -37.334 -20.5 -50.001s-31.5 -19 -53.5 -19h-282c8 -31.333 24 -55.5 48 -72.5s54.333 -25.5 91 -25.5c38 0 72.333 9.66699 103 29c10 6 19.667 9 29 9
c15.333 0 28.333 -5.16699 39 -15.5s16 -23.166 16 -38.499c0 -11.333 -2.66699 -21.166 -8 -29.499s-14 -16.5 -26 -24.5l-36 -27c-20.667 -14.667 -36.167 -27.334 -46.5 -38.001s-15.5 -22 -15.5 -34c0 -8.66699 3.33301 -15.834 10 -21.501s15.334 -8.5 26.001 -8.5
c3.33301 0 6.33301 0.333008 9 1s4.66699 1 6 1c12.667 0 22.834 -4 30.501 -12s11.5 -18.667 11.5 -32c0 -11.333 -3.33301 -21.333 -10 -30s-16.334 -14.667 -29.001 -18c-18.667 -4.66699 -38.667 -7 -60 -7c-36 0 -65 9.33301 -87 28s-33 43.334 -33 74.001
c0 26 11.667 52.667 35 80c-46 4.66699 -87.167 18.667 -123.5 42s-64.666 53.666 -84.999 90.999s-30.5 78.666 -30.5 123.999c0 48 11.167 91.833 33.5 131.5s53.166 70.834 92.499 93.501s83 34 131 34c44.667 0 84.834 -10 120.501 -30zM217.498 370.001
c-21 -18 -35.1689 -42.333 -42.502 -73h225c-1.33301 30 -11.666 54.167 -30.999 72.5s-44.666 27.5 -75.999 27.5c-29.333 0 -54.5 -9 -75.5 -27z" />
    <glyph glyph-name="Ecaron" unicode="&#x11a;" horiz-adv-x="572" 
d="M94.5 19.5c-13 13 -19.5 28.833 -19.5 47.5v526c0 19.333 6.5 35.333 19.5 48s28.833 19 47.5 19h323c18 0 32.833 -5.83301 44.5 -17.5s17.5 -26.167 17.5 -43.5s-6 -31.833 -18 -43.5s-26.667 -17.5 -44 -17.5h-255v-134h175c16.667 0 30.667 -5.5 42 -16.5
s17 -24.833 17 -41.5c0 -16 -5.66699 -29.5 -17 -40.5s-25.333 -16.5 -42 -16.5h-175v-167h267c18 0 32.833 -5.83301 44.5 -17.5s17.5 -26.167 17.5 -43.5s-6 -31.833 -18 -43.5s-26.667 -17.5 -44 -17.5h-335c-18.667 0 -34.5 6.5 -47.5 19.5zM449.5 916.5
c9.66699 -9.66699 14.499 -21.5 14.499 -35.5c0 -8 -2.16699 -15.167 -6.5 -21.5s-12.166 -14.833 -23.499 -25.5l-94 -92c-14 -13.333 -29.667 -20 -47 -20c-16.667 0 -32.334 6.66699 -47.001 20l-94 92c-11.333 10.667 -19.166 19.167 -23.499 25.5s-6.5 13.5 -6.5 21.5
c0 14 4.83301 25.833 14.5 35.5s21.167 14.5 34.5 14.5c14 0 27 -5.33301 39 -16l83 -76l83 76c12 10.667 25 16 39 16c13.333 0 24.833 -4.83301 34.5 -14.5z" />
    <glyph glyph-name="ecaron" unicode="&#x11b;" horiz-adv-x="569" 
d="M416.5 476c35.667 -20 63.665 -47.6689 83.998 -83.002s30.5 -75 30.5 -119v-3c0 -20.667 -6.83301 -37.334 -20.5 -50.001s-31.5 -19 -53.5 -19h-282c8 -31.333 24 -55.5 48 -72.5s54.333 -25.5 91 -25.5c38 0 72.333 9.66699 103 29c10 6 19.667 9 29 9
c15.333 0 28.333 -5.16699 39 -15.5s16 -23.166 16 -38.499c0 -11.333 -2.66699 -21.166 -8 -29.499s-14 -16.5 -26 -24.5c-46 -30.667 -98.333 -46 -157 -46c-51.333 0 -97.666 11.333 -138.999 34s-73.666 53.667 -96.999 93s-35 83.333 -35 132
c0 48 11.167 91.833 33.5 131.5s53.166 70.834 92.499 93.501s83 34 131 34c44.667 0 84.834 -10 120.501 -30zM217.498 369.998c-21 -18 -35.1689 -42.333 -42.502 -73h225c-1.33301 30 -11.666 54.167 -30.999 72.5s-44.666 27.5 -75.999 27.5
c-29.333 0 -54.5 -9 -75.5 -27zM445.496 779.998c10.333 -9.33301 15.502 -21.333 15.502 -36c0 -8 -1.33301 -14.667 -4 -20s-7 -11.666 -13 -18.999l-96 -115c-13.333 -15.333 -30 -23 -50 -23c-20.667 0 -37.667 7.66699 -51 23l-96 115
c-6 7.33301 -10.333 13.666 -13 18.999s-4 12 -4 20c0 14.667 5.16699 26.667 15.5 36s22.166 14 35.499 14c12.667 0 24 -5 34 -15l79 -82l78 82c10 10 21.333 15 34 15c13.333 0 25.166 -4.66699 35.499 -14z" />
    <glyph glyph-name="Gcircumflex" unicode="&#x11c;" horiz-adv-x="747" 
d="M212 33c-54 30 -96.498 71.167 -127.498 123.5s-46.5 110.166 -46.5 173.499s15.5 121.166 46.5 173.499s73.5 93.5 127.5 123.5s113.667 45 179 45c44.667 0 88 -8.33301 130 -25s76.667 -39.334 104 -68.001c14.667 -13.333 25.167 -25.666 31.5 -36.999
s9.5 -22.666 9.5 -33.999c0 -16.667 -6.16699 -31 -18.5 -43s-26.833 -18 -43.5 -18c-10.667 0 -20.334 2.33301 -29.001 7s-18 12.334 -28 23.001c-22.667 24 -46.667 41.667 -72 53s-54 17 -86 17c-41.333 0 -78 -9.16699 -110 -27.5s-57 -43.833 -75 -76.5
s-27 -70.334 -27 -113.001c0 -43.333 9.33301 -81.666 28 -114.999s44.667 -59.333 78 -78s71.333 -28 114 -28c36.667 0 70 6.83301 100 20.5s54.667 33.167 74 58.5v57h-126c-18 0 -33 5.5 -45 16.5s-18 24.833 -18 41.5s6 30.667 18 42s27 17 45 17h192
c20 0 36.5 -6.5 49.5 -19.5s19.5 -29.5 19.5 -49.5v-85c0 -28.667 -7 -53.667 -21 -75c-30 -44 -71.833 -79.167 -125.5 -105.5s-109.834 -39.5 -168.501 -39.5c-65.333 0 -125 15 -179 45zM551.502 793.5c4.33301 -6.33301 6.50098 -13.5 6.50098 -21.5
c0 -14 -4.83301 -25.833 -14.5 -35.5s-21.167 -14.5 -34.5 -14.5c-14 0 -27 5.33301 -39 16l-83 76l-83 -76c-12 -10.667 -25 -16 -39 -16c-13.333 0 -24.833 4.83301 -34.5 14.5s-14.5 21.5 -14.5 35.5c0 8 2.16699 15.167 6.5 21.5s12.166 14.833 23.499 25.5l94 92
c14.667 13.333 30.334 20 47.001 20c17.333 0 33 -6.66699 47 -20l94 -92c11.333 -10.667 19.166 -19.167 23.499 -25.5z" />
    <glyph glyph-name="gcircumflex" unicode="&#x11d;" horiz-adv-x="631" 
d="M545 486.5c12.667 -13 19 -29.166 19 -48.499v-383c0 -78 -22.5 -138.667 -67.5 -182s-107.833 -65 -188.5 -65c-40.667 0 -79.167 5.83301 -115.5 17.5s-68.833 28.834 -97.5 51.501c-18.667 13.333 -28 29.666 -28 48.999c0 16.667 6 31 18 43s26.333 18 43 18
c11.333 0 23.333 -4.33301 36 -13c42 -29.333 86.333 -44 133 -44c41.333 0 73.666 10.333 96.999 31s35 49.334 35 86.001v27c-36 -39.333 -86.333 -59 -151 -59c-46 0 -87 10.5 -123 31.5s-64 50.167 -84 87.5s-30 79.666 -30 126.999s10 89.666 30 126.999
s48 66.333 84 87s77 31 123 31c33.333 0 63 -5.5 89 -16.5s47.667 -26.5 65 -46.5c0.666992 18 7.5 33 20.5 45s28.167 18 45.5 18c18.667 0 34.334 -6.5 47.001 -19.5zM396.5 166.001c23 24.667 34.5 57 34.5 97c0 38.667 -11.333 69.667 -34 93s-53 35 -91 35
c-37.333 0 -68 -12 -92 -36s-36 -55 -36 -93c0 -38.667 12 -70.5 36 -95.5s54.667 -37.5 92 -37.5s67.5 12.333 90.5 37zM468 636.001c2.66699 -5.33301 3.99805 -12 3.99805 -20c0 -14.667 -5.16699 -26.667 -15.5 -36s-22.166 -14 -35.499 -14c-12.667 0 -24 5 -34 15
l-78 82l-79 -82c-10 -10 -21.333 -15 -34 -15c-13.333 0 -25.166 4.66699 -35.499 14s-15.5 21.333 -15.5 36c0 8 1.33301 14.667 4 20s7 11.666 13 18.999l96 115c13.333 15.333 30.333 23 51 23c20 0 36.667 -7.66699 50 -23l96 -115
c6 -7.33301 10.333 -13.666 13 -18.999z" />
    <glyph glyph-name="Gbreve" unicode="&#x11e;" horiz-adv-x="747" 
d="M212 33c-54 30 -96.498 71.167 -127.498 123.5s-46.5 110.166 -46.5 173.499s15.5 121.166 46.5 173.499s73.5 93.5 127.5 123.5s113.667 45 179 45c44.667 0 88 -8.33301 130 -25s76.667 -39.334 104 -68.001c14.667 -13.333 25.167 -25.666 31.5 -36.999
s9.5 -22.666 9.5 -33.999c0 -16.667 -6.16699 -31 -18.5 -43s-26.833 -18 -43.5 -18c-10.667 0 -20.334 2.33301 -29.001 7s-18 12.334 -28 23.001c-22.667 24 -46.667 41.667 -72 53s-54 17 -86 17c-41.333 0 -78 -9.16699 -110 -27.5s-57 -43.833 -75 -76.5
s-27 -70.334 -27 -113.001c0 -43.333 9.33301 -81.666 28 -114.999s44.667 -59.333 78 -78s71.333 -28 114 -28c36.667 0 70 6.83301 100 20.5s54.667 33.167 74 58.5v57h-126c-18 0 -33 5.5 -45 16.5s-18 24.833 -18 41.5s6 30.667 18 42s27 17 45 17h192
c20 0 36.5 -6.5 49.5 -19.5s19.5 -29.5 19.5 -49.5v-85c0 -28.667 -7 -53.667 -21 -75c-30 -44 -71.833 -79.167 -125.5 -105.5s-109.834 -39.5 -168.501 -39.5c-65.333 0 -125 15 -179 45zM306.502 745c-25.667 12.667 -46.5 29.667 -62.5 51s-24 43.666 -24 66.999
c0 15.333 5 27.833 15 37.5s22.333 14.5 37 14.5c10.667 0 20 -3 28 -9s15.333 -15.667 22 -29c14 -32.667 36 -49 66 -49c15.333 0 28.5 4.16699 39.5 12.5s19.5 20.5 25.5 36.5c12.667 25.333 29.667 38 51 38c14.667 0 26.834 -4.83301 36.501 -14.5
s14.5 -22.167 14.5 -37.5c0 -23.333 -7.83301 -45.666 -23.5 -66.999s-36.5 -38.333 -62.5 -51s-53 -19 -81 -19c-28.667 0 -55.834 6.33301 -81.501 19z" />
    <glyph glyph-name="gbreve" unicode="&#x11f;" horiz-adv-x="631" 
d="M545 486.5c12.667 -13 19 -29.166 19 -48.499v-383c0 -78 -22.5 -138.667 -67.5 -182s-107.833 -65 -188.5 -65c-40.667 0 -79.167 5.83301 -115.5 17.5s-68.833 28.834 -97.5 51.501c-18.667 13.333 -28 29.666 -28 48.999c0 16.667 6 31 18 43s26.333 18 43 18
c11.333 0 23.333 -4.33301 36 -13c42 -29.333 86.333 -44 133 -44c41.333 0 73.666 10.333 96.999 31s35 49.334 35 86.001v27c-36 -39.333 -86.333 -59 -151 -59c-46 0 -87 10.5 -123 31.5s-64 50.167 -84 87.5s-30 79.666 -30 126.999s10 89.666 30 126.999
s48 66.333 84 87s77 31 123 31c33.333 0 63 -5.5 89 -16.5s47.667 -26.5 65 -46.5c0.666992 18 7.5 33 20.5 45s28.167 18 45.5 18c18.667 0 34.334 -6.5 47.001 -19.5zM396.5 166.001c23 24.667 34.5 57 34.5 97c0 38.667 -11.333 69.667 -34 93s-53 35 -91 35
c-37.333 0 -68 -12 -92 -36s-36 -55 -36 -93c0 -38.667 12 -70.5 36 -95.5s54.667 -37.5 92 -37.5s67.5 12.333 90.5 37zM224.5 593.001c-26.333 13.333 -47.334 31.166 -63.001 53.499s-23.5 46.166 -23.5 71.499c0 15.333 5 28.333 15 39s22.333 16 37 16
c26.667 0 44 -13.667 52 -41c4 -17.333 12 -31.166 24 -41.499s26.333 -15.5 43 -15.5s30.834 5.16699 42.501 15.5s19.5 24.166 23.5 41.499c8 27.333 25 41 51 41c14.667 0 27.167 -5.33301 37.5 -16s15.5 -23.667 15.5 -39c0 -25.333 -7.66699 -49.166 -23 -71.499
s-36 -40.166 -62 -53.499s-54.333 -20 -85 -20c-30 0 -58.167 6.66699 -84.5 20z" />
    <glyph glyph-name="Gdotaccent" unicode="&#x120;" horiz-adv-x="747" 
d="M212 33c-54 30 -96.498 71.167 -127.498 123.5s-46.5 110.166 -46.5 173.499s15.5 121.166 46.5 173.499s73.5 93.5 127.5 123.5s113.667 45 179 45c44.667 0 88 -8.33301 130 -25s76.667 -39.334 104 -68.001c14.667 -13.333 25.167 -25.666 31.5 -36.999
s9.5 -22.666 9.5 -33.999c0 -16.667 -6.16699 -31 -18.5 -43s-26.833 -18 -43.5 -18c-10.667 0 -20.334 2.33301 -29.001 7s-18 12.334 -28 23.001c-22.667 24 -46.667 41.667 -72 53s-54 17 -86 17c-41.333 0 -78 -9.16699 -110 -27.5s-57 -43.833 -75 -76.5
s-27 -70.334 -27 -113.001c0 -43.333 9.33301 -81.666 28 -114.999s44.667 -59.333 78 -78s71.333 -28 114 -28c36.667 0 70 6.83301 100 20.5s54.667 33.167 74 58.5v57h-126c-18 0 -33 5.5 -45 16.5s-18 24.833 -18 41.5s6 30.667 18 42s27 17 45 17h192
c20 0 36.5 -6.5 49.5 -19.5s19.5 -29.5 19.5 -49.5v-85c0 -28.667 -7 -53.667 -21 -75c-30 -44 -71.833 -79.167 -125.5 -105.5s-109.834 -39.5 -168.501 -39.5c-65.333 0 -125 15 -179 45zM447.002 872.5c16.667 -15.667 25 -34.834 25 -57.501
s-8.33301 -41.834 -25 -57.501s-36.334 -23.5 -59.001 -23.5c-23.333 0 -43.333 7.83301 -60 23.5s-25 34.834 -25 57.501s8.33301 41.834 25 57.501s36.667 23.5 60 23.5c22.667 0 42.334 -7.83301 59.001 -23.5z" />
    <glyph glyph-name="gdotaccent" unicode="&#x121;" horiz-adv-x="631" 
d="M545 486.5c12.667 -13 19 -29.166 19 -48.499v-383c0 -78 -22.5 -138.667 -67.5 -182s-107.833 -65 -188.5 -65c-40.667 0 -79.167 5.83301 -115.5 17.5s-68.833 28.834 -97.5 51.501c-18.667 13.333 -28 29.666 -28 48.999c0 16.667 6 31 18 43s26.333 18 43 18
c11.333 0 23.333 -4.33301 36 -13c42 -29.333 86.333 -44 133 -44c41.333 0 73.666 10.333 96.999 31s35 49.334 35 86.001v27c-36 -39.333 -86.333 -59 -151 -59c-46 0 -87 10.5 -123 31.5s-64 50.167 -84 87.5s-30 79.666 -30 126.999s10 89.666 30 126.999
s48 66.333 84 87s77 31 123 31c33.333 0 63 -5.5 89 -16.5s47.667 -26.5 65 -46.5c0.666992 18 7.5 33 20.5 45s28.167 18 45.5 18c18.667 0 34.334 -6.5 47.001 -19.5zM396.5 166.001c23 24.667 34.5 57 34.5 97c0 38.667 -11.333 69.667 -34 93s-53 35 -91 35
c-37.333 0 -68 -12 -92 -36s-36 -55 -36 -93c0 -38.667 12 -70.5 36 -95.5s54.667 -37.5 92 -37.5s67.5 12.333 90.5 37zM368 733.001c16.667 -16 25 -35.334 25 -58.001c0 -22 -8.33301 -41 -25 -57s-36.334 -24 -59.001 -24c-23.333 0 -43.333 7.83301 -60 23.5
s-25 34.834 -25 57.501s8.33301 42 25 58s36.667 24 60 24c22.667 0 42.334 -8 59.001 -24z" />
    <glyph glyph-name="Gcommaaccent" unicode="&#x122;" horiz-adv-x="747" 
d="M212 33c-54 30 -96.498 71.167 -127.498 123.5s-46.5 110.166 -46.5 173.499s15.5 121.166 46.5 173.499s73.5 93.5 127.5 123.5s113.667 45 179 45c44.667 0 88 -8.33301 130 -25s76.667 -39.334 104 -68.001c14.667 -13.333 25.167 -25.666 31.5 -36.999
s9.5 -22.666 9.5 -33.999c0 -16.667 -6.16699 -31 -18.5 -43s-26.833 -18 -43.5 -18c-10.667 0 -20.334 2.33301 -29.001 7s-18 12.334 -28 23.001c-22.667 24 -46.667 41.667 -72 53s-54 17 -86 17c-41.333 0 -78 -9.16699 -110 -27.5s-57 -43.833 -75 -76.5
s-27 -70.334 -27 -113.001c0 -43.333 9.33301 -81.666 28 -114.999s44.667 -59.333 78 -78s71.333 -28 114 -28c36.667 0 70 6.83301 100 20.5s54.667 33.167 74 58.5v57h-126c-18 0 -33 5.5 -45 16.5s-18 24.833 -18 41.5s6 30.667 18 42s27 17 45 17h192
c20 0 36.5 -6.5 49.5 -19.5s19.5 -29.5 19.5 -49.5v-85c0 -28.667 -7 -53.667 -21 -75c-30 -44 -71.833 -79.167 -125.5 -105.5s-109.834 -39.5 -168.501 -39.5c-65.333 0 -125 15 -179 45zM316.502 -237c-11.667 11.333 -17.5 24.335 -17.5 39.002c0 10 1.66699 21 5 33
c4.66699 23.333 7 42.666 7 57.999c0 18.667 6.66699 34.5 20 47.5s29.333 19.5 48 19.5s34.5 -6.5 47.5 -19.5s19.5 -28.833 19.5 -47.5c0 -21.333 -3.5 -42.833 -10.5 -64.5s-15.833 -38.834 -26.5 -51.501c-14.667 -20.667 -32 -31 -52 -31
c-15.333 0 -28.833 5.66699 -40.5 17z" />
    <glyph glyph-name="gcommaaccent" unicode="&#x123;" horiz-adv-x="631" 
d="M545 486.5c12.667 -13 19 -29.166 19 -48.499v-383c0 -78 -22.5 -138.667 -67.5 -182s-107.833 -65 -188.5 -65c-40.667 0 -79.167 5.83301 -115.5 17.5s-68.833 28.834 -97.5 51.501c-18.667 13.333 -28 29.666 -28 48.999c0 16.667 6 31 18 43s26.333 18 43 18
c11.333 0 23.333 -4.33301 36 -13c42 -29.333 86.333 -44 133 -44c41.333 0 73.666 10.333 96.999 31s35 49.334 35 86.001v27c-36 -39.333 -86.333 -59 -151 -59c-46 0 -87 10.5 -123 31.5s-64 50.167 -84 87.5s-30 79.666 -30 126.999s10 89.666 30 126.999
s48 66.333 84 87s77 31 123 31c33.333 0 63 -5.5 89 -16.5s47.667 -26.5 65 -46.5c0.666992 18 7.5 33 20.5 45s28.167 18 45.5 18c18.667 0 34.334 -6.5 47.001 -19.5zM396.5 166.001c23 24.667 34.5 57 34.5 97c0 38.667 -11.333 69.667 -34 93s-53 35 -91 35
c-37.333 0 -68 -12 -92 -36s-36 -55 -36 -93c0 -38.667 12 -70.5 36 -95.5s54.667 -37.5 92 -37.5s67.5 12.333 90.5 37zM263 578.501c-12.667 12.333 -18.999 27.833 -18.999 46.5c0 22 3 46.833 9 74.5s13 51.167 21 70.5c14 32 34.667 48 62 48
c15.333 0 28.666 -5.5 39.999 -16.5s17 -24.5 17 -40.5c0 -6 -1 -13.333 -3 -22s-3.33301 -14.667 -4 -18c-7.33301 -40 -11 -72 -11 -96c0 -18 -6.5 -33.333 -19.5 -46s-28.5 -19 -46.5 -19s-33.333 6.16699 -46 18.5z" />
    <glyph glyph-name="Hcircumflex" unicode="&#x124;" horiz-adv-x="712" 
d="M94.5 8c-13 13.333 -19.5 30 -19.5 50v544c0 20 6.33301 36.667 19 50s29 20 49 20c19.333 0 35.333 -6.66699 48 -20s19 -30 19 -50v-195h292v196c0 20 6.33301 36.5 19 49.5s29 19.5 49 19.5c19.333 0 35.333 -6.5 48 -19.5s19 -29.5 19 -49.5v-545
c0 -20 -6.33301 -36.667 -19 -50s-28.667 -20 -48 -20s-35.5 6.66699 -48.5 20s-19.5 30 -19.5 50v227h-292v-227c0 -20 -6.33301 -36.667 -19 -50s-28.667 -20 -48 -20s-35.5 6.66699 -48.5 20zM519.5 793.5c4.33301 -6.33301 6.50098 -13.5 6.50098 -21.5
c0 -14 -4.83301 -25.833 -14.5 -35.5s-21.167 -14.5 -34.5 -14.5c-14 0 -27 5.33301 -39 16l-83 76l-83 -76c-12 -10.667 -25 -16 -39 -16c-13.333 0 -24.833 4.83301 -34.5 14.5s-14.5 21.5 -14.5 35.5c0 8 2.16699 15.167 6.5 21.5s12.166 14.833 23.499 25.5l94 92
c14.667 13.333 30.334 20 47.001 20c17.333 0 33 -6.66699 47 -20l94 -92c11.333 -10.667 19.166 -19.167 23.499 -25.5z" />
    <glyph glyph-name="hcircumflex" unicode="&#x125;" horiz-adv-x="585" 
d="M471.5 451.5c33.667 -36.333 50.5 -84.4961 50.5 -144.496v-250c0 -20 -6.33301 -36.5 -19 -49.5s-28.667 -19.5 -48 -19.5c-18.667 0 -34.5 6.66699 -47.5 20s-19.5 29.666 -19.5 48.999v231c0 28.667 -8.5 51.834 -25.5 69.501s-39.167 26.5 -66.5 26.5
s-49.833 -8.83301 -67.5 -26.5s-26.5 -40.834 -26.5 -69.501v-231c0 -20 -6.33301 -36.5 -19 -49.5s-28.667 -19.5 -48 -19.5s-35.5 6.66699 -48.5 20s-19.5 29.666 -19.5 48.999v636c0 19.333 6.5 35.666 19.5 48.999s29.167 20 48.5 20s35.333 -6.5 48 -19.5
s19 -29.5 19 -49.5v-241c17.333 17.333 37.5 30.666 60.5 39.999s48.167 14 75.5 14c55.333 0 99.833 -18.167 133.5 -54.5zM365.5 883.504c4.33301 -6.33301 6.50098 -13.5 6.50098 -21.5c0 -14 -4.83301 -25.833 -14.5 -35.5s-21.167 -14.5 -34.5 -14.5
c-14 0 -27 5.33301 -39 16l-83 76l-83 -76c-12 -10.667 -25 -16 -39 -16c-13.333 0 -24.833 4.83301 -34.5 14.5s-14.5 21.5 -14.5 35.5c0 8 2.16699 15.167 6.5 21.5s12.166 14.833 23.499 25.5l94 92c14.667 13.333 30.334 20 47.001 20c17.333 0 33 -6.66699 47 -20
l94 -92c11.333 -10.667 19.166 -19.167 23.499 -25.5z" />
    <glyph glyph-name="Hbar" unicode="&#x126;" horiz-adv-x="732" 
d="M104.5 8c-13 13.333 -19.5 29.666 -19.5 48.999v379h-43c-16.667 0 -30.334 5.33301 -41.001 16s-16 24 -16 40c0 16.667 5.33301 30.334 16 41.001s24.334 16 41.001 16h43v54c0 19.333 6.5 35.666 19.5 48.999s28.833 20 47.5 20c19.333 0 35.5 -6.66699 48.5 -20
s19.5 -29.666 19.5 -48.999v-54h292v54c0 19.333 6.33301 35.666 19 48.999s28.667 20 48 20s35.5 -6.66699 48.5 -20s19.5 -29.666 19.5 -48.999v-54h43c16.667 0 30.334 -5.33301 41.001 -16s16 -24.334 16 -41.001c0 -16 -5.33301 -29.333 -16 -40
s-24.334 -16 -41.001 -16h-43v-379c0 -19.333 -6.5 -35.666 -19.5 -48.999s-29.167 -20 -48.5 -20c-18.667 0 -34.5 6.66699 -47.5 20s-19.5 29.666 -19.5 48.999v157h-292v-157c0 -19.333 -6.5 -35.666 -19.5 -48.999s-29.167 -20 -48.5 -20
c-18.667 0 -34.5 6.66699 -47.5 20zM512 330v106h-292v-106h292z" />
    <glyph glyph-name="hbar" unicode="&#x127;" horiz-adv-x="593" 
d="M479.5 422.5c33.667 -36.333 50.5 -84.499 50.5 -144.499v-221c0 -20 -6.33301 -36.5 -19 -49.5s-28.667 -19.5 -48 -19.5s-35.5 6.66699 -48.5 20s-19.5 29.666 -19.5 48.999v202c0 28.667 -8.33301 51.834 -25 69.501s-38.667 26.5 -66 26.5
c-28 0 -50.833 -8.83301 -68.5 -26.5s-26.5 -40.834 -26.5 -69.501v-202c0 -19.333 -6.5 -35.666 -19.5 -48.999s-28.833 -20 -47.5 -20s-34.5 6.66699 -47.5 20s-19.5 29.666 -19.5 48.999v494h-30c-16 0 -29.5 5.33301 -40.5 16s-16.5 24 -16.5 40s5.5 29.167 16.5 39.5
s24.5 15.5 40.5 15.5h30v31c0 20 6.33301 36.5 19 49.5s28.667 19.5 48 19.5c18.667 0 34.5 -6.66699 47.5 -20s19.5 -29.666 19.5 -48.999v-31h142c16 0 29.333 -5.16699 40 -15.5s16 -23.5 16 -39.5s-5.33301 -29.333 -16 -40s-24 -16 -40 -16h-142v-128
c17.333 17.333 37.5 30.666 60.5 39.999s48.167 14 75.5 14c56 0 100.833 -18.167 134.5 -54.5z" />
    <glyph glyph-name="Itilde" unicode="&#x128;" horiz-adv-x="285" 
d="M94 7.5c-12.667 13 -19 29.498 -19 49.498v546c0 20 6.33301 36.5 19 49.5s29 19.5 49 19.5c19.333 0 35.333 -6.66699 48 -20s19 -29.666 19 -48.999v-546c0 -19.333 -6.33301 -35.666 -19 -48.999s-28.667 -20 -48 -20c-20 0 -36.333 6.5 -49 19.5zM-42 732.498
c-10 10.333 -15.002 24.1641 -15.002 41.4971c0 38 11 69 33 93s50 36 84 36c24.667 0 49.334 -7 74.001 -21l31 -18c8.66699 -4.66699 16.667 -8.66699 24 -12s14 -5 20 -5c16 0 26 9 30 27c3.33301 11.333 9.33301 20.333 18 27s19.334 10 32.001 10
c16.667 0 29.834 -5.16699 39.501 -15.5s14.5 -24.166 14.5 -41.499c0 -38 -10.833 -69 -32.5 -93s-49.834 -36 -84.501 -36c-24.667 0 -49.334 7 -74.001 21l-30 17c-11.333 6 -20.166 10.333 -26.499 13s-12.5 4 -18.5 4c-8 0 -14.333 -2.16699 -19 -6.5
s-8.33398 -11.166 -11.001 -20.499c-3.33301 -11.333 -9.16602 -20.166 -17.499 -26.499s-18.833 -9.5 -31.5 -9.5c-16.667 0 -30 5.16699 -40 15.5z" />
    </font>
</defs>
</svg>
