<?xml version="1.0" encoding="utf-8"?>
<!-- Generator: Adobe Illustrator 22.0.1, SVG Export Plug-In . SVG Version: 6.00 Build 0)  -->
<svg version="1.1" id="Слой_1" xmlns="http://www.w3.org/2000/svg" xmlns:xlink="http://www.w3.org/1999/xlink" x="0px" y="0px"
	 viewBox="0 0 50 50" style="enable-background:new 0 0 50 50;" xml:space="preserve">
<style type="text/css">
	.st0{fill-rule:evenodd;clip-rule:evenodd;fill:#579AFF;}
</style>
<g>
	<g>
		<path class="st0" d="M44.3,22.3H13.3L26.5,9c1.1-1.1,1.1-2.8,0-3.8c-1.1-1.1-2.8-1.1-3.8,0L4.9,23C4.4,23.5,4,24.2,4,25
			c0,0.8,0.3,1.4,0.8,1.9c0,0,0,0,0.1,0.1l17.7,17.8c1,1.1,2.8,1.1,3.8,0c1-1.1,1-2.8,0-3.8L13.2,27.7h31.1c1.5,0,2.7-1.2,2.7-2.7
			C47,23.5,45.8,22.3,44.3,22.3z"/>
	</g>
</g>
</svg>
