<?xml version="1.0" encoding="utf-8"?>
<!-- Generator: Adobe Illustrator 22.0.1, SVG Export Plug-In . SVG Version: 6.00 Build 0)  -->
<svg version="1.1" id="Слой_1" xmlns="http://www.w3.org/2000/svg" xmlns:xlink="http://www.w3.org/1999/xlink" x="0px" y="0px"
	 viewBox="0 0 50 50" style="enable-background:new 0 0 50 50;" xml:space="preserve">
<style type="text/css">
	.st0{fill:#333333;}
</style>
<g>
	<g>
		<path class="st0" d="M40.2,6.3C40.1,6.3,40.1,6.3,40.2,6.3c0-0.1-0.1-0.2-0.1-0.2C40,6.1,40,6,40,6c0,0-0.1-0.1-0.1-0.1
			c0,0-0.1-0.1-0.1-0.1c0,0-0.1,0-0.1-0.1c-0.1,0-0.1,0-0.2,0c0,0-0.1,0-0.1,0h-3.9C35.2,3,34,1,32.3,1c-1.6,0-2.9,2-3.1,4.7h-1.6
			C27.4,3,26.1,1,24.5,1c-1.6,0-2.9,2-3.1,4.7h-1.6C19.6,3,18.3,1,16.7,1c-1.6,0-2.9,2-3.1,4.7h-1.6C11.7,3,10.5,1,8.8,1
			C7.2,1,5.9,3,5.7,5.7H1.8C1.4,5.7,1,6.1,1,6.5v40.7C1,47.6,1.4,48,1.8,48h37.6c0.4,0,0.8-0.4,0.8-0.8v-2.3h7
			c0.2,0,0.5-0.1,0.6-0.3c0.1-0.2,0.2-0.4,0.2-0.7L40.2,6.3z M32.3,2.6c0.6,0,1.4,1.2,1.5,3.1h-3.1C31,3.8,31.8,2.6,32.3,2.6z
			 M24.5,2.6c0.6,0,1.4,1.2,1.5,3.1H23C23.1,3.8,23.9,2.6,24.5,2.6z M16.7,2.6c0.6,0,1.4,1.2,1.5,3.1h-3.1
			C15.3,3.8,16.1,2.6,16.7,2.6z M8.8,2.6c0.6,0,1.4,1.2,1.5,3.1H7.3C7.5,3.8,8.3,2.6,8.8,2.6z M38.6,46.4h-36V16.7h36V46.4z
			 M38.6,15.1h-36V7.3h3.2C5.9,10,7.2,12,8.8,12c0.4,0,0.8-0.4,0.8-0.8s-0.4-0.8-0.8-0.8c-0.6,0-1.4-1.2-1.5-3.1h6.3
			C13.8,10,15,12,16.7,12c0.4,0,0.8-0.4,0.8-0.8s-0.4-0.8-0.8-0.8c-0.6,0-1.4-1.2-1.5-3.1h6.3c0.2,2.7,1.5,4.7,3.1,4.7
			c0.4,0,0.8-0.4,0.8-0.8s-0.4-0.8-0.8-0.8c-0.6,0-1.4-1.2-1.5-3.1h6.3c0.2,2.7,1.5,4.7,3.1,4.7c0.4,0,0.8-0.4,0.8-0.8
			s-0.4-0.8-0.8-0.8c-0.6,0-1.4-1.2-1.5-3.1h7.8V15.1z M40.2,43.3V14.1l6.1,29.2H40.2z M15.1,33.9h3.1c0.4,0,0.8-0.4,0.8-0.8V30
			c0-0.4-0.4-0.8-0.8-0.8h-3.1c-0.4,0-0.8,0.4-0.8,0.8v3.1C14.3,33.5,14.7,33.9,15.1,33.9z M15.9,30.8h1.6v1.6h-1.6V30.8z
			 M22.9,33.9h3.1c0.4,0,0.8-0.4,0.8-0.8V30c0-0.4-0.4-0.8-0.8-0.8h-3.1c-0.4,0-0.8,0.4-0.8,0.8v3.1C22.1,33.5,22.5,33.9,22.9,33.9z
			 M23.7,30.8h1.6v1.6h-1.6V30.8z M7.3,33.9h3.1c0.4,0,0.8-0.4,0.8-0.8V30c0-0.4-0.4-0.8-0.8-0.8H7.3c-0.4,0-0.8,0.4-0.8,0.8v3.1
			C6.5,33.5,6.8,33.9,7.3,33.9z M8,30.8h1.6v1.6H8V30.8z M15.1,41.7h3.1c0.4,0,0.8-0.4,0.8-0.8v-3.1c0-0.4-0.4-0.8-0.8-0.8h-3.1
			c-0.4,0-0.8,0.4-0.8,0.8v3.1C14.3,41.4,14.7,41.7,15.1,41.7z M15.9,38.6h1.6v1.6h-1.6V38.6z M22.9,41.7h3.1c0.4,0,0.8-0.4,0.8-0.8
			v-3.1c0-0.4-0.4-0.8-0.8-0.8h-3.1c-0.4,0-0.8,0.4-0.8,0.8v3.1C22.1,41.4,22.5,41.7,22.9,41.7z M23.7,38.6h1.6v1.6h-1.6V38.6z
			 M7.3,41.7h3.1c0.4,0,0.8-0.4,0.8-0.8v-3.1c0-0.4-0.4-0.8-0.8-0.8H7.3c-0.4,0-0.8,0.4-0.8,0.8v3.1C6.5,41.4,6.8,41.7,7.3,41.7z
			 M8,38.6h1.6v1.6H8V38.6z M15.1,26.1h3.1c0.4,0,0.8-0.4,0.8-0.8v-3.1c0-0.4-0.4-0.8-0.8-0.8h-3.1c-0.4,0-0.8,0.4-0.8,0.8v3.1
			C14.3,25.7,14.7,26.1,15.1,26.1z M15.9,22.9h1.6v1.6h-1.6V22.9z M22.9,26.1h3.1c0.4,0,0.8-0.4,0.8-0.8v-3.1c0-0.4-0.4-0.8-0.8-0.8
			h-3.1c-0.4,0-0.8,0.4-0.8,0.8v3.1C22.1,25.7,22.5,26.1,22.9,26.1z M23.7,22.9h1.6v1.6h-1.6V22.9z M30.8,33.9h3.1
			c0.4,0,0.8-0.4,0.8-0.8V30c0-0.4-0.4-0.8-0.8-0.8h-3.1c-0.4,0-0.8,0.4-0.8,0.8v3.1C30,33.5,30.3,33.9,30.8,33.9z M31.5,30.8h1.6
			v1.6h-1.6V30.8z M30.8,41.7h3.1c0.4,0,0.8-0.4,0.8-0.8v-3.1c0-0.4-0.4-0.8-0.8-0.8h-3.1c-0.4,0-0.8,0.4-0.8,0.8v3.1
			C30,41.4,30.3,41.7,30.8,41.7z M31.5,38.6h1.6v1.6h-1.6V38.6z M30.8,26.1h3.1c0.4,0,0.8-0.4,0.8-0.8v-3.1c0-0.4-0.4-0.8-0.8-0.8
			h-3.1c-0.4,0-0.8,0.4-0.8,0.8v3.1C30,25.7,30.3,26.1,30.8,26.1z M31.5,22.9h1.6v1.6h-1.6V22.9z M7.3,26.1h3.1
			c0.4,0,0.8-0.4,0.8-0.8v-3.1c0-0.4-0.4-0.8-0.8-0.8H7.3c-0.4,0-0.8,0.4-0.8,0.8v3.1C6.5,25.7,6.8,26.1,7.3,26.1z M8,22.9h1.6v1.6
			H8V22.9z"/>
	</g>
</g>
</svg>
