<?xml version="1.0" encoding="utf-8"?>
<!-- Generator: Adobe Illustrator 22.0.1, SVG Export Plug-In . SVG Version: 6.00 Build 0)  -->
<svg version="1.1" id="Слой_1" xmlns="http://www.w3.org/2000/svg" xmlns:xlink="http://www.w3.org/1999/xlink" x="0px" y="0px"
	 viewBox="0 0 50 50" style="enable-background:new 0 0 50 50;" xml:space="preserve">
<style type="text/css">
	.st0{fill:#232323;}
</style>
<g>
	<g>
		<path class="st0" d="M47.9,40.7l-5.7-8.6l1-0.3c0.4-0.1,0.6-0.6,0.5-1c0,0,0,0,0-0.1l-1.8-4.5l3.6-3.3c0.3-0.3,0.3-0.8,0-1.1
			c0,0,0,0,0,0l-3.6-3.3l1.8-4.5c0.2-0.4,0-0.9-0.4-1c0,0,0,0-0.1,0l-4.7-1.5L38,6.6c0-0.2-0.1-0.4-0.3-0.5
			c-0.2-0.1-0.4-0.2-0.6-0.2l-4.9,0.7l-2.5-4.2C29.5,2,29,1.9,28.6,2.1c0,0,0,0,0,0l-4.1,2.7l-4.1-2.7C20,1.9,19.5,2,19.3,2.4
			c0,0,0,0,0,0l-2.5,4.2l-4.9-0.7C11.4,5.8,11,6.1,11,6.6c0,0,0,0,0,0l-0.4,4.8l-4.7,1.5c-0.4,0.1-0.6,0.6-0.5,1c0,0,0,0,0,0.1
			l1.8,4.5l-3.6,3.3c-0.3,0.3-0.3,0.8,0,1.1c0,0,0,0,0,0l3.6,3.3l-1.8,4.5c-0.2,0.4,0,0.9,0.4,1c0,0,0,0,0.1,0l1,0.3l-5.8,9.4
			c-0.2,0.4-0.1,0.9,0.3,1.1c0.2,0.1,0.4,0.1,0.6,0.1l7.9-1.4l1.4,7.1c0.1,0.3,0.3,0.6,0.6,0.6c0.1,0,0.1,0,0.2,0
			c0.3,0,0.5-0.1,0.7-0.3l5.5-8.2l1.2,1.9c0.1,0.2,0.3,0.3,0.5,0.4c0.1,0,0.1,0,0.2,0c0.2,0,0.3,0,0.4-0.1l4.1-2.7l4.1,2.7
			c0.4,0.2,0.8,0.1,1.1-0.2c0,0,0,0,0,0l1.2-1.9l5.5,8.2c0.1,0.2,0.4,0.3,0.7,0.3c0.1,0,0.1,0,0.2,0c0.3-0.1,0.6-0.3,0.6-0.6
			l1.4-7.1l7.9,0.7c0.4,0,0.8-0.3,0.9-0.7C48,41.1,48,40.9,47.9,40.7z M12.4,46.2l-1.2-6c-0.1-0.4-0.5-0.7-0.9-0.6l-6.9,1.3l5.1-8.2
			l2.1,0.7l0.4,4.8c0,0.2,0.1,0.4,0.3,0.5c0.2,0.1,0.4,0.2,0.6,0.2l4.9-0.7l0.5,0.8L12.4,46.2z M31.2,36.9l-2.4,3.9l-3.9-2.5
			c-0.3-0.2-0.6-0.2-0.9,0l-3.9,2.5l-2.4-3.9c-0.1-0.2-0.4-0.4-0.7-0.4c0,0-0.1,0-0.1,0l-4.6,0.6l-0.4-4.5c0-0.3-0.2-0.6-0.5-0.7
			l-4.4-1.4l1.6-4.2c0.1-0.3,0-0.6-0.2-0.9l-3.4-3.1l3.4-3.1c0.2-0.2,0.3-0.6,0.2-0.9l-1.6-4.2l4.4-1.4c0.3-0.1,0.5-0.4,0.5-0.7
			l0.4-4.5l4.6,0.6c0.3,0,0.6-0.1,0.8-0.4l2.4-3.9l3.9,2.5c0.3,0.2,0.6,0.2,0.9,0l3.9-2.5l2.4,3.9c0.2,0.3,0.5,0.4,0.8,0.4l4.6-0.6
			l0.4,4.5c0,0.3,0.2,0.6,0.5,0.7l4.4,1.4l-1.6,4.2c-0.1,0.3,0,0.6,0.2,0.9l3.4,3.1l-3.4,3.1c-0.2,0.2-0.3,0.6-0.2,0.9l1.6,4.2
			L37.5,32c-0.3,0.1-0.5,0.4-0.5,0.7l-0.4,4.5l-4.6-0.6C31.6,36.5,31.3,36.6,31.2,36.9z M38.7,39.6c-0.4,0-0.8,0.2-0.8,0.6l-1.2,6
			l-4.9-7.3l0.5-0.8l4.9,0.7c0.4,0.1,0.8-0.2,0.9-0.7c0,0,0,0,0,0l0.4-4.8l2.2-0.7l5.1,7.6L38.7,39.6z M33.9,27.8
			c0-0.4-0.1-0.8-0.3-1.1c0.1-0.1,0.3-0.2,0.4-0.3c0.8-0.7,0.9-1.9,0.4-2.8c0.1-0.1,0.3-0.2,0.4-0.3c0.8-0.7,0.9-1.9,0.4-2.8
			c0.1-0.1,0.3-0.2,0.4-0.3c0.4-0.4,0.7-1,0.7-1.7c0-1.3-1.1-2.3-2.3-2.3h-5.5V13c0-2.2-1.7-3.9-3.9-3.9h0c-0.4,0-0.8,0.4-0.8,0.8
			v3.7l-1.4,2.8l-2.5,2c0-0.4-0.4-0.7-0.8-0.7h-5.5c-0.4,0-0.8,0.4-0.8,0.8v11.7c0,0.4,0.4,0.8,0.8,0.8H19c0.4,0,0.8-0.4,0.8-0.8
			h11.8C32.8,30.2,33.9,29.1,33.9,27.8z M18.2,29.4h-3.9V19.2h3.9V29.4z M32.3,23.9c0.4,0,0.8,0.4,0.8,0.8c0,0.2-0.1,0.4-0.2,0.6
			c-0.1,0.1-0.3,0.2-0.5,0.2h-3.1v1.6h2.4c0.4,0,0.8,0.4,0.8,0.8c0,0.2-0.1,0.4-0.2,0.6c-0.1,0.1-0.3,0.2-0.5,0.2H19.8v-8.2l3.6-2.9
			c0.1-0.1,0.2-0.2,0.2-0.3l1.6-3.1c0.1-0.1,0.1-0.2,0.1-0.4v-3c0.9,0.3,1.6,1.2,1.6,2.2v3.9c0,0.4,0.4,0.8,0.8,0.8h6.3
			c0.4,0,0.8,0.4,0.8,0.8c0,0.2-0.1,0.4-0.2,0.6c-0.1,0.1-0.3,0.2-0.5,0.2h-3.1v1.6h2.4c0.4,0,0.8,0.4,0.8,0.8
			c0,0.2-0.1,0.4-0.2,0.6c-0.1,0.1-0.3,0.2-0.5,0.2H30v1.6H32.3z"/>
	</g>
</g>
</svg>
