<?xml version="1.0" encoding="utf-8"?>
<!-- Generator: Adobe Illustrator 22.0.1, SVG Export Plug-In . SVG Version: 6.00 Build 0)  -->
<svg version="1.1" id="Слой_1" xmlns="http://www.w3.org/2000/svg" xmlns:xlink="http://www.w3.org/1999/xlink" x="0px" y="0px"
	 viewBox="0 0 50 50" style="enable-background:new 0 0 50 50;" xml:space="preserve">
<style type="text/css">
	.st0{fill:#282828;}
</style>
<g>
	<g>
		<path class="st0" d="M44.9,45.3l-6.7-16.2c-0.2-0.4-0.6-0.6-1.1-0.4c-0.4,0.2-0.6,0.6-0.4,1.1l6.1,14.6l-5.5-1.6
			c-0.4-0.1-0.7,0.1-0.9,0.4l-2.8,5l-6.5-15.7c7.5-1.4,13.2-8.1,13.2-16c0-9-7.3-16.3-16.3-16.3c-9,0-16.3,7.3-16.3,16.3
			c0,3.6,1.2,7,3.2,9.7L3.1,45.3C3,45.6,3,45.9,3.2,46.1c0.2,0.2,0.5,0.3,0.8,0.2l6.5-1.9l3.3,6c0.1,0.3,0.4,0.4,0.7,0.4
			c0,0,0,0,0,0c0.3,0,0.6-0.2,0.7-0.5l6.3-15.1c0.2-0.4,0-0.9-0.4-1.1c-0.4-0.2-0.9,0-1.1,0.4l-5.6,13.6l-2.8-5
			c-0.2-0.3-0.6-0.5-0.9-0.4l-5.5,1.6l6.9-16.8c3,3.2,7.2,5.2,11.9,5.2c0.5,0,1,0,1.4-0.1l7.3,17.7c0.1,0.3,0.4,0.5,0.7,0.5
			c0,0,0,0,0,0c0.3,0,0.6-0.2,0.7-0.4l3.3-6l6.5,1.9c0.3,0.1,0.6,0,0.8-0.2C45,45.9,45.1,45.6,44.9,45.3z M24,31.1
			c-8.1,0-14.6-6.6-14.6-14.7C9.4,8.4,15.9,1.8,24,1.8c8.1,0,14.6,6.6,14.6,14.7C38.6,24.5,32.1,31.1,24,31.1z M32.7,12.9L27.3,12
			l-2.5-4.9c-0.1-0.3-0.4-0.4-0.7-0.4c-0.3,0-0.6,0.2-0.7,0.4L20.7,12l-5.4,0.9c-0.3,0-0.5,0.3-0.6,0.5c-0.1,0.3,0,0.6,0.2,0.8
			l3.9,3.9l-0.8,5.5c0,0.3,0.1,0.6,0.3,0.8c0.2,0.2,0.6,0.2,0.8,0.1L24,22l4.9,2.5c0.1,0.1,0.2,0.1,0.4,0.1c0.2,0,0.3-0.1,0.5-0.2
			c0.2-0.2,0.4-0.5,0.3-0.8l-0.8-5.5l3.9-3.9c0.2-0.2,0.3-0.5,0.2-0.8C33.2,13.1,33,12.9,32.7,12.9z M27.8,17.3
			c-0.2,0.2-0.3,0.4-0.2,0.7l0.6,4.3l-3.9-1.9c-0.1-0.1-0.2-0.1-0.4-0.1s-0.2,0-0.4,0.1l-3.9,1.9l0.6-4.3c0-0.3,0-0.5-0.2-0.7
			l-3.1-3.1l4.3-0.7c0.2,0,0.5-0.2,0.6-0.4l2-3.9l2,3.9c0.1,0.2,0.3,0.4,0.6,0.4l4.3,0.7L27.8,17.3z"/>
	</g>
</g>
</svg>
